<mxfile host="app.diagrams.net" modified="2021-03-12T13:34:41.111Z" agent="5.0 (Windows NT 10.0; Win64; x64) AppleWebKit/537.36 (KHTML, like Gecko) Chrome/88.0.4324.190 Safari/537.36" etag="PFJZiBHfcrcNQa8Ix5aY" version="14.4.2" type="github">
  <diagram id="5vYXUpfBawbBj-fYpj4P" name="第 1 页">
    <mxGraphModel dx="981" dy="552" grid="1" gridSize="10" guides="1" tooltips="1" connect="1" arrows="1" fold="1" page="1" pageScale="1" pageWidth="827" pageHeight="1169" math="0" shadow="0">
      <root>
        <mxCell id="0" />
        <mxCell id="1" parent="0" />
        <mxCell id="4ahaboOEKAR06NXVl91K-1" value="" style="shape=image;imageAspect=0;aspect=fixed;verticalLabelPosition=bottom;verticalAlign=top;image=data:image/svg+xml,PHN2ZyB4bWxucz0iaHR0cDovL3d3dy53My5vcmcvMjAwMC9zdmciIHdpZHRoPSI3ODYuNDM3NSIgaGVpZ2h0PSIzNzYuNzAzMTI1IiBzdHlsZT0iY3Vyc29yOiBtb3ZlOyIgdmlld0JveD0iNzA1LjY1NjI1IDMwOCA3ODYuNDM3NSAzNzYuNzAzMTI1Ij48Zz48cGF0aCBjbGFzcz0ibGluayIgbWFya2VyLWVuZD0iIiBkPSJNNzQwLjY2NjY2NjY2NjY2NjYsNDIwLjUsIDg1NC42NjY2NjY2NjY2NjY2LDMxNy41IiBzdHlsZT0ic3Ryb2tlLXdpZHRoOiAwLjc1OyBzdHJva2Utb3BhY2l0eTogMC45NDsgc3Ryb2tlOiByZ2IoODAsIDgwLCA4MCk7Ii8+PHBhdGggY2xhc3M9ImxpbmsiIG1hcmtlci1lbmQ9IiIgZD0iTTc0MC42NjY2NjY2NjY2NjY2LDQyMC41LCA4NTQuNjY2NjY2NjY2NjY2NiwzNTcuNSIgc3R5bGU9InN0cm9rZS13aWR0aDogMC43NTsgc3Ryb2tlLW9wYWNpdHk6IDAuOTQ7IHN0cm9rZTogcmdiKDgwLCA4MCwgODApOyIvPjxwYXRoIGNsYXNzPSJsaW5rIiBtYXJrZXItZW5kPSIiIGQ9Ik03NDAuNjY2NjY2NjY2NjY2Niw0MjAuNSwgODU0LjY2NjY2NjY2NjY2NjYsMzk3LjUiIHN0eWxlPSJzdHJva2Utd2lkdGg6IDAuNzU7IHN0cm9rZS1vcGFjaXR5OiAwLjk0OyBzdHJva2U6IHJnYig4MCwgODAsIDgwKTsiLz48cGF0aCBjbGFzcz0ibGluayIgbWFya2VyLWVuZD0iIiBkPSJNNzQwLjY2NjY2NjY2NjY2NjYsNDIwLjUsIDg1NC42NjY2NjY2NjY2NjY2LDQzNy41IiBzdHlsZT0ic3Ryb2tlLXdpZHRoOiAwLjc1OyBzdHJva2Utb3BhY2l0eTogMC45NDsgc3Ryb2tlOiByZ2IoODAsIDgwLCA4MCk7Ii8+PHBhdGggY2xhc3M9ImxpbmsiIG1hcmtlci1lbmQ9IiIgZD0iTTc0MC42NjY2NjY2NjY2NjY2LDQyMC41LCA4NTQuNjY2NjY2NjY2NjY2Niw0NzcuNSIgc3R5bGU9InN0cm9rZS13aWR0aDogMC43NTsgc3Ryb2tlLW9wYWNpdHk6IDAuOTQ7IHN0cm9rZTogcmdiKDgwLCA4MCwgODApOyIvPjxwYXRoIGNsYXNzPSJsaW5rIiBtYXJrZXItZW5kPSIiIGQ9Ik03NDAuNjY2NjY2NjY2NjY2Niw0MjAuNSwgODU0LjY2NjY2NjY2NjY2NjYsNTE3LjUiIHN0eWxlPSJzdHJva2Utd2lkdGg6IDAuNzU7IHN0cm9rZS1vcGFjaXR5OiAwLjk0OyBzdHJva2U6IHJnYig4MCwgODAsIDgwKTsiLz48cGF0aCBjbGFzcz0ibGluayIgbWFya2VyLWVuZD0iIiBkPSJNNzQwLjY2NjY2NjY2NjY2NjYsNDIwLjUsIDg1NC42NjY2NjY2NjY2NjY2LDU1Ny41IiBzdHlsZT0ic3Ryb2tlLXdpZHRoOiAwLjc1OyBzdHJva2Utb3BhY2l0eTogMC45NDsgc3Ryb2tlOiByZ2IoODAsIDgwLCA4MCk7Ii8+PHBhdGggY2xhc3M9ImxpbmsiIG1hcmtlci1lbmQ9IiIgZD0iTTc0MC42NjY2NjY2NjY2NjY2LDQyMC41LCA4NTQuNjY2NjY2NjY2NjY2Niw1OTcuNSIgc3R5bGU9InN0cm9rZS13aWR0aDogMC43NTsgc3Ryb2tlLW9wYWNpdHk6IDAuOTQ7IHN0cm9rZTogcmdiKDgwLCA4MCwgODApOyIvPjxwYXRoIGNsYXNzPSJsaW5rIiBtYXJrZXItZW5kPSIiIGQ9Ik03NDAuNjY2NjY2NjY2NjY2Niw0NTguNSwgODU0LjY2NjY2NjY2NjY2NjYsMzE3LjUiIHN0eWxlPSJzdHJva2Utd2lkdGg6IDAuNzU7IHN0cm9rZS1vcGFjaXR5OiAwLjk0OyBzdHJva2U6IHJnYig4MCwgODAsIDgwKTsiLz48cGF0aCBjbGFzcz0ibGluayIgbWFya2VyLWVuZD0iIiBkPSJNNzQwLjY2NjY2NjY2NjY2NjYsNDU4LjUsIDg1NC42NjY2NjY2NjY2NjY2LDM1Ny41IiBzdHlsZT0ic3Ryb2tlLXdpZHRoOiAwLjc1OyBzdHJva2Utb3BhY2l0eTogMC45NDsgc3Ryb2tlOiByZ2IoODAsIDgwLCA4MCk7Ii8+PHBhdGggY2xhc3M9ImxpbmsiIG1hcmtlci1lbmQ9IiIgZD0iTTc0MC42NjY2NjY2NjY2NjY2LDQ1OC41LCA4NTQuNjY2NjY2NjY2NjY2NiwzOTcuNSIgc3R5bGU9InN0cm9rZS13aWR0aDogMC43NTsgc3Ryb2tlLW9wYWNpdHk6IDAuOTQ7IHN0cm9rZTogcmdiKDgwLCA4MCwgODApOyIvPjxwYXRoIGNsYXNzPSJsaW5rIiBtYXJrZXItZW5kPSIiIGQ9Ik03NDAuNjY2NjY2NjY2NjY2Niw0NTguNSwgODU0LjY2NjY2NjY2NjY2NjYsNDM3LjUiIHN0eWxlPSJzdHJva2Utd2lkdGg6IDAuNzU7IHN0cm9rZS1vcGFjaXR5OiAwLjk0OyBzdHJva2U6IHJnYig4MCwgODAsIDgwKTsiLz48cGF0aCBjbGFzcz0ibGluayIgbWFya2VyLWVuZD0iIiBkPSJNNzQwLjY2NjY2NjY2NjY2NjYsNDU4LjUsIDg1NC42NjY2NjY2NjY2NjY2LDQ3Ny41IiBzdHlsZT0ic3Ryb2tlLXdpZHRoOiAwLjc1OyBzdHJva2Utb3BhY2l0eTogMC45NDsgc3Ryb2tlOiByZ2IoODAsIDgwLCA4MCk7Ii8+PHBhdGggY2xhc3M9ImxpbmsiIG1hcmtlci1lbmQ9IiIgZD0iTTc0MC42NjY2NjY2NjY2NjY2LDQ1OC41LCA4NTQuNjY2NjY2NjY2NjY2Niw1MTcuNSIgc3R5bGU9InN0cm9rZS13aWR0aDogMC43NTsgc3Ryb2tlLW9wYWNpdHk6IDAuOTQ7IHN0cm9rZTogcmdiKDgwLCA4MCwgODApOyIvPjxwYXRoIGNsYXNzPSJsaW5rIiBtYXJrZXItZW5kPSIiIGQ9Ik03NDAuNjY2NjY2NjY2NjY2Niw0NTguNSwgODU0LjY2NjY2NjY2NjY2NjYsNTU3LjUiIHN0eWxlPSJzdHJva2Utd2lkdGg6IDAuNzU7IHN0cm9rZS1vcGFjaXR5OiAwLjk0OyBzdHJva2U6IHJnYig4MCwgODAsIDgwKTsiLz48cGF0aCBjbGFzcz0ibGluayIgbWFya2VyLWVuZD0iIiBkPSJNNzQwLjY2NjY2NjY2NjY2NjYsNDU4LjUsIDg1NC42NjY2NjY2NjY2NjY2LDU5Ny41IiBzdHlsZT0ic3Ryb2tlLXdpZHRoOiAwLjc1OyBzdHJva2Utb3BhY2l0eTogMC45NDsgc3Ryb2tlOiByZ2IoODAsIDgwLCA4MCk7Ii8+PHBhdGggY2xhc3M9ImxpbmsiIG1hcmtlci1lbmQ9IiIgZD0iTTc0MC42NjY2NjY2NjY2NjY2LDQ5Ni41LCA4NTQuNjY2NjY2NjY2NjY2NiwzMTcuNSIgc3R5bGU9InN0cm9rZS13aWR0aDogMC43NTsgc3Ryb2tlLW9wYWNpdHk6IDAuOTQ7IHN0cm9rZTogcmdiKDgwLCA4MCwgODApOyIvPjxwYXRoIGNsYXNzPSJsaW5rIiBtYXJrZXItZW5kPSIiIGQ9Ik03NDAuNjY2NjY2NjY2NjY2Niw0OTYuNSwgODU0LjY2NjY2NjY2NjY2NjYsMzU3LjUiIHN0eWxlPSJzdHJva2Utd2lkdGg6IDAuNzU7IHN0cm9rZS1vcGFjaXR5OiAwLjk0OyBzdHJva2U6IHJnYig4MCwgODAsIDgwKTsiLz48cGF0aCBjbGFzcz0ibGluayIgbWFya2VyLWVuZD0iIiBkPSJNNzQwLjY2NjY2NjY2NjY2NjYsNDk2LjUsIDg1NC42NjY2NjY2NjY2NjY2LDM5Ny41IiBzdHlsZT0ic3Ryb2tlLXdpZHRoOiAwLjc1OyBzdHJva2Utb3BhY2l0eTogMC45NDsgc3Ryb2tlOiByZ2IoODAsIDgwLCA4MCk7Ii8+PHBhdGggY2xhc3M9ImxpbmsiIG1hcmtlci1lbmQ9IiIgZD0iTTc0MC42NjY2NjY2NjY2NjY2LDQ5Ni41LCA4NTQuNjY2NjY2NjY2NjY2Niw0MzcuNSIgc3R5bGU9InN0cm9rZS13aWR0aDogMC43NTsgc3Ryb2tlLW9wYWNpdHk6IDAuOTQ7IHN0cm9rZTogcmdiKDgwLCA4MCwgODApOyIvPjxwYXRoIGNsYXNzPSJsaW5rIiBtYXJrZXItZW5kPSIiIGQ9Ik03NDAuNjY2NjY2NjY2NjY2Niw0OTYuNSwgODU0LjY2NjY2NjY2NjY2NjYsNDc3LjUiIHN0eWxlPSJzdHJva2Utd2lkdGg6IDAuNzU7IHN0cm9rZS1vcGFjaXR5OiAwLjk0OyBzdHJva2U6IHJnYig4MCwgODAsIDgwKTsiLz48cGF0aCBjbGFzcz0ibGluayIgbWFya2VyLWVuZD0iIiBkPSJNNzQwLjY2NjY2NjY2NjY2NjYsNDk2LjUsIDg1NC42NjY2NjY2NjY2NjY2LDUxNy41IiBzdHlsZT0ic3Ryb2tlLXdpZHRoOiAwLjc1OyBzdHJva2Utb3BhY2l0eTogMC45NDsgc3Ryb2tlOiByZ2IoODAsIDgwLCA4MCk7Ii8+PHBhdGggY2xhc3M9ImxpbmsiIG1hcmtlci1lbmQ9IiIgZD0iTTc0MC42NjY2NjY2NjY2NjY2LDQ5Ni41LCA4NTQuNjY2NjY2NjY2NjY2Niw1NTcuNSIgc3R5bGU9InN0cm9rZS13aWR0aDogMC43NTsgc3Ryb2tlLW9wYWNpdHk6IDAuOTQ7IHN0cm9rZTogcmdiKDgwLCA4MCwgODApOyIvPjxwYXRoIGNsYXNzPSJsaW5rIiBtYXJrZXItZW5kPSIiIGQ9Ik03NDAuNjY2NjY2NjY2NjY2Niw0OTYuNSwgODU0LjY2NjY2NjY2NjY2NjYsNTk3LjUiIHN0eWxlPSJzdHJva2Utd2lkdGg6IDAuNzU7IHN0cm9rZS1vcGFjaXR5OiAwLjk0OyBzdHJva2U6IHJnYig4MCwgODAsIDgwKTsiLz48cGF0aCBjbGFzcz0ibGluayIgbWFya2VyLWVuZD0iIiBkPSJNNzQwLjY2NjY2NjY2NjY2NjYsNTM0LjUsIDg1NC42NjY2NjY2NjY2NjY2LDMxNy41IiBzdHlsZT0ic3Ryb2tlLXdpZHRoOiAwLjc1OyBzdHJva2Utb3BhY2l0eTogMC45NDsgc3Ryb2tlOiByZ2IoODAsIDgwLCA4MCk7Ii8+PHBhdGggY2xhc3M9ImxpbmsiIG1hcmtlci1lbmQ9IiIgZD0iTTc0MC42NjY2NjY2NjY2NjY2LDUzNC41LCA4NTQuNjY2NjY2NjY2NjY2NiwzNTcuNSIgc3R5bGU9InN0cm9rZS13aWR0aDogMC43NTsgc3Ryb2tlLW9wYWNpdHk6IDAuOTQ7IHN0cm9rZTogcmdiKDgwLCA4MCwgODApOyIvPjxwYXRoIGNsYXNzPSJsaW5rIiBtYXJrZXItZW5kPSIiIGQ9Ik03NDAuNjY2NjY2NjY2NjY2Niw1MzQuNSwgODU0LjY2NjY2NjY2NjY2NjYsMzk3LjUiIHN0eWxlPSJzdHJva2Utd2lkdGg6IDAuNzU7IHN0cm9rZS1vcGFjaXR5OiAwLjk0OyBzdHJva2U6IHJnYig4MCwgODAsIDgwKTsiLz48cGF0aCBjbGFzcz0ibGluayIgbWFya2VyLWVuZD0iIiBkPSJNNzQwLjY2NjY2NjY2NjY2NjYsNTM0LjUsIDg1NC42NjY2NjY2NjY2NjY2LDQzNy41IiBzdHlsZT0ic3Ryb2tlLXdpZHRoOiAwLjc1OyBzdHJva2Utb3BhY2l0eTogMC45NDsgc3Ryb2tlOiByZ2IoODAsIDgwLCA4MCk7Ii8+PHBhdGggY2xhc3M9ImxpbmsiIG1hcmtlci1lbmQ9IiIgZD0iTTc0MC42NjY2NjY2NjY2NjY2LDUzNC41LCA4NTQuNjY2NjY2NjY2NjY2Niw0NzcuNSIgc3R5bGU9InN0cm9rZS13aWR0aDogMC43NTsgc3Ryb2tlLW9wYWNpdHk6IDAuOTQ7IHN0cm9rZTogcmdiKDgwLCA4MCwgODApOyIvPjxwYXRoIGNsYXNzPSJsaW5rIiBtYXJrZXItZW5kPSIiIGQ9Ik03NDAuNjY2NjY2NjY2NjY2Niw1MzQuNSwgODU0LjY2NjY2NjY2NjY2NjYsNTE3LjUiIHN0eWxlPSJzdHJva2Utd2lkdGg6IDAuNzU7IHN0cm9rZS1vcGFjaXR5OiAwLjk0OyBzdHJva2U6IHJnYig4MCwgODAsIDgwKTsiLz48cGF0aCBjbGFzcz0ibGluayIgbWFya2VyLWVuZD0iIiBkPSJNNzQwLjY2NjY2NjY2NjY2NjYsNTM0LjUsIDg1NC42NjY2NjY2NjY2NjY2LDU1Ny41IiBzdHlsZT0ic3Ryb2tlLXdpZHRoOiAwLjc1OyBzdHJva2Utb3BhY2l0eTogMC45NDsgc3Ryb2tlOiByZ2IoODAsIDgwLCA4MCk7Ii8+PHBhdGggY2xhc3M9ImxpbmsiIG1hcmtlci1lbmQ9IiIgZD0iTTc0MC42NjY2NjY2NjY2NjY2LDUzNC41LCA4NTQuNjY2NjY2NjY2NjY2Niw1OTcuNSIgc3R5bGU9InN0cm9rZS13aWR0aDogMC43NTsgc3Ryb2tlLW9wYWNpdHk6IDAuOTQ7IHN0cm9rZTogcmdiKDgwLCA4MCwgODApOyIvPjxwYXRoIGNsYXNzPSJsaW5rIiBtYXJrZXItZW5kPSIiIGQ9Ik04NTQuNjY2NjY2NjY2NjY2NiwzMTcuNSwgOTY4LjY2NjY2NjY2NjY2NjYsMzE3LjUiIHN0eWxlPSJzdHJva2Utd2lkdGg6IDAuNzU7IHN0cm9rZS1vcGFjaXR5OiAwLjk0OyBzdHJva2U6IHJnYig4MCwgODAsIDgwKTsiLz48cGF0aCBjbGFzcz0ibGluayIgbWFya2VyLWVuZD0iIiBkPSJNODU0LjY2NjY2NjY2NjY2NjYsMzE3LjUsIDk2OC42NjY2NjY2NjY2NjY2LDM1Ny41IiBzdHlsZT0ic3Ryb2tlLXdpZHRoOiAwLjc1OyBzdHJva2Utb3BhY2l0eTogMC45NDsgc3Ryb2tlOiByZ2IoODAsIDgwLCA4MCk7Ii8+PHBhdGggY2xhc3M9ImxpbmsiIG1hcmtlci1lbmQ9IiIgZD0iTTg1NC42NjY2NjY2NjY2NjY2LDMxNy41LCA5NjguNjY2NjY2NjY2NjY2NiwzOTcuNSIgc3R5bGU9InN0cm9rZS13aWR0aDogMC43NTsgc3Ryb2tlLW9wYWNpdHk6IDAuOTQ7IHN0cm9rZTogcmdiKDgwLCA4MCwgODApOyIvPjxwYXRoIGNsYXNzPSJsaW5rIiBtYXJrZXItZW5kPSIiIGQ9Ik04NTQuNjY2NjY2NjY2NjY2NiwzMTcuNSwgOTY4LjY2NjY2NjY2NjY2NjYsNDM3LjUiIHN0eWxlPSJzdHJva2Utd2lkdGg6IDAuNzU7IHN0cm9rZS1vcGFjaXR5OiAwLjk0OyBzdHJva2U6IHJnYig4MCwgODAsIDgwKTsiLz48cGF0aCBjbGFzcz0ibGluayIgbWFya2VyLWVuZD0iIiBkPSJNODU0LjY2NjY2NjY2NjY2NjYsMzE3LjUsIDk2OC42NjY2NjY2NjY2NjY2LDQ3Ny41IiBzdHlsZT0ic3Ryb2tlLXdpZHRoOiAwLjc1OyBzdHJva2Utb3BhY2l0eTogMC45NDsgc3Ryb2tlOiByZ2IoODAsIDgwLCA4MCk7Ii8+PHBhdGggY2xhc3M9ImxpbmsiIG1hcmtlci1lbmQ9IiIgZD0iTTg1NC42NjY2NjY2NjY2NjY2LDMxNy41LCA5NjguNjY2NjY2NjY2NjY2Niw1MTcuNSIgc3R5bGU9InN0cm9rZS13aWR0aDogMC43NTsgc3Ryb2tlLW9wYWNpdHk6IDAuOTQ7IHN0cm9rZTogcmdiKDgwLCA4MCwgODApOyIvPjxwYXRoIGNsYXNzPSJsaW5rIiBtYXJrZXItZW5kPSIiIGQ9Ik04NTQuNjY2NjY2NjY2NjY2NiwzMTcuNSwgOTY4LjY2NjY2NjY2NjY2NjYsNTU3LjUiIHN0eWxlPSJzdHJva2Utd2lkdGg6IDAuNzU7IHN0cm9rZS1vcGFjaXR5OiAwLjk0OyBzdHJva2U6IHJnYig4MCwgODAsIDgwKTsiLz48cGF0aCBjbGFzcz0ibGluayIgbWFya2VyLWVuZD0iIiBkPSJNODU0LjY2NjY2NjY2NjY2NjYsMzE3LjUsIDk2OC42NjY2NjY2NjY2NjY2LDU5Ny41IiBzdHlsZT0ic3Ryb2tlLXdpZHRoOiAwLjc1OyBzdHJva2Utb3BhY2l0eTogMC45NDsgc3Ryb2tlOiByZ2IoODAsIDgwLCA4MCk7Ii8+PHBhdGggY2xhc3M9ImxpbmsiIG1hcmtlci1lbmQ9IiIgZD0iTTg1NC42NjY2NjY2NjY2NjY2LDM1Ny41LCA5NjguNjY2NjY2NjY2NjY2NiwzMTcuNSIgc3R5bGU9InN0cm9rZS13aWR0aDogMC43NTsgc3Ryb2tlLW9wYWNpdHk6IDAuOTQ7IHN0cm9rZTogcmdiKDgwLCA4MCwgODApOyIvPjxwYXRoIGNsYXNzPSJsaW5rIiBtYXJrZXItZW5kPSIiIGQ9Ik04NTQuNjY2NjY2NjY2NjY2NiwzNTcuNSwgOTY4LjY2NjY2NjY2NjY2NjYsMzU3LjUiIHN0eWxlPSJzdHJva2Utd2lkdGg6IDAuNzU7IHN0cm9rZS1vcGFjaXR5OiAwLjk0OyBzdHJva2U6IHJnYig4MCwgODAsIDgwKTsiLz48cGF0aCBjbGFzcz0ibGluayIgbWFya2VyLWVuZD0iIiBkPSJNODU0LjY2NjY2NjY2NjY2NjYsMzU3LjUsIDk2OC42NjY2NjY2NjY2NjY2LDM5Ny41IiBzdHlsZT0ic3Ryb2tlLXdpZHRoOiAwLjc1OyBzdHJva2Utb3BhY2l0eTogMC45NDsgc3Ryb2tlOiByZ2IoODAsIDgwLCA4MCk7Ii8+PHBhdGggY2xhc3M9ImxpbmsiIG1hcmtlci1lbmQ9IiIgZD0iTTg1NC42NjY2NjY2NjY2NjY2LDM1Ny41LCA5NjguNjY2NjY2NjY2NjY2Niw0MzcuNSIgc3R5bGU9InN0cm9rZS13aWR0aDogMC43NTsgc3Ryb2tlLW9wYWNpdHk6IDAuOTQ7IHN0cm9rZTogcmdiKDgwLCA4MCwgODApOyIvPjxwYXRoIGNsYXNzPSJsaW5rIiBtYXJrZXItZW5kPSIiIGQ9Ik04NTQuNjY2NjY2NjY2NjY2NiwzNTcuNSwgOTY4LjY2NjY2NjY2NjY2NjYsNDc3LjUiIHN0eWxlPSJzdHJva2Utd2lkdGg6IDAuNzU7IHN0cm9rZS1vcGFjaXR5OiAwLjk0OyBzdHJva2U6IHJnYig4MCwgODAsIDgwKTsiLz48cGF0aCBjbGFzcz0ibGluayIgbWFya2VyLWVuZD0iIiBkPSJNODU0LjY2NjY2NjY2NjY2NjYsMzU3LjUsIDk2OC42NjY2NjY2NjY2NjY2LDUxNy41IiBzdHlsZT0ic3Ryb2tlLXdpZHRoOiAwLjc1OyBzdHJva2Utb3BhY2l0eTogMC45NDsgc3Ryb2tlOiByZ2IoODAsIDgwLCA4MCk7Ii8+PHBhdGggY2xhc3M9ImxpbmsiIG1hcmtlci1lbmQ9IiIgZD0iTTg1NC42NjY2NjY2NjY2NjY2LDM1Ny41LCA5NjguNjY2NjY2NjY2NjY2Niw1NTcuNSIgc3R5bGU9InN0cm9rZS13aWR0aDogMC43NTsgc3Ryb2tlLW9wYWNpdHk6IDAuOTQ7IHN0cm9rZTogcmdiKDgwLCA4MCwgODApOyIvPjxwYXRoIGNsYXNzPSJsaW5rIiBtYXJrZXItZW5kPSIiIGQ9Ik04NTQuNjY2NjY2NjY2NjY2NiwzNTcuNSwgOTY4LjY2NjY2NjY2NjY2NjYsNTk3LjUiIHN0eWxlPSJzdHJva2Utd2lkdGg6IDAuNzU7IHN0cm9rZS1vcGFjaXR5OiAwLjk0OyBzdHJva2U6IHJnYig4MCwgODAsIDgwKTsiLz48cGF0aCBjbGFzcz0ibGluayIgbWFya2VyLWVuZD0iIiBkPSJNODU0LjY2NjY2NjY2NjY2NjYsMzk3LjUsIDk2OC42NjY2NjY2NjY2NjY2LDMxNy41IiBzdHlsZT0ic3Ryb2tlLXdpZHRoOiAwLjc1OyBzdHJva2Utb3BhY2l0eTogMC45NDsgc3Ryb2tlOiByZ2IoODAsIDgwLCA4MCk7Ii8+PHBhdGggY2xhc3M9ImxpbmsiIG1hcmtlci1lbmQ9IiIgZD0iTTg1NC42NjY2NjY2NjY2NjY2LDM5Ny41LCA5NjguNjY2NjY2NjY2NjY2NiwzNTcuNSIgc3R5bGU9InN0cm9rZS13aWR0aDogMC43NTsgc3Ryb2tlLW9wYWNpdHk6IDAuOTQ7IHN0cm9rZTogcmdiKDgwLCA4MCwgODApOyIvPjxwYXRoIGNsYXNzPSJsaW5rIiBtYXJrZXItZW5kPSIiIGQ9Ik04NTQuNjY2NjY2NjY2NjY2NiwzOTcuNSwgOTY4LjY2NjY2NjY2NjY2NjYsMzk3LjUiIHN0eWxlPSJzdHJva2Utd2lkdGg6IDAuNzU7IHN0cm9rZS1vcGFjaXR5OiAwLjk0OyBzdHJva2U6IHJnYig4MCwgODAsIDgwKTsiLz48cGF0aCBjbGFzcz0ibGluayIgbWFya2VyLWVuZD0iIiBkPSJNODU0LjY2NjY2NjY2NjY2NjYsMzk3LjUsIDk2OC42NjY2NjY2NjY2NjY2LDQzNy41IiBzdHlsZT0ic3Ryb2tlLXdpZHRoOiAwLjc1OyBzdHJva2Utb3BhY2l0eTogMC45NDsgc3Ryb2tlOiByZ2IoODAsIDgwLCA4MCk7Ii8+PHBhdGggY2xhc3M9ImxpbmsiIG1hcmtlci1lbmQ9IiIgZD0iTTg1NC42NjY2NjY2NjY2NjY2LDM5Ny41LCA5NjguNjY2NjY2NjY2NjY2Niw0NzcuNSIgc3R5bGU9InN0cm9rZS13aWR0aDogMC43NTsgc3Ryb2tlLW9wYWNpdHk6IDAuOTQ7IHN0cm9rZTogcmdiKDgwLCA4MCwgODApOyIvPjxwYXRoIGNsYXNzPSJsaW5rIiBtYXJrZXItZW5kPSIiIGQ9Ik04NTQuNjY2NjY2NjY2NjY2NiwzOTcuNSwgOTY4LjY2NjY2NjY2NjY2NjYsNTE3LjUiIHN0eWxlPSJzdHJva2Utd2lkdGg6IDAuNzU7IHN0cm9rZS1vcGFjaXR5OiAwLjk0OyBzdHJva2U6IHJnYig4MCwgODAsIDgwKTsiLz48cGF0aCBjbGFzcz0ibGluayIgbWFya2VyLWVuZD0iIiBkPSJNODU0LjY2NjY2NjY2NjY2NjYsMzk3LjUsIDk2OC42NjY2NjY2NjY2NjY2LDU1Ny41IiBzdHlsZT0ic3Ryb2tlLXdpZHRoOiAwLjc1OyBzdHJva2Utb3BhY2l0eTogMC45NDsgc3Ryb2tlOiByZ2IoODAsIDgwLCA4MCk7Ii8+PHBhdGggY2xhc3M9ImxpbmsiIG1hcmtlci1lbmQ9IiIgZD0iTTg1NC42NjY2NjY2NjY2NjY2LDM5Ny41LCA5NjguNjY2NjY2NjY2NjY2Niw1OTcuNSIgc3R5bGU9InN0cm9rZS13aWR0aDogMC43NTsgc3Ryb2tlLW9wYWNpdHk6IDAuOTQ7IHN0cm9rZTogcmdiKDgwLCA4MCwgODApOyIvPjxwYXRoIGNsYXNzPSJsaW5rIiBtYXJrZXItZW5kPSIiIGQ9Ik04NTQuNjY2NjY2NjY2NjY2Niw0MzcuNSwgOTY4LjY2NjY2NjY2NjY2NjYsMzE3LjUiIHN0eWxlPSJzdHJva2Utd2lkdGg6IDAuNzU7IHN0cm9rZS1vcGFjaXR5OiAwLjk0OyBzdHJva2U6IHJnYig4MCwgODAsIDgwKTsiLz48cGF0aCBjbGFzcz0ibGluayIgbWFya2VyLWVuZD0iIiBkPSJNODU0LjY2NjY2NjY2NjY2NjYsNDM3LjUsIDk2OC42NjY2NjY2NjY2NjY2LDM1Ny41IiBzdHlsZT0ic3Ryb2tlLXdpZHRoOiAwLjc1OyBzdHJva2Utb3BhY2l0eTogMC45NDsgc3Ryb2tlOiByZ2IoODAsIDgwLCA4MCk7Ii8+PHBhdGggY2xhc3M9ImxpbmsiIG1hcmtlci1lbmQ9IiIgZD0iTTg1NC42NjY2NjY2NjY2NjY2LDQzNy41LCA5NjguNjY2NjY2NjY2NjY2NiwzOTcuNSIgc3R5bGU9InN0cm9rZS13aWR0aDogMC43NTsgc3Ryb2tlLW9wYWNpdHk6IDAuOTQ7IHN0cm9rZTogcmdiKDgwLCA4MCwgODApOyIvPjxwYXRoIGNsYXNzPSJsaW5rIiBtYXJrZXItZW5kPSIiIGQ9Ik04NTQuNjY2NjY2NjY2NjY2Niw0MzcuNSwgOTY4LjY2NjY2NjY2NjY2NjYsNDM3LjUiIHN0eWxlPSJzdHJva2Utd2lkdGg6IDAuNzU7IHN0cm9rZS1vcGFjaXR5OiAwLjk0OyBzdHJva2U6IHJnYig4MCwgODAsIDgwKTsiLz48cGF0aCBjbGFzcz0ibGluayIgbWFya2VyLWVuZD0iIiBkPSJNODU0LjY2NjY2NjY2NjY2NjYsNDM3LjUsIDk2OC42NjY2NjY2NjY2NjY2LDQ3Ny41IiBzdHlsZT0ic3Ryb2tlLXdpZHRoOiAwLjc1OyBzdHJva2Utb3BhY2l0eTogMC45NDsgc3Ryb2tlOiByZ2IoODAsIDgwLCA4MCk7Ii8+PHBhdGggY2xhc3M9ImxpbmsiIG1hcmtlci1lbmQ9IiIgZD0iTTg1NC42NjY2NjY2NjY2NjY2LDQzNy41LCA5NjguNjY2NjY2NjY2NjY2Niw1MTcuNSIgc3R5bGU9InN0cm9rZS13aWR0aDogMC43NTsgc3Ryb2tlLW9wYWNpdHk6IDAuOTQ7IHN0cm9rZTogcmdiKDgwLCA4MCwgODApOyIvPjxwYXRoIGNsYXNzPSJsaW5rIiBtYXJrZXItZW5kPSIiIGQ9Ik04NTQuNjY2NjY2NjY2NjY2Niw0MzcuNSwgOTY4LjY2NjY2NjY2NjY2NjYsNTU3LjUiIHN0eWxlPSJzdHJva2Utd2lkdGg6IDAuNzU7IHN0cm9rZS1vcGFjaXR5OiAwLjk0OyBzdHJva2U6IHJnYig4MCwgODAsIDgwKTsiLz48cGF0aCBjbGFzcz0ibGluayIgbWFya2VyLWVuZD0iIiBkPSJNODU0LjY2NjY2NjY2NjY2NjYsNDM3LjUsIDk2OC42NjY2NjY2NjY2NjY2LDU5Ny41IiBzdHlsZT0ic3Ryb2tlLXdpZHRoOiAwLjc1OyBzdHJva2Utb3BhY2l0eTogMC45NDsgc3Ryb2tlOiByZ2IoODAsIDgwLCA4MCk7Ii8+PHBhdGggY2xhc3M9ImxpbmsiIG1hcmtlci1lbmQ9IiIgZD0iTTg1NC42NjY2NjY2NjY2NjY2LDQ3Ny41LCA5NjguNjY2NjY2NjY2NjY2NiwzMTcuNSIgc3R5bGU9InN0cm9rZS13aWR0aDogMC43NTsgc3Ryb2tlLW9wYWNpdHk6IDAuOTQ7IHN0cm9rZTogcmdiKDgwLCA4MCwgODApOyIvPjxwYXRoIGNsYXNzPSJsaW5rIiBtYXJrZXItZW5kPSIiIGQ9Ik04NTQuNjY2NjY2NjY2NjY2Niw0NzcuNSwgOTY4LjY2NjY2NjY2NjY2NjYsMzU3LjUiIHN0eWxlPSJzdHJva2Utd2lkdGg6IDAuNzU7IHN0cm9rZS1vcGFjaXR5OiAwLjk0OyBzdHJva2U6IHJnYig4MCwgODAsIDgwKTsiLz48cGF0aCBjbGFzcz0ibGluayIgbWFya2VyLWVuZD0iIiBkPSJNODU0LjY2NjY2NjY2NjY2NjYsNDc3LjUsIDk2OC42NjY2NjY2NjY2NjY2LDM5Ny41IiBzdHlsZT0ic3Ryb2tlLXdpZHRoOiAwLjc1OyBzdHJva2Utb3BhY2l0eTogMC45NDsgc3Ryb2tlOiByZ2IoODAsIDgwLCA4MCk7Ii8+PHBhdGggY2xhc3M9ImxpbmsiIG1hcmtlci1lbmQ9IiIgZD0iTTg1NC42NjY2NjY2NjY2NjY2LDQ3Ny41LCA5NjguNjY2NjY2NjY2NjY2Niw0MzcuNSIgc3R5bGU9InN0cm9rZS13aWR0aDogMC43NTsgc3Ryb2tlLW9wYWNpdHk6IDAuOTQ7IHN0cm9rZTogcmdiKDgwLCA4MCwgODApOyIvPjxwYXRoIGNsYXNzPSJsaW5rIiBtYXJrZXItZW5kPSIiIGQ9Ik04NTQuNjY2NjY2NjY2NjY2Niw0NzcuNSwgOTY4LjY2NjY2NjY2NjY2NjYsNDc3LjUiIHN0eWxlPSJzdHJva2Utd2lkdGg6IDAuNzU7IHN0cm9rZS1vcGFjaXR5OiAwLjk0OyBzdHJva2U6IHJnYig4MCwgODAsIDgwKTsiLz48cGF0aCBjbGFzcz0ibGluayIgbWFya2VyLWVuZD0iIiBkPSJNODU0LjY2NjY2NjY2NjY2NjYsNDc3LjUsIDk2OC42NjY2NjY2NjY2NjY2LDUxNy41IiBzdHlsZT0ic3Ryb2tlLXdpZHRoOiAwLjc1OyBzdHJva2Utb3BhY2l0eTogMC45NDsgc3Ryb2tlOiByZ2IoODAsIDgwLCA4MCk7Ii8+PHBhdGggY2xhc3M9ImxpbmsiIG1hcmtlci1lbmQ9IiIgZD0iTTg1NC42NjY2NjY2NjY2NjY2LDQ3Ny41LCA5NjguNjY2NjY2NjY2NjY2Niw1NTcuNSIgc3R5bGU9InN0cm9rZS13aWR0aDogMC43NTsgc3Ryb2tlLW9wYWNpdHk6IDAuOTQ7IHN0cm9rZTogcmdiKDgwLCA4MCwgODApOyIvPjxwYXRoIGNsYXNzPSJsaW5rIiBtYXJrZXItZW5kPSIiIGQ9Ik04NTQuNjY2NjY2NjY2NjY2Niw0NzcuNSwgOTY4LjY2NjY2NjY2NjY2NjYsNTk3LjUiIHN0eWxlPSJzdHJva2Utd2lkdGg6IDAuNzU7IHN0cm9rZS1vcGFjaXR5OiAwLjk0OyBzdHJva2U6IHJnYig4MCwgODAsIDgwKTsiLz48cGF0aCBjbGFzcz0ibGluayIgbWFya2VyLWVuZD0iIiBkPSJNODU0LjY2NjY2NjY2NjY2NjYsNTE3LjUsIDk2OC42NjY2NjY2NjY2NjY2LDMxNy41IiBzdHlsZT0ic3Ryb2tlLXdpZHRoOiAwLjc1OyBzdHJva2Utb3BhY2l0eTogMC45NDsgc3Ryb2tlOiByZ2IoODAsIDgwLCA4MCk7Ii8+PHBhdGggY2xhc3M9ImxpbmsiIG1hcmtlci1lbmQ9IiIgZD0iTTg1NC42NjY2NjY2NjY2NjY2LDUxNy41LCA5NjguNjY2NjY2NjY2NjY2NiwzNTcuNSIgc3R5bGU9InN0cm9rZS13aWR0aDogMC43NTsgc3Ryb2tlLW9wYWNpdHk6IDAuOTQ7IHN0cm9rZTogcmdiKDgwLCA4MCwgODApOyIvPjxwYXRoIGNsYXNzPSJsaW5rIiBtYXJrZXItZW5kPSIiIGQ9Ik04NTQuNjY2NjY2NjY2NjY2Niw1MTcuNSwgOTY4LjY2NjY2NjY2NjY2NjYsMzk3LjUiIHN0eWxlPSJzdHJva2Utd2lkdGg6IDAuNzU7IHN0cm9rZS1vcGFjaXR5OiAwLjk0OyBzdHJva2U6IHJnYig4MCwgODAsIDgwKTsiLz48cGF0aCBjbGFzcz0ibGluayIgbWFya2VyLWVuZD0iIiBkPSJNODU0LjY2NjY2NjY2NjY2NjYsNTE3LjUsIDk2OC42NjY2NjY2NjY2NjY2LDQzNy41IiBzdHlsZT0ic3Ryb2tlLXdpZHRoOiAwLjc1OyBzdHJva2Utb3BhY2l0eTogMC45NDsgc3Ryb2tlOiByZ2IoODAsIDgwLCA4MCk7Ii8+PHBhdGggY2xhc3M9ImxpbmsiIG1hcmtlci1lbmQ9IiIgZD0iTTg1NC42NjY2NjY2NjY2NjY2LDUxNy41LCA5NjguNjY2NjY2NjY2NjY2Niw0NzcuNSIgc3R5bGU9InN0cm9rZS13aWR0aDogMC43NTsgc3Ryb2tlLW9wYWNpdHk6IDAuOTQ7IHN0cm9rZTogcmdiKDgwLCA4MCwgODApOyIvPjxwYXRoIGNsYXNzPSJsaW5rIiBtYXJrZXItZW5kPSIiIGQ9Ik04NTQuNjY2NjY2NjY2NjY2Niw1MTcuNSwgOTY4LjY2NjY2NjY2NjY2NjYsNTE3LjUiIHN0eWxlPSJzdHJva2Utd2lkdGg6IDAuNzU7IHN0cm9rZS1vcGFjaXR5OiAwLjk0OyBzdHJva2U6IHJnYig4MCwgODAsIDgwKTsiLz48cGF0aCBjbGFzcz0ibGluayIgbWFya2VyLWVuZD0iIiBkPSJNODU0LjY2NjY2NjY2NjY2NjYsNTE3LjUsIDk2OC42NjY2NjY2NjY2NjY2LDU1Ny41IiBzdHlsZT0ic3Ryb2tlLXdpZHRoOiAwLjc1OyBzdHJva2Utb3BhY2l0eTogMC45NDsgc3Ryb2tlOiByZ2IoODAsIDgwLCA4MCk7Ii8+PHBhdGggY2xhc3M9ImxpbmsiIG1hcmtlci1lbmQ9IiIgZD0iTTg1NC42NjY2NjY2NjY2NjY2LDUxNy41LCA5NjguNjY2NjY2NjY2NjY2Niw1OTcuNSIgc3R5bGU9InN0cm9rZS13aWR0aDogMC43NTsgc3Ryb2tlLW9wYWNpdHk6IDAuOTQ7IHN0cm9rZTogcmdiKDgwLCA4MCwgODApOyIvPjxwYXRoIGNsYXNzPSJsaW5rIiBtYXJrZXItZW5kPSIiIGQ9Ik04NTQuNjY2NjY2NjY2NjY2Niw1NTcuNSwgOTY4LjY2NjY2NjY2NjY2NjYsMzE3LjUiIHN0eWxlPSJzdHJva2Utd2lkdGg6IDAuNzU7IHN0cm9rZS1vcGFjaXR5OiAwLjk0OyBzdHJva2U6IHJnYig4MCwgODAsIDgwKTsiLz48cGF0aCBjbGFzcz0ibGluayIgbWFya2VyLWVuZD0iIiBkPSJNODU0LjY2NjY2NjY2NjY2NjYsNTU3LjUsIDk2OC42NjY2NjY2NjY2NjY2LDM1Ny41IiBzdHlsZT0ic3Ryb2tlLXdpZHRoOiAwLjc1OyBzdHJva2Utb3BhY2l0eTogMC45NDsgc3Ryb2tlOiByZ2IoODAsIDgwLCA4MCk7Ii8+PHBhdGggY2xhc3M9ImxpbmsiIG1hcmtlci1lbmQ9IiIgZD0iTTg1NC42NjY2NjY2NjY2NjY2LDU1Ny41LCA5NjguNjY2NjY2NjY2NjY2NiwzOTcuNSIgc3R5bGU9InN0cm9rZS13aWR0aDogMC43NTsgc3Ryb2tlLW9wYWNpdHk6IDAuOTQ7IHN0cm9rZTogcmdiKDgwLCA4MCwgODApOyIvPjxwYXRoIGNsYXNzPSJsaW5rIiBtYXJrZXItZW5kPSIiIGQ9Ik04NTQuNjY2NjY2NjY2NjY2Niw1NTcuNSwgOTY4LjY2NjY2NjY2NjY2NjYsNDM3LjUiIHN0eWxlPSJzdHJva2Utd2lkdGg6IDAuNzU7IHN0cm9rZS1vcGFjaXR5OiAwLjk0OyBzdHJva2U6IHJnYig4MCwgODAsIDgwKTsiLz48cGF0aCBjbGFzcz0ibGluayIgbWFya2VyLWVuZD0iIiBkPSJNODU0LjY2NjY2NjY2NjY2NjYsNTU3LjUsIDk2OC42NjY2NjY2NjY2NjY2LDQ3Ny41IiBzdHlsZT0ic3Ryb2tlLXdpZHRoOiAwLjc1OyBzdHJva2Utb3BhY2l0eTogMC45NDsgc3Ryb2tlOiByZ2IoODAsIDgwLCA4MCk7Ii8+PHBhdGggY2xhc3M9ImxpbmsiIG1hcmtlci1lbmQ9IiIgZD0iTTg1NC42NjY2NjY2NjY2NjY2LDU1Ny41LCA5NjguNjY2NjY2NjY2NjY2Niw1MTcuNSIgc3R5bGU9InN0cm9rZS13aWR0aDogMC43NTsgc3Ryb2tlLW9wYWNpdHk6IDAuOTQ7IHN0cm9rZTogcmdiKDgwLCA4MCwgODApOyIvPjxwYXRoIGNsYXNzPSJsaW5rIiBtYXJrZXItZW5kPSIiIGQ9Ik04NTQuNjY2NjY2NjY2NjY2Niw1NTcuNSwgOTY4LjY2NjY2NjY2NjY2NjYsNTU3LjUiIHN0eWxlPSJzdHJva2Utd2lkdGg6IDAuNzU7IHN0cm9rZS1vcGFjaXR5OiAwLjk0OyBzdHJva2U6IHJnYig4MCwgODAsIDgwKTsiLz48cGF0aCBjbGFzcz0ibGluayIgbWFya2VyLWVuZD0iIiBkPSJNODU0LjY2NjY2NjY2NjY2NjYsNTU3LjUsIDk2OC42NjY2NjY2NjY2NjY2LDU5Ny41IiBzdHlsZT0ic3Ryb2tlLXdpZHRoOiAwLjc1OyBzdHJva2Utb3BhY2l0eTogMC45NDsgc3Ryb2tlOiByZ2IoODAsIDgwLCA4MCk7Ii8+PHBhdGggY2xhc3M9ImxpbmsiIG1hcmtlci1lbmQ9IiIgZD0iTTg1NC42NjY2NjY2NjY2NjY2LDU5Ny41LCA5NjguNjY2NjY2NjY2NjY2NiwzMTcuNSIgc3R5bGU9InN0cm9rZS13aWR0aDogMC43NTsgc3Ryb2tlLW9wYWNpdHk6IDAuOTQ7IHN0cm9rZTogcmdiKDgwLCA4MCwgODApOyIvPjxwYXRoIGNsYXNzPSJsaW5rIiBtYXJrZXItZW5kPSIiIGQ9Ik04NTQuNjY2NjY2NjY2NjY2Niw1OTcuNSwgOTY4LjY2NjY2NjY2NjY2NjYsMzU3LjUiIHN0eWxlPSJzdHJva2Utd2lkdGg6IDAuNzU7IHN0cm9rZS1vcGFjaXR5OiAwLjk0OyBzdHJva2U6IHJnYig4MCwgODAsIDgwKTsiLz48cGF0aCBjbGFzcz0ibGluayIgbWFya2VyLWVuZD0iIiBkPSJNODU0LjY2NjY2NjY2NjY2NjYsNTk3LjUsIDk2OC42NjY2NjY2NjY2NjY2LDM5Ny41IiBzdHlsZT0ic3Ryb2tlLXdpZHRoOiAwLjc1OyBzdHJva2Utb3BhY2l0eTogMC45NDsgc3Ryb2tlOiByZ2IoODAsIDgwLCA4MCk7Ii8+PHBhdGggY2xhc3M9ImxpbmsiIG1hcmtlci1lbmQ9IiIgZD0iTTg1NC42NjY2NjY2NjY2NjY2LDU5Ny41LCA5NjguNjY2NjY2NjY2NjY2Niw0MzcuNSIgc3R5bGU9InN0cm9rZS13aWR0aDogMC43NTsgc3Ryb2tlLW9wYWNpdHk6IDAuOTQ7IHN0cm9rZTogcmdiKDgwLCA4MCwgODApOyIvPjxwYXRoIGNsYXNzPSJsaW5rIiBtYXJrZXItZW5kPSIiIGQ9Ik04NTQuNjY2NjY2NjY2NjY2Niw1OTcuNSwgOTY4LjY2NjY2NjY2NjY2NjYsNDc3LjUiIHN0eWxlPSJzdHJva2Utd2lkdGg6IDAuNzU7IHN0cm9rZS1vcGFjaXR5OiAwLjk0OyBzdHJva2U6IHJnYig4MCwgODAsIDgwKTsiLz48cGF0aCBjbGFzcz0ibGluayIgbWFya2VyLWVuZD0iIiBkPSJNODU0LjY2NjY2NjY2NjY2NjYsNTk3LjUsIDk2OC42NjY2NjY2NjY2NjY2LDUxNy41IiBzdHlsZT0ic3Ryb2tlLXdpZHRoOiAwLjc1OyBzdHJva2Utb3BhY2l0eTogMC45NDsgc3Ryb2tlOiByZ2IoODAsIDgwLCA4MCk7Ii8+PHBhdGggY2xhc3M9ImxpbmsiIG1hcmtlci1lbmQ9IiIgZD0iTTg1NC42NjY2NjY2NjY2NjY2LDU5Ny41LCA5NjguNjY2NjY2NjY2NjY2Niw1NTcuNSIgc3R5bGU9InN0cm9rZS13aWR0aDogMC43NTsgc3Ryb2tlLW9wYWNpdHk6IDAuOTQ7IHN0cm9rZTogcmdiKDgwLCA4MCwgODApOyIvPjxwYXRoIGNsYXNzPSJsaW5rIiBtYXJrZXItZW5kPSIiIGQ9Ik04NTQuNjY2NjY2NjY2NjY2Niw1OTcuNSwgOTY4LjY2NjY2NjY2NjY2NjYsNTk3LjUiIHN0eWxlPSJzdHJva2Utd2lkdGg6IDAuNzU7IHN0cm9rZS1vcGFjaXR5OiAwLjk0OyBzdHJva2U6IHJnYig4MCwgODAsIDgwKTsiLz48cGF0aCBjbGFzcz0ibGluayIgbWFya2VyLWVuZD0iIiBkPSJNOTY4LjY2NjY2NjY2NjY2NjYsMzE3LjUsIDEwODIuNjY2NjY2NjY2NjY2NywzMTcuNSIgc3R5bGU9InN0cm9rZS13aWR0aDogMC43NTsgc3Ryb2tlLW9wYWNpdHk6IDAuOTQ7IHN0cm9rZTogcmdiKDgwLCA4MCwgODApOyIvPjxwYXRoIGNsYXNzPSJsaW5rIiBtYXJrZXItZW5kPSIiIGQ9Ik05NjguNjY2NjY2NjY2NjY2NiwzNTcuNSwgMTA4Mi42NjY2NjY2NjY2NjY3LDMxNy41IiBzdHlsZT0ic3Ryb2tlLXdpZHRoOiAwLjc1OyBzdHJva2Utb3BhY2l0eTogMC45NDsgc3Ryb2tlOiByZ2IoODAsIDgwLCA4MCk7Ii8+PHBhdGggY2xhc3M9ImxpbmsiIG1hcmtlci1lbmQ9IiIgZD0iTTk2OC42NjY2NjY2NjY2NjY2LDM5Ny41LCAxMDgyLjY2NjY2NjY2NjY2NjcsMzE3LjUiIHN0eWxlPSJzdHJva2Utd2lkdGg6IDAuNzU7IHN0cm9rZS1vcGFjaXR5OiAwLjk0OyBzdHJva2U6IHJnYig4MCwgODAsIDgwKTsiLz48cGF0aCBjbGFzcz0ibGluayIgbWFya2VyLWVuZD0iIiBkPSJNOTY4LjY2NjY2NjY2NjY2NjYsNDM3LjUsIDEwODIuNjY2NjY2NjY2NjY2NywzMTcuNSIgc3R5bGU9InN0cm9rZS13aWR0aDogMC43NTsgc3Ryb2tlLW9wYWNpdHk6IDAuOTQ7IHN0cm9rZTogcmdiKDgwLCA4MCwgODApOyIvPjxwYXRoIGNsYXNzPSJsaW5rIiBtYXJrZXItZW5kPSIiIGQ9Ik05NjguNjY2NjY2NjY2NjY2Niw0NzcuNSwgMTA4Mi42NjY2NjY2NjY2NjY3LDMxNy41IiBzdHlsZT0ic3Ryb2tlLXdpZHRoOiAwLjc1OyBzdHJva2Utb3BhY2l0eTogMC45NDsgc3Ryb2tlOiByZ2IoODAsIDgwLCA4MCk7Ii8+PHBhdGggY2xhc3M9ImxpbmsiIG1hcmtlci1lbmQ9IiIgZD0iTTk2OC42NjY2NjY2NjY2NjY2LDUxNy41LCAxMDgyLjY2NjY2NjY2NjY2NjcsMzE3LjUiIHN0eWxlPSJzdHJva2Utd2lkdGg6IDAuNzU7IHN0cm9rZS1vcGFjaXR5OiAwLjk0OyBzdHJva2U6IHJnYig4MCwgODAsIDgwKTsiLz48cGF0aCBjbGFzcz0ibGluayIgbWFya2VyLWVuZD0iIiBkPSJNOTY4LjY2NjY2NjY2NjY2NjYsNTU3LjUsIDEwODIuNjY2NjY2NjY2NjY2NywzMTcuNSIgc3R5bGU9InN0cm9rZS13aWR0aDogMC43NTsgc3Ryb2tlLW9wYWNpdHk6IDAuOTQ7IHN0cm9rZTogcmdiKDgwLCA4MCwgODApOyIvPjxwYXRoIGNsYXNzPSJsaW5rIiBtYXJrZXItZW5kPSIiIGQ9Ik05NjguNjY2NjY2NjY2NjY2Niw1OTcuNSwgMTA4Mi42NjY2NjY2NjY2NjY3LDMxNy41IiBzdHlsZT0ic3Ryb2tlLXdpZHRoOiAwLjc1OyBzdHJva2Utb3BhY2l0eTogMC45NDsgc3Ryb2tlOiByZ2IoODAsIDgwLCA4MCk7Ii8+PHBhdGggY2xhc3M9ImxpbmsiIG1hcmtlci1lbmQ9IiIgZD0iTTk2OC42NjY2NjY2NjY2NjY2LDMxNy41LCAxMDgyLjY2NjY2NjY2NjY2NjcsMzU3LjUiIHN0eWxlPSJzdHJva2Utd2lkdGg6IDAuNzU7IHN0cm9rZS1vcGFjaXR5OiAwLjk0OyBzdHJva2U6IHJnYig4MCwgODAsIDgwKTsiLz48cGF0aCBjbGFzcz0ibGluayIgbWFya2VyLWVuZD0iIiBkPSJNOTY4LjY2NjY2NjY2NjY2NjYsMzE3LjUsIDEwODIuNjY2NjY2NjY2NjY2NywzOTcuNSIgc3R5bGU9InN0cm9rZS13aWR0aDogMC43NTsgc3Ryb2tlLW9wYWNpdHk6IDAuOTQ7IHN0cm9rZTogcmdiKDgwLCA4MCwgODApOyIvPjxwYXRoIGNsYXNzPSJsaW5rIiBtYXJrZXItZW5kPSIiIGQ9Ik05NjguNjY2NjY2NjY2NjY2NiwzMTcuNSwgMTA4Mi42NjY2NjY2NjY2NjY3LDQzNy41IiBzdHlsZT0ic3Ryb2tlLXdpZHRoOiAwLjc1OyBzdHJva2Utb3BhY2l0eTogMC45NDsgc3Ryb2tlOiByZ2IoODAsIDgwLCA4MCk7Ii8+PHBhdGggY2xhc3M9ImxpbmsiIG1hcmtlci1lbmQ9IiIgZD0iTTk2OC42NjY2NjY2NjY2NjY2LDMxNy41LCAxMDgyLjY2NjY2NjY2NjY2NjcsNDc3LjUiIHN0eWxlPSJzdHJva2Utd2lkdGg6IDAuNzU7IHN0cm9rZS1vcGFjaXR5OiAwLjk0OyBzdHJva2U6IHJnYig4MCwgODAsIDgwKTsiLz48cGF0aCBjbGFzcz0ibGluayIgbWFya2VyLWVuZD0iIiBkPSJNOTY4LjY2NjY2NjY2NjY2NjYsMzE3LjUsIDEwODIuNjY2NjY2NjY2NjY2Nyw1MTcuNSIgc3R5bGU9InN0cm9rZS13aWR0aDogMC43NTsgc3Ryb2tlLW9wYWNpdHk6IDAuOTQ7IHN0cm9rZTogcmdiKDgwLCA4MCwgODApOyIvPjxwYXRoIGNsYXNzPSJsaW5rIiBtYXJrZXItZW5kPSIiIGQ9Ik05NjguNjY2NjY2NjY2NjY2NiwzMTcuNSwgMTA4Mi42NjY2NjY2NjY2NjY3LDU1Ny41IiBzdHlsZT0ic3Ryb2tlLXdpZHRoOiAwLjc1OyBzdHJva2Utb3BhY2l0eTogMC45NDsgc3Ryb2tlOiByZ2IoODAsIDgwLCA4MCk7Ii8+PHBhdGggY2xhc3M9ImxpbmsiIG1hcmtlci1lbmQ9IiIgZD0iTTk2OC42NjY2NjY2NjY2NjY2LDMxNy41LCAxMDgyLjY2NjY2NjY2NjY2NjcsNTk3LjUiIHN0eWxlPSJzdHJva2Utd2lkdGg6IDAuNzU7IHN0cm9rZS1vcGFjaXR5OiAwLjk0OyBzdHJva2U6IHJnYig4MCwgODAsIDgwKTsiLz48cGF0aCBjbGFzcz0ibGluayIgbWFya2VyLWVuZD0iIiBkPSJNOTY4LjY2NjY2NjY2NjY2NjYsMzU3LjUsIDEwODIuNjY2NjY2NjY2NjY2NywzNTcuNSIgc3R5bGU9InN0cm9rZS13aWR0aDogMC43NTsgc3Ryb2tlLW9wYWNpdHk6IDAuOTQ7IHN0cm9rZTogcmdiKDgwLCA4MCwgODApOyIvPjxwYXRoIGNsYXNzPSJsaW5rIiBtYXJrZXItZW5kPSIiIGQ9Ik05NjguNjY2NjY2NjY2NjY2NiwzNTcuNSwgMTA4Mi42NjY2NjY2NjY2NjY3LDM5Ny41IiBzdHlsZT0ic3Ryb2tlLXdpZHRoOiAwLjc1OyBzdHJva2Utb3BhY2l0eTogMC45NDsgc3Ryb2tlOiByZ2IoODAsIDgwLCA4MCk7Ii8+PHBhdGggY2xhc3M9ImxpbmsiIG1hcmtlci1lbmQ9IiIgZD0iTTk2OC42NjY2NjY2NjY2NjY2LDM1Ny41LCAxMDgyLjY2NjY2NjY2NjY2NjcsNDM3LjUiIHN0eWxlPSJzdHJva2Utd2lkdGg6IDAuNzU7IHN0cm9rZS1vcGFjaXR5OiAwLjk0OyBzdHJva2U6IHJnYig4MCwgODAsIDgwKTsiLz48cGF0aCBjbGFzcz0ibGluayIgbWFya2VyLWVuZD0iIiBkPSJNOTY4LjY2NjY2NjY2NjY2NjYsMzU3LjUsIDEwODIuNjY2NjY2NjY2NjY2Nyw0NzcuNSIgc3R5bGU9InN0cm9rZS13aWR0aDogMC43NTsgc3Ryb2tlLW9wYWNpdHk6IDAuOTQ7IHN0cm9rZTogcmdiKDgwLCA4MCwgODApOyIvPjxwYXRoIGNsYXNzPSJsaW5rIiBtYXJrZXItZW5kPSIiIGQ9Ik05NjguNjY2NjY2NjY2NjY2NiwzNTcuNSwgMTA4Mi42NjY2NjY2NjY2NjY3LDUxNy41IiBzdHlsZT0ic3Ryb2tlLXdpZHRoOiAwLjc1OyBzdHJva2Utb3BhY2l0eTogMC45NDsgc3Ryb2tlOiByZ2IoODAsIDgwLCA4MCk7Ii8+PHBhdGggY2xhc3M9ImxpbmsiIG1hcmtlci1lbmQ9IiIgZD0iTTk2OC42NjY2NjY2NjY2NjY2LDM1Ny41LCAxMDgyLjY2NjY2NjY2NjY2NjcsNTU3LjUiIHN0eWxlPSJzdHJva2Utd2lkdGg6IDAuNzU7IHN0cm9rZS1vcGFjaXR5OiAwLjk0OyBzdHJva2U6IHJnYig4MCwgODAsIDgwKTsiLz48cGF0aCBjbGFzcz0ibGluayIgbWFya2VyLWVuZD0iIiBkPSJNOTY4LjY2NjY2NjY2NjY2NjYsMzU3LjUsIDEwODIuNjY2NjY2NjY2NjY2Nyw1OTcuNSIgc3R5bGU9InN0cm9rZS13aWR0aDogMC43NTsgc3Ryb2tlLW9wYWNpdHk6IDAuOTQ7IHN0cm9rZTogcmdiKDgwLCA4MCwgODApOyIvPjxwYXRoIGNsYXNzPSJsaW5rIiBtYXJrZXItZW5kPSIiIGQ9Ik05NjguNjY2NjY2NjY2NjY2NiwzOTcuNSwgMTA4Mi42NjY2NjY2NjY2NjY3LDM1Ny41IiBzdHlsZT0ic3Ryb2tlLXdpZHRoOiAwLjc1OyBzdHJva2Utb3BhY2l0eTogMC45NDsgc3Ryb2tlOiByZ2IoODAsIDgwLCA4MCk7Ii8+PHBhdGggY2xhc3M9ImxpbmsiIG1hcmtlci1lbmQ9IiIgZD0iTTk2OC42NjY2NjY2NjY2NjY2LDM5Ny41LCAxMDgyLjY2NjY2NjY2NjY2NjcsMzk3LjUiIHN0eWxlPSJzdHJva2Utd2lkdGg6IDAuNzU7IHN0cm9rZS1vcGFjaXR5OiAwLjk0OyBzdHJva2U6IHJnYig4MCwgODAsIDgwKTsiLz48cGF0aCBjbGFzcz0ibGluayIgbWFya2VyLWVuZD0iIiBkPSJNOTY4LjY2NjY2NjY2NjY2NjYsMzk3LjUsIDEwODIuNjY2NjY2NjY2NjY2Nyw0MzcuNSIgc3R5bGU9InN0cm9rZS13aWR0aDogMC43NTsgc3Ryb2tlLW9wYWNpdHk6IDAuOTQ7IHN0cm9rZTogcmdiKDgwLCA4MCwgODApOyIvPjxwYXRoIGNsYXNzPSJsaW5rIiBtYXJrZXItZW5kPSIiIGQ9Ik05NjguNjY2NjY2NjY2NjY2NiwzOTcuNSwgMTA4Mi42NjY2NjY2NjY2NjY3LDQ3Ny41IiBzdHlsZT0ic3Ryb2tlLXdpZHRoOiAwLjc1OyBzdHJva2Utb3BhY2l0eTogMC45NDsgc3Ryb2tlOiByZ2IoODAsIDgwLCA4MCk7Ii8+PHBhdGggY2xhc3M9ImxpbmsiIG1hcmtlci1lbmQ9IiIgZD0iTTk2OC42NjY2NjY2NjY2NjY2LDM5Ny41LCAxMDgyLjY2NjY2NjY2NjY2NjcsNTE3LjUiIHN0eWxlPSJzdHJva2Utd2lkdGg6IDAuNzU7IHN0cm9rZS1vcGFjaXR5OiAwLjk0OyBzdHJva2U6IHJnYig4MCwgODAsIDgwKTsiLz48cGF0aCBjbGFzcz0ibGluayIgbWFya2VyLWVuZD0iIiBkPSJNOTY4LjY2NjY2NjY2NjY2NjYsMzk3LjUsIDEwODIuNjY2NjY2NjY2NjY2Nyw1NTcuNSIgc3R5bGU9InN0cm9rZS13aWR0aDogMC43NTsgc3Ryb2tlLW9wYWNpdHk6IDAuOTQ7IHN0cm9rZTogcmdiKDgwLCA4MCwgODApOyIvPjxwYXRoIGNsYXNzPSJsaW5rIiBtYXJrZXItZW5kPSIiIGQ9Ik05NjguNjY2NjY2NjY2NjY2NiwzOTcuNSwgMTA4Mi42NjY2NjY2NjY2NjY3LDU5Ny41IiBzdHlsZT0ic3Ryb2tlLXdpZHRoOiAwLjc1OyBzdHJva2Utb3BhY2l0eTogMC45NDsgc3Ryb2tlOiByZ2IoODAsIDgwLCA4MCk7Ii8+PHBhdGggY2xhc3M9ImxpbmsiIG1hcmtlci1lbmQ9IiIgZD0iTTk2OC42NjY2NjY2NjY2NjY2LDQzNy41LCAxMDgyLjY2NjY2NjY2NjY2NjcsMzU3LjUiIHN0eWxlPSJzdHJva2Utd2lkdGg6IDAuNzU7IHN0cm9rZS1vcGFjaXR5OiAwLjk0OyBzdHJva2U6IHJnYig4MCwgODAsIDgwKTsiLz48cGF0aCBjbGFzcz0ibGluayIgbWFya2VyLWVuZD0iIiBkPSJNOTY4LjY2NjY2NjY2NjY2NjYsNDM3LjUsIDEwODIuNjY2NjY2NjY2NjY2NywzOTcuNSIgc3R5bGU9InN0cm9rZS13aWR0aDogMC43NTsgc3Ryb2tlLW9wYWNpdHk6IDAuOTQ7IHN0cm9rZTogcmdiKDgwLCA4MCwgODApOyIvPjxwYXRoIGNsYXNzPSJsaW5rIiBtYXJrZXItZW5kPSIiIGQ9Ik05NjguNjY2NjY2NjY2NjY2Niw0MzcuNSwgMTA4Mi42NjY2NjY2NjY2NjY3LDQzNy41IiBzdHlsZT0ic3Ryb2tlLXdpZHRoOiAwLjc1OyBzdHJva2Utb3BhY2l0eTogMC45NDsgc3Ryb2tlOiByZ2IoODAsIDgwLCA4MCk7Ii8+PHBhdGggY2xhc3M9ImxpbmsiIG1hcmtlci1lbmQ9IiIgZD0iTTk2OC42NjY2NjY2NjY2NjY2LDQzNy41LCAxMDgyLjY2NjY2NjY2NjY2NjcsNDc3LjUiIHN0eWxlPSJzdHJva2Utd2lkdGg6IDAuNzU7IHN0cm9rZS1vcGFjaXR5OiAwLjk0OyBzdHJva2U6IHJnYig4MCwgODAsIDgwKTsiLz48cGF0aCBjbGFzcz0ibGluayIgbWFya2VyLWVuZD0iIiBkPSJNOTY4LjY2NjY2NjY2NjY2NjYsNDM3LjUsIDEwODIuNjY2NjY2NjY2NjY2Nyw1MTcuNSIgc3R5bGU9InN0cm9rZS13aWR0aDogMC43NTsgc3Ryb2tlLW9wYWNpdHk6IDAuOTQ7IHN0cm9rZTogcmdiKDgwLCA4MCwgODApOyIvPjxwYXRoIGNsYXNzPSJsaW5rIiBtYXJrZXItZW5kPSIiIGQ9Ik05NjguNjY2NjY2NjY2NjY2Niw0MzcuNSwgMTA4Mi42NjY2NjY2NjY2NjY3LDU1Ny41IiBzdHlsZT0ic3Ryb2tlLXdpZHRoOiAwLjc1OyBzdHJva2Utb3BhY2l0eTogMC45NDsgc3Ryb2tlOiByZ2IoODAsIDgwLCA4MCk7Ii8+PHBhdGggY2xhc3M9ImxpbmsiIG1hcmtlci1lbmQ9IiIgZD0iTTk2OC42NjY2NjY2NjY2NjY2LDQzNy41LCAxMDgyLjY2NjY2NjY2NjY2NjcsNTk3LjUiIHN0eWxlPSJzdHJva2Utd2lkdGg6IDAuNzU7IHN0cm9rZS1vcGFjaXR5OiAwLjk0OyBzdHJva2U6IHJnYig4MCwgODAsIDgwKTsiLz48cGF0aCBjbGFzcz0ibGluayIgbWFya2VyLWVuZD0iIiBkPSJNOTY4LjY2NjY2NjY2NjY2NjYsNDc3LjUsIDEwODIuNjY2NjY2NjY2NjY2NywzNTcuNSIgc3R5bGU9InN0cm9rZS13aWR0aDogMC43NTsgc3Ryb2tlLW9wYWNpdHk6IDAuOTQ7IHN0cm9rZTogcmdiKDgwLCA4MCwgODApOyIvPjxwYXRoIGNsYXNzPSJsaW5rIiBtYXJrZXItZW5kPSIiIGQ9Ik05NjguNjY2NjY2NjY2NjY2Niw0NzcuNSwgMTA4Mi42NjY2NjY2NjY2NjY3LDM5Ny41IiBzdHlsZT0ic3Ryb2tlLXdpZHRoOiAwLjc1OyBzdHJva2Utb3BhY2l0eTogMC45NDsgc3Ryb2tlOiByZ2IoODAsIDgwLCA4MCk7Ii8+PHBhdGggY2xhc3M9ImxpbmsiIG1hcmtlci1lbmQ9IiIgZD0iTTk2OC42NjY2NjY2NjY2NjY2LDQ3Ny41LCAxMDgyLjY2NjY2NjY2NjY2NjcsNDM3LjUiIHN0eWxlPSJzdHJva2Utd2lkdGg6IDAuNzU7IHN0cm9rZS1vcGFjaXR5OiAwLjk0OyBzdHJva2U6IHJnYig4MCwgODAsIDgwKTsiLz48cGF0aCBjbGFzcz0ibGluayIgbWFya2VyLWVuZD0iIiBkPSJNOTY4LjY2NjY2NjY2NjY2NjYsNDc3LjUsIDEwODIuNjY2NjY2NjY2NjY2Nyw0NzcuNSIgc3R5bGU9InN0cm9rZS13aWR0aDogMC43NTsgc3Ryb2tlLW9wYWNpdHk6IDAuOTQ7IHN0cm9rZTogcmdiKDgwLCA4MCwgODApOyIvPjxwYXRoIGNsYXNzPSJsaW5rIiBtYXJrZXItZW5kPSIiIGQ9Ik05NjguNjY2NjY2NjY2NjY2Niw0NzcuNSwgMTA4Mi42NjY2NjY2NjY2NjY3LDUxNy41IiBzdHlsZT0ic3Ryb2tlLXdpZHRoOiAwLjc1OyBzdHJva2Utb3BhY2l0eTogMC45NDsgc3Ryb2tlOiByZ2IoODAsIDgwLCA4MCk7Ii8+PHBhdGggY2xhc3M9ImxpbmsiIG1hcmtlci1lbmQ9IiIgZD0iTTk2OC42NjY2NjY2NjY2NjY2LDQ3Ny41LCAxMDgyLjY2NjY2NjY2NjY2NjcsNTU3LjUiIHN0eWxlPSJzdHJva2Utd2lkdGg6IDAuNzU7IHN0cm9rZS1vcGFjaXR5OiAwLjk0OyBzdHJva2U6IHJnYig4MCwgODAsIDgwKTsiLz48cGF0aCBjbGFzcz0ibGluayIgbWFya2VyLWVuZD0iIiBkPSJNOTY4LjY2NjY2NjY2NjY2NjYsNDc3LjUsIDEwODIuNjY2NjY2NjY2NjY2Nyw1OTcuNSIgc3R5bGU9InN0cm9rZS13aWR0aDogMC43NTsgc3Ryb2tlLW9wYWNpdHk6IDAuOTQ7IHN0cm9rZTogcmdiKDgwLCA4MCwgODApOyIvPjxwYXRoIGNsYXNzPSJsaW5rIiBtYXJrZXItZW5kPSIiIGQ9Ik05NjguNjY2NjY2NjY2NjY2Niw1MTcuNSwgMTA4Mi42NjY2NjY2NjY2NjY3LDM1Ny41IiBzdHlsZT0ic3Ryb2tlLXdpZHRoOiAwLjc1OyBzdHJva2Utb3BhY2l0eTogMC45NDsgc3Ryb2tlOiByZ2IoODAsIDgwLCA4MCk7Ii8+PHBhdGggY2xhc3M9ImxpbmsiIG1hcmtlci1lbmQ9IiIgZD0iTTk2OC42NjY2NjY2NjY2NjY2LDUxNy41LCAxMDgyLjY2NjY2NjY2NjY2NjcsMzk3LjUiIHN0eWxlPSJzdHJva2Utd2lkdGg6IDAuNzU7IHN0cm9rZS1vcGFjaXR5OiAwLjk0OyBzdHJva2U6IHJnYig4MCwgODAsIDgwKTsiLz48cGF0aCBjbGFzcz0ibGluayIgbWFya2VyLWVuZD0iIiBkPSJNOTY4LjY2NjY2NjY2NjY2NjYsNTE3LjUsIDEwODIuNjY2NjY2NjY2NjY2Nyw0MzcuNSIgc3R5bGU9InN0cm9rZS13aWR0aDogMC43NTsgc3Ryb2tlLW9wYWNpdHk6IDAuOTQ7IHN0cm9rZTogcmdiKDgwLCA4MCwgODApOyIvPjxwYXRoIGNsYXNzPSJsaW5rIiBtYXJrZXItZW5kPSIiIGQ9Ik05NjguNjY2NjY2NjY2NjY2Niw1MTcuNSwgMTA4Mi42NjY2NjY2NjY2NjY3LDQ3Ny41IiBzdHlsZT0ic3Ryb2tlLXdpZHRoOiAwLjc1OyBzdHJva2Utb3BhY2l0eTogMC45NDsgc3Ryb2tlOiByZ2IoODAsIDgwLCA4MCk7Ii8+PHBhdGggY2xhc3M9ImxpbmsiIG1hcmtlci1lbmQ9IiIgZD0iTTk2OC42NjY2NjY2NjY2NjY2LDUxNy41LCAxMDgyLjY2NjY2NjY2NjY2NjcsNTE3LjUiIHN0eWxlPSJzdHJva2Utd2lkdGg6IDAuNzU7IHN0cm9rZS1vcGFjaXR5OiAwLjk0OyBzdHJva2U6IHJnYig4MCwgODAsIDgwKTsiLz48cGF0aCBjbGFzcz0ibGluayIgbWFya2VyLWVuZD0iIiBkPSJNOTY4LjY2NjY2NjY2NjY2NjYsNTE3LjUsIDEwODIuNjY2NjY2NjY2NjY2Nyw1NTcuNSIgc3R5bGU9InN0cm9rZS13aWR0aDogMC43NTsgc3Ryb2tlLW9wYWNpdHk6IDAuOTQ7IHN0cm9rZTogcmdiKDgwLCA4MCwgODApOyIvPjxwYXRoIGNsYXNzPSJsaW5rIiBtYXJrZXItZW5kPSIiIGQ9Ik05NjguNjY2NjY2NjY2NjY2Niw1MTcuNSwgMTA4Mi42NjY2NjY2NjY2NjY3LDU5Ny41IiBzdHlsZT0ic3Ryb2tlLXdpZHRoOiAwLjc1OyBzdHJva2Utb3BhY2l0eTogMC45NDsgc3Ryb2tlOiByZ2IoODAsIDgwLCA4MCk7Ii8+PHBhdGggY2xhc3M9ImxpbmsiIG1hcmtlci1lbmQ9IiIgZD0iTTk2OC42NjY2NjY2NjY2NjY2LDU1Ny41LCAxMDgyLjY2NjY2NjY2NjY2NjcsMzU3LjUiIHN0eWxlPSJzdHJva2Utd2lkdGg6IDAuNzU7IHN0cm9rZS1vcGFjaXR5OiAwLjk0OyBzdHJva2U6IHJnYig4MCwgODAsIDgwKTsiLz48cGF0aCBjbGFzcz0ibGluayIgbWFya2VyLWVuZD0iIiBkPSJNOTY4LjY2NjY2NjY2NjY2NjYsNTU3LjUsIDEwODIuNjY2NjY2NjY2NjY2NywzOTcuNSIgc3R5bGU9InN0cm9rZS13aWR0aDogMC43NTsgc3Ryb2tlLW9wYWNpdHk6IDAuOTQ7IHN0cm9rZTogcmdiKDgwLCA4MCwgODApOyIvPjxwYXRoIGNsYXNzPSJsaW5rIiBtYXJrZXItZW5kPSIiIGQ9Ik05NjguNjY2NjY2NjY2NjY2Niw1NTcuNSwgMTA4Mi42NjY2NjY2NjY2NjY3LDQzNy41IiBzdHlsZT0ic3Ryb2tlLXdpZHRoOiAwLjc1OyBzdHJva2Utb3BhY2l0eTogMC45NDsgc3Ryb2tlOiByZ2IoODAsIDgwLCA4MCk7Ii8+PHBhdGggY2xhc3M9ImxpbmsiIG1hcmtlci1lbmQ9IiIgZD0iTTk2OC42NjY2NjY2NjY2NjY2LDU1Ny41LCAxMDgyLjY2NjY2NjY2NjY2NjcsNDc3LjUiIHN0eWxlPSJzdHJva2Utd2lkdGg6IDAuNzU7IHN0cm9rZS1vcGFjaXR5OiAwLjk0OyBzdHJva2U6IHJnYig4MCwgODAsIDgwKTsiLz48cGF0aCBjbGFzcz0ibGluayIgbWFya2VyLWVuZD0iIiBkPSJNOTY4LjY2NjY2NjY2NjY2NjYsNTU3LjUsIDEwODIuNjY2NjY2NjY2NjY2Nyw1MTcuNSIgc3R5bGU9InN0cm9rZS13aWR0aDogMC43NTsgc3Ryb2tlLW9wYWNpdHk6IDAuOTQ7IHN0cm9rZTogcmdiKDgwLCA4MCwgODApOyIvPjxwYXRoIGNsYXNzPSJsaW5rIiBtYXJrZXItZW5kPSIiIGQ9Ik05NjguNjY2NjY2NjY2NjY2Niw1NTcuNSwgMTA4Mi42NjY2NjY2NjY2NjY3LDU1Ny41IiBzdHlsZT0ic3Ryb2tlLXdpZHRoOiAwLjc1OyBzdHJva2Utb3BhY2l0eTogMC45NDsgc3Ryb2tlOiByZ2IoODAsIDgwLCA4MCk7Ii8+PHBhdGggY2xhc3M9ImxpbmsiIG1hcmtlci1lbmQ9IiIgZD0iTTk2OC42NjY2NjY2NjY2NjY2LDU1Ny41LCAxMDgyLjY2NjY2NjY2NjY2NjcsNTk3LjUiIHN0eWxlPSJzdHJva2Utd2lkdGg6IDAuNzU7IHN0cm9rZS1vcGFjaXR5OiAwLjk0OyBzdHJva2U6IHJnYig4MCwgODAsIDgwKTsiLz48cGF0aCBjbGFzcz0ibGluayIgbWFya2VyLWVuZD0iIiBkPSJNOTY4LjY2NjY2NjY2NjY2NjYsNTk3LjUsIDEwODIuNjY2NjY2NjY2NjY2NywzNTcuNSIgc3R5bGU9InN0cm9rZS13aWR0aDogMC43NTsgc3Ryb2tlLW9wYWNpdHk6IDAuOTQ7IHN0cm9rZTogcmdiKDgwLCA4MCwgODApOyIvPjxwYXRoIGNsYXNzPSJsaW5rIiBtYXJrZXItZW5kPSIiIGQ9Ik05NjguNjY2NjY2NjY2NjY2Niw1OTcuNSwgMTA4Mi42NjY2NjY2NjY2NjY3LDM5Ny41IiBzdHlsZT0ic3Ryb2tlLXdpZHRoOiAwLjc1OyBzdHJva2Utb3BhY2l0eTogMC45NDsgc3Ryb2tlOiByZ2IoODAsIDgwLCA4MCk7Ii8+PHBhdGggY2xhc3M9ImxpbmsiIG1hcmtlci1lbmQ9IiIgZD0iTTk2OC42NjY2NjY2NjY2NjY2LDU5Ny41LCAxMDgyLjY2NjY2NjY2NjY2NjcsNDM3LjUiIHN0eWxlPSJzdHJva2Utd2lkdGg6IDAuNzU7IHN0cm9rZS1vcGFjaXR5OiAwLjk0OyBzdHJva2U6IHJnYig4MCwgODAsIDgwKTsiLz48cGF0aCBjbGFzcz0ibGluayIgbWFya2VyLWVuZD0iIiBkPSJNOTY4LjY2NjY2NjY2NjY2NjYsNTk3LjUsIDEwODIuNjY2NjY2NjY2NjY2Nyw0NzcuNSIgc3R5bGU9InN0cm9rZS13aWR0aDogMC43NTsgc3Ryb2tlLW9wYWNpdHk6IDAuOTQ7IHN0cm9rZTogcmdiKDgwLCA4MCwgODApOyIvPjxwYXRoIGNsYXNzPSJsaW5rIiBtYXJrZXItZW5kPSIiIGQ9Ik05NjguNjY2NjY2NjY2NjY2Niw1OTcuNSwgMTA4Mi42NjY2NjY2NjY2NjY3LDUxNy41IiBzdHlsZT0ic3Ryb2tlLXdpZHRoOiAwLjc1OyBzdHJva2Utb3BhY2l0eTogMC45NDsgc3Ryb2tlOiByZ2IoODAsIDgwLCA4MCk7Ii8+PHBhdGggY2xhc3M9ImxpbmsiIG1hcmtlci1lbmQ9IiIgZD0iTTk2OC42NjY2NjY2NjY2NjY2LDU5Ny41LCAxMDgyLjY2NjY2NjY2NjY2NjcsNTU3LjUiIHN0eWxlPSJzdHJva2Utd2lkdGg6IDAuNzU7IHN0cm9rZS1vcGFjaXR5OiAwLjk0OyBzdHJva2U6IHJnYig4MCwgODAsIDgwKTsiLz48cGF0aCBjbGFzcz0ibGluayIgbWFya2VyLWVuZD0iIiBkPSJNOTY4LjY2NjY2NjY2NjY2NjYsNTk3LjUsIDEwODIuNjY2NjY2NjY2NjY2Nyw1OTcuNSIgc3R5bGU9InN0cm9rZS13aWR0aDogMC43NTsgc3Ryb2tlLW9wYWNpdHk6IDAuOTQ7IHN0cm9rZTogcmdiKDgwLCA4MCwgODApOyIvPjxwYXRoIGNsYXNzPSJsaW5rIiBtYXJrZXItZW5kPSIiIGQ9Ik0xMDgyLjY2NjY2NjY2NjY2NjcsMzE3LjUsIDExOTYuNjY2NjY2NjY2NjY2NywzMTcuNSIgc3R5bGU9InN0cm9rZS13aWR0aDogMC43NTsgc3Ryb2tlLW9wYWNpdHk6IDAuOTQ7IHN0cm9rZTogcmdiKDgwLCA4MCwgODApOyIvPjxwYXRoIGNsYXNzPSJsaW5rIiBtYXJrZXItZW5kPSIiIGQ9Ik0xMDgyLjY2NjY2NjY2NjY2NjcsMzE3LjUsIDExOTYuNjY2NjY2NjY2NjY2NywzNTcuNSIgc3R5bGU9InN0cm9rZS13aWR0aDogMC43NTsgc3Ryb2tlLW9wYWNpdHk6IDAuOTQ7IHN0cm9rZTogcmdiKDgwLCA4MCwgODApOyIvPjxwYXRoIGNsYXNzPSJsaW5rIiBtYXJrZXItZW5kPSIiIGQ9Ik0xMDgyLjY2NjY2NjY2NjY2NjcsMzE3LjUsIDExOTYuNjY2NjY2NjY2NjY2NywzOTcuNSIgc3R5bGU9InN0cm9rZS13aWR0aDogMC43NTsgc3Ryb2tlLW9wYWNpdHk6IDAuOTQ7IHN0cm9rZTogcmdiKDgwLCA4MCwgODApOyIvPjxwYXRoIGNsYXNzPSJsaW5rIiBtYXJrZXItZW5kPSIiIGQ9Ik0xMDgyLjY2NjY2NjY2NjY2NjcsMzE3LjUsIDExOTYuNjY2NjY2NjY2NjY2Nyw0MzcuNSIgc3R5bGU9InN0cm9rZS13aWR0aDogMC43NTsgc3Ryb2tlLW9wYWNpdHk6IDAuOTQ7IHN0cm9rZTogcmdiKDgwLCA4MCwgODApOyIvPjxwYXRoIGNsYXNzPSJsaW5rIiBtYXJrZXItZW5kPSIiIGQ9Ik0xMDgyLjY2NjY2NjY2NjY2NjcsMzE3LjUsIDExOTYuNjY2NjY2NjY2NjY2Nyw0NzcuNSIgc3R5bGU9InN0cm9rZS13aWR0aDogMC43NTsgc3Ryb2tlLW9wYWNpdHk6IDAuOTQ7IHN0cm9rZTogcmdiKDgwLCA4MCwgODApOyIvPjxwYXRoIGNsYXNzPSJsaW5rIiBtYXJrZXItZW5kPSIiIGQ9Ik0xMDgyLjY2NjY2NjY2NjY2NjcsMzE3LjUsIDExOTYuNjY2NjY2NjY2NjY2Nyw1MTcuNSIgc3R5bGU9InN0cm9rZS13aWR0aDogMC43NTsgc3Ryb2tlLW9wYWNpdHk6IDAuOTQ7IHN0cm9rZTogcmdiKDgwLCA4MCwgODApOyIvPjxwYXRoIGNsYXNzPSJsaW5rIiBtYXJrZXItZW5kPSIiIGQ9Ik0xMDgyLjY2NjY2NjY2NjY2NjcsMzE3LjUsIDExOTYuNjY2NjY2NjY2NjY2Nyw1NTcuNSIgc3R5bGU9InN0cm9rZS13aWR0aDogMC43NTsgc3Ryb2tlLW9wYWNpdHk6IDAuOTQ7IHN0cm9rZTogcmdiKDgwLCA4MCwgODApOyIvPjxwYXRoIGNsYXNzPSJsaW5rIiBtYXJrZXItZW5kPSIiIGQ9Ik0xMDgyLjY2NjY2NjY2NjY2NjcsMzE3LjUsIDExOTYuNjY2NjY2NjY2NjY2Nyw1OTcuNSIgc3R5bGU9InN0cm9rZS13aWR0aDogMC43NTsgc3Ryb2tlLW9wYWNpdHk6IDAuOTQ7IHN0cm9rZTogcmdiKDgwLCA4MCwgODApOyIvPjxwYXRoIGNsYXNzPSJsaW5rIiBtYXJrZXItZW5kPSIiIGQ9Ik0xMDgyLjY2NjY2NjY2NjY2NjcsMzU3LjUsIDExOTYuNjY2NjY2NjY2NjY2NywzMTcuNSIgc3R5bGU9InN0cm9rZS13aWR0aDogMC43NTsgc3Ryb2tlLW9wYWNpdHk6IDAuOTQ7IHN0cm9rZTogcmdiKDgwLCA4MCwgODApOyIvPjxwYXRoIGNsYXNzPSJsaW5rIiBtYXJrZXItZW5kPSIiIGQ9Ik0xMDgyLjY2NjY2NjY2NjY2NjcsMzU3LjUsIDExOTYuNjY2NjY2NjY2NjY2NywzNTcuNSIgc3R5bGU9InN0cm9rZS13aWR0aDogMC43NTsgc3Ryb2tlLW9wYWNpdHk6IDAuOTQ7IHN0cm9rZTogcmdiKDgwLCA4MCwgODApOyIvPjxwYXRoIGNsYXNzPSJsaW5rIiBtYXJrZXItZW5kPSIiIGQ9Ik0xMDgyLjY2NjY2NjY2NjY2NjcsMzU3LjUsIDExOTYuNjY2NjY2NjY2NjY2NywzOTcuNSIgc3R5bGU9InN0cm9rZS13aWR0aDogMC43NTsgc3Ryb2tlLW9wYWNpdHk6IDAuOTQ7IHN0cm9rZTogcmdiKDgwLCA4MCwgODApOyIvPjxwYXRoIGNsYXNzPSJsaW5rIiBtYXJrZXItZW5kPSIiIGQ9Ik0xMDgyLjY2NjY2NjY2NjY2NjcsMzU3LjUsIDExOTYuNjY2NjY2NjY2NjY2Nyw0MzcuNSIgc3R5bGU9InN0cm9rZS13aWR0aDogMC43NTsgc3Ryb2tlLW9wYWNpdHk6IDAuOTQ7IHN0cm9rZTogcmdiKDgwLCA4MCwgODApOyIvPjxwYXRoIGNsYXNzPSJsaW5rIiBtYXJrZXItZW5kPSIiIGQ9Ik0xMDgyLjY2NjY2NjY2NjY2NjcsMzU3LjUsIDExOTYuNjY2NjY2NjY2NjY2Nyw0NzcuNSIgc3R5bGU9InN0cm9rZS13aWR0aDogMC43NTsgc3Ryb2tlLW9wYWNpdHk6IDAuOTQ7IHN0cm9rZTogcmdiKDgwLCA4MCwgODApOyIvPjxwYXRoIGNsYXNzPSJsaW5rIiBtYXJrZXItZW5kPSIiIGQ9Ik0xMDgyLjY2NjY2NjY2NjY2NjcsMzU3LjUsIDExOTYuNjY2NjY2NjY2NjY2Nyw1MTcuNSIgc3R5bGU9InN0cm9rZS13aWR0aDogMC43NTsgc3Ryb2tlLW9wYWNpdHk6IDAuOTQ7IHN0cm9rZTogcmdiKDgwLCA4MCwgODApOyIvPjxwYXRoIGNsYXNzPSJsaW5rIiBtYXJrZXItZW5kPSIiIGQ9Ik0xMDgyLjY2NjY2NjY2NjY2NjcsMzU3LjUsIDExOTYuNjY2NjY2NjY2NjY2Nyw1NTcuNSIgc3R5bGU9InN0cm9rZS13aWR0aDogMC43NTsgc3Ryb2tlLW9wYWNpdHk6IDAuOTQ7IHN0cm9rZTogcmdiKDgwLCA4MCwgODApOyIvPjxwYXRoIGNsYXNzPSJsaW5rIiBtYXJrZXItZW5kPSIiIGQ9Ik0xMDgyLjY2NjY2NjY2NjY2NjcsMzU3LjUsIDExOTYuNjY2NjY2NjY2NjY2Nyw1OTcuNSIgc3R5bGU9InN0cm9rZS13aWR0aDogMC43NTsgc3Ryb2tlLW9wYWNpdHk6IDAuOTQ7IHN0cm9rZTogcmdiKDgwLCA4MCwgODApOyIvPjxwYXRoIGNsYXNzPSJsaW5rIiBtYXJrZXItZW5kPSIiIGQ9Ik0xMDgyLjY2NjY2NjY2NjY2NjcsMzk3LjUsIDExOTYuNjY2NjY2NjY2NjY2NywzMTcuNSIgc3R5bGU9InN0cm9rZS13aWR0aDogMC43NTsgc3Ryb2tlLW9wYWNpdHk6IDAuOTQ7IHN0cm9rZTogcmdiKDgwLCA4MCwgODApOyIvPjxwYXRoIGNsYXNzPSJsaW5rIiBtYXJrZXItZW5kPSIiIGQ9Ik0xMDgyLjY2NjY2NjY2NjY2NjcsMzk3LjUsIDExOTYuNjY2NjY2NjY2NjY2NywzNTcuNSIgc3R5bGU9InN0cm9rZS13aWR0aDogMC43NTsgc3Ryb2tlLW9wYWNpdHk6IDAuOTQ7IHN0cm9rZTogcmdiKDgwLCA4MCwgODApOyIvPjxwYXRoIGNsYXNzPSJsaW5rIiBtYXJrZXItZW5kPSIiIGQ9Ik0xMDgyLjY2NjY2NjY2NjY2NjcsMzk3LjUsIDExOTYuNjY2NjY2NjY2NjY2NywzOTcuNSIgc3R5bGU9InN0cm9rZS13aWR0aDogMC43NTsgc3Ryb2tlLW9wYWNpdHk6IDAuOTQ7IHN0cm9rZTogcmdiKDgwLCA4MCwgODApOyIvPjxwYXRoIGNsYXNzPSJsaW5rIiBtYXJrZXItZW5kPSIiIGQ9Ik0xMDgyLjY2NjY2NjY2NjY2NjcsMzk3LjUsIDExOTYuNjY2NjY2NjY2NjY2Nyw0MzcuNSIgc3R5bGU9InN0cm9rZS13aWR0aDogMC43NTsgc3Ryb2tlLW9wYWNpdHk6IDAuOTQ7IHN0cm9rZTogcmdiKDgwLCA4MCwgODApOyIvPjxwYXRoIGNsYXNzPSJsaW5rIiBtYXJrZXItZW5kPSIiIGQ9Ik0xMDgyLjY2NjY2NjY2NjY2NjcsMzk3LjUsIDExOTYuNjY2NjY2NjY2NjY2Nyw0NzcuNSIgc3R5bGU9InN0cm9rZS13aWR0aDogMC43NTsgc3Ryb2tlLW9wYWNpdHk6IDAuOTQ7IHN0cm9rZTogcmdiKDgwLCA4MCwgODApOyIvPjxwYXRoIGNsYXNzPSJsaW5rIiBtYXJrZXItZW5kPSIiIGQ9Ik0xMDgyLjY2NjY2NjY2NjY2NjcsMzk3LjUsIDExOTYuNjY2NjY2NjY2NjY2Nyw1MTcuNSIgc3R5bGU9InN0cm9rZS13aWR0aDogMC43NTsgc3Ryb2tlLW9wYWNpdHk6IDAuOTQ7IHN0cm9rZTogcmdiKDgwLCA4MCwgODApOyIvPjxwYXRoIGNsYXNzPSJsaW5rIiBtYXJrZXItZW5kPSIiIGQ9Ik0xMDgyLjY2NjY2NjY2NjY2NjcsMzk3LjUsIDExOTYuNjY2NjY2NjY2NjY2Nyw1NTcuNSIgc3R5bGU9InN0cm9rZS13aWR0aDogMC43NTsgc3Ryb2tlLW9wYWNpdHk6IDAuOTQ7IHN0cm9rZTogcmdiKDgwLCA4MCwgODApOyIvPjxwYXRoIGNsYXNzPSJsaW5rIiBtYXJrZXItZW5kPSIiIGQ9Ik0xMDgyLjY2NjY2NjY2NjY2NjcsMzk3LjUsIDExOTYuNjY2NjY2NjY2NjY2Nyw1OTcuNSIgc3R5bGU9InN0cm9rZS13aWR0aDogMC43NTsgc3Ryb2tlLW9wYWNpdHk6IDAuOTQ7IHN0cm9rZTogcmdiKDgwLCA4MCwgODApOyIvPjxwYXRoIGNsYXNzPSJsaW5rIiBtYXJrZXItZW5kPSIiIGQ9Ik0xMDgyLjY2NjY2NjY2NjY2NjcsNDM3LjUsIDExOTYuNjY2NjY2NjY2NjY2NywzMTcuNSIgc3R5bGU9InN0cm9rZS13aWR0aDogMC43NTsgc3Ryb2tlLW9wYWNpdHk6IDAuOTQ7IHN0cm9rZTogcmdiKDgwLCA4MCwgODApOyIvPjxwYXRoIGNsYXNzPSJsaW5rIiBtYXJrZXItZW5kPSIiIGQ9Ik0xMDgyLjY2NjY2NjY2NjY2NjcsNDM3LjUsIDExOTYuNjY2NjY2NjY2NjY2NywzNTcuNSIgc3R5bGU9InN0cm9rZS13aWR0aDogMC43NTsgc3Ryb2tlLW9wYWNpdHk6IDAuOTQ7IHN0cm9rZTogcmdiKDgwLCA4MCwgODApOyIvPjxwYXRoIGNsYXNzPSJsaW5rIiBtYXJrZXItZW5kPSIiIGQ9Ik0xMDgyLjY2NjY2NjY2NjY2NjcsNDM3LjUsIDExOTYuNjY2NjY2NjY2NjY2NywzOTcuNSIgc3R5bGU9InN0cm9rZS13aWR0aDogMC43NTsgc3Ryb2tlLW9wYWNpdHk6IDAuOTQ7IHN0cm9rZTogcmdiKDgwLCA4MCwgODApOyIvPjxwYXRoIGNsYXNzPSJsaW5rIiBtYXJrZXItZW5kPSIiIGQ9Ik0xMDgyLjY2NjY2NjY2NjY2NjcsNDM3LjUsIDExOTYuNjY2NjY2NjY2NjY2Nyw0MzcuNSIgc3R5bGU9InN0cm9rZS13aWR0aDogMC43NTsgc3Ryb2tlLW9wYWNpdHk6IDAuOTQ7IHN0cm9rZTogcmdiKDgwLCA4MCwgODApOyIvPjxwYXRoIGNsYXNzPSJsaW5rIiBtYXJrZXItZW5kPSIiIGQ9Ik0xMDgyLjY2NjY2NjY2NjY2NjcsNDM3LjUsIDExOTYuNjY2NjY2NjY2NjY2Nyw0NzcuNSIgc3R5bGU9InN0cm9rZS13aWR0aDogMC43NTsgc3Ryb2tlLW9wYWNpdHk6IDAuOTQ7IHN0cm9rZTogcmdiKDgwLCA4MCwgODApOyIvPjxwYXRoIGNsYXNzPSJsaW5rIiBtYXJrZXItZW5kPSIiIGQ9Ik0xMDgyLjY2NjY2NjY2NjY2NjcsNDM3LjUsIDExOTYuNjY2NjY2NjY2NjY2Nyw1MTcuNSIgc3R5bGU9InN0cm9rZS13aWR0aDogMC43NTsgc3Ryb2tlLW9wYWNpdHk6IDAuOTQ7IHN0cm9rZTogcmdiKDgwLCA4MCwgODApOyIvPjxwYXRoIGNsYXNzPSJsaW5rIiBtYXJrZXItZW5kPSIiIGQ9Ik0xMDgyLjY2NjY2NjY2NjY2NjcsNDM3LjUsIDExOTYuNjY2NjY2NjY2NjY2Nyw1NTcuNSIgc3R5bGU9InN0cm9rZS13aWR0aDogMC43NTsgc3Ryb2tlLW9wYWNpdHk6IDAuOTQ7IHN0cm9rZTogcmdiKDgwLCA4MCwgODApOyIvPjxwYXRoIGNsYXNzPSJsaW5rIiBtYXJrZXItZW5kPSIiIGQ9Ik0xMDgyLjY2NjY2NjY2NjY2NjcsNDM3LjUsIDExOTYuNjY2NjY2NjY2NjY2Nyw1OTcuNSIgc3R5bGU9InN0cm9rZS13aWR0aDogMC43NTsgc3Ryb2tlLW9wYWNpdHk6IDAuOTQ7IHN0cm9rZTogcmdiKDgwLCA4MCwgODApOyIvPjxwYXRoIGNsYXNzPSJsaW5rIiBtYXJrZXItZW5kPSIiIGQ9Ik0xMDgyLjY2NjY2NjY2NjY2NjcsNDc3LjUsIDExOTYuNjY2NjY2NjY2NjY2NywzMTcuNSIgc3R5bGU9InN0cm9rZS13aWR0aDogMC43NTsgc3Ryb2tlLW9wYWNpdHk6IDAuOTQ7IHN0cm9rZTogcmdiKDgwLCA4MCwgODApOyIvPjxwYXRoIGNsYXNzPSJsaW5rIiBtYXJrZXItZW5kPSIiIGQ9Ik0xMDgyLjY2NjY2NjY2NjY2NjcsNDc3LjUsIDExOTYuNjY2NjY2NjY2NjY2NywzNTcuNSIgc3R5bGU9InN0cm9rZS13aWR0aDogMC43NTsgc3Ryb2tlLW9wYWNpdHk6IDAuOTQ7IHN0cm9rZTogcmdiKDgwLCA4MCwgODApOyIvPjxwYXRoIGNsYXNzPSJsaW5rIiBtYXJrZXItZW5kPSIiIGQ9Ik0xMDgyLjY2NjY2NjY2NjY2NjcsNDc3LjUsIDExOTYuNjY2NjY2NjY2NjY2NywzOTcuNSIgc3R5bGU9InN0cm9rZS13aWR0aDogMC43NTsgc3Ryb2tlLW9wYWNpdHk6IDAuOTQ7IHN0cm9rZTogcmdiKDgwLCA4MCwgODApOyIvPjxwYXRoIGNsYXNzPSJsaW5rIiBtYXJrZXItZW5kPSIiIGQ9Ik0xMDgyLjY2NjY2NjY2NjY2NjcsNDc3LjUsIDExOTYuNjY2NjY2NjY2NjY2Nyw0MzcuNSIgc3R5bGU9InN0cm9rZS13aWR0aDogMC43NTsgc3Ryb2tlLW9wYWNpdHk6IDAuOTQ7IHN0cm9rZTogcmdiKDgwLCA4MCwgODApOyIvPjxwYXRoIGNsYXNzPSJsaW5rIiBtYXJrZXItZW5kPSIiIGQ9Ik0xMDgyLjY2NjY2NjY2NjY2NjcsNDc3LjUsIDExOTYuNjY2NjY2NjY2NjY2Nyw0NzcuNSIgc3R5bGU9InN0cm9rZS13aWR0aDogMC43NTsgc3Ryb2tlLW9wYWNpdHk6IDAuOTQ7IHN0cm9rZTogcmdiKDgwLCA4MCwgODApOyIvPjxwYXRoIGNsYXNzPSJsaW5rIiBtYXJrZXItZW5kPSIiIGQ9Ik0xMDgyLjY2NjY2NjY2NjY2NjcsNDc3LjUsIDExOTYuNjY2NjY2NjY2NjY2Nyw1MTcuNSIgc3R5bGU9InN0cm9rZS13aWR0aDogMC43NTsgc3Ryb2tlLW9wYWNpdHk6IDAuOTQ7IHN0cm9rZTogcmdiKDgwLCA4MCwgODApOyIvPjxwYXRoIGNsYXNzPSJsaW5rIiBtYXJrZXItZW5kPSIiIGQ9Ik0xMDgyLjY2NjY2NjY2NjY2NjcsNDc3LjUsIDExOTYuNjY2NjY2NjY2NjY2Nyw1NTcuNSIgc3R5bGU9InN0cm9rZS13aWR0aDogMC43NTsgc3Ryb2tlLW9wYWNpdHk6IDAuOTQ7IHN0cm9rZTogcmdiKDgwLCA4MCwgODApOyIvPjxwYXRoIGNsYXNzPSJsaW5rIiBtYXJrZXItZW5kPSIiIGQ9Ik0xMDgyLjY2NjY2NjY2NjY2NjcsNDc3LjUsIDExOTYuNjY2NjY2NjY2NjY2Nyw1OTcuNSIgc3R5bGU9InN0cm9rZS13aWR0aDogMC43NTsgc3Ryb2tlLW9wYWNpdHk6IDAuOTQ7IHN0cm9rZTogcmdiKDgwLCA4MCwgODApOyIvPjxwYXRoIGNsYXNzPSJsaW5rIiBtYXJrZXItZW5kPSIiIGQ9Ik0xMDgyLjY2NjY2NjY2NjY2NjcsNTE3LjUsIDExOTYuNjY2NjY2NjY2NjY2NywzMTcuNSIgc3R5bGU9InN0cm9rZS13aWR0aDogMC43NTsgc3Ryb2tlLW9wYWNpdHk6IDAuOTQ7IHN0cm9rZTogcmdiKDgwLCA4MCwgODApOyIvPjxwYXRoIGNsYXNzPSJsaW5rIiBtYXJrZXItZW5kPSIiIGQ9Ik0xMDgyLjY2NjY2NjY2NjY2NjcsNTE3LjUsIDExOTYuNjY2NjY2NjY2NjY2NywzNTcuNSIgc3R5bGU9InN0cm9rZS13aWR0aDogMC43NTsgc3Ryb2tlLW9wYWNpdHk6IDAuOTQ7IHN0cm9rZTogcmdiKDgwLCA4MCwgODApOyIvPjxwYXRoIGNsYXNzPSJsaW5rIiBtYXJrZXItZW5kPSIiIGQ9Ik0xMDgyLjY2NjY2NjY2NjY2NjcsNTE3LjUsIDExOTYuNjY2NjY2NjY2NjY2NywzOTcuNSIgc3R5bGU9InN0cm9rZS13aWR0aDogMC43NTsgc3Ryb2tlLW9wYWNpdHk6IDAuOTQ7IHN0cm9rZTogcmdiKDgwLCA4MCwgODApOyIvPjxwYXRoIGNsYXNzPSJsaW5rIiBtYXJrZXItZW5kPSIiIGQ9Ik0xMDgyLjY2NjY2NjY2NjY2NjcsNTE3LjUsIDExOTYuNjY2NjY2NjY2NjY2Nyw0MzcuNSIgc3R5bGU9InN0cm9rZS13aWR0aDogMC43NTsgc3Ryb2tlLW9wYWNpdHk6IDAuOTQ7IHN0cm9rZTogcmdiKDgwLCA4MCwgODApOyIvPjxwYXRoIGNsYXNzPSJsaW5rIiBtYXJrZXItZW5kPSIiIGQ9Ik0xMDgyLjY2NjY2NjY2NjY2NjcsNTE3LjUsIDExOTYuNjY2NjY2NjY2NjY2Nyw0NzcuNSIgc3R5bGU9InN0cm9rZS13aWR0aDogMC43NTsgc3Ryb2tlLW9wYWNpdHk6IDAuOTQ7IHN0cm9rZTogcmdiKDgwLCA4MCwgODApOyIvPjxwYXRoIGNsYXNzPSJsaW5rIiBtYXJrZXItZW5kPSIiIGQ9Ik0xMDgyLjY2NjY2NjY2NjY2NjcsNTE3LjUsIDExOTYuNjY2NjY2NjY2NjY2Nyw1MTcuNSIgc3R5bGU9InN0cm9rZS13aWR0aDogMC43NTsgc3Ryb2tlLW9wYWNpdHk6IDAuOTQ7IHN0cm9rZTogcmdiKDgwLCA4MCwgODApOyIvPjxwYXRoIGNsYXNzPSJsaW5rIiBtYXJrZXItZW5kPSIiIGQ9Ik0xMDgyLjY2NjY2NjY2NjY2NjcsNTE3LjUsIDExOTYuNjY2NjY2NjY2NjY2Nyw1NTcuNSIgc3R5bGU9InN0cm9rZS13aWR0aDogMC43NTsgc3Ryb2tlLW9wYWNpdHk6IDAuOTQ7IHN0cm9rZTogcmdiKDgwLCA4MCwgODApOyIvPjxwYXRoIGNsYXNzPSJsaW5rIiBtYXJrZXItZW5kPSIiIGQ9Ik0xMDgyLjY2NjY2NjY2NjY2NjcsNTE3LjUsIDExOTYuNjY2NjY2NjY2NjY2Nyw1OTcuNSIgc3R5bGU9InN0cm9rZS13aWR0aDogMC43NTsgc3Ryb2tlLW9wYWNpdHk6IDAuOTQ7IHN0cm9rZTogcmdiKDgwLCA4MCwgODApOyIvPjxwYXRoIGNsYXNzPSJsaW5rIiBtYXJrZXItZW5kPSIiIGQ9Ik0xMDgyLjY2NjY2NjY2NjY2NjcsNTU3LjUsIDExOTYuNjY2NjY2NjY2NjY2NywzMTcuNSIgc3R5bGU9InN0cm9rZS13aWR0aDogMC43NTsgc3Ryb2tlLW9wYWNpdHk6IDAuOTQ7IHN0cm9rZTogcmdiKDgwLCA4MCwgODApOyIvPjxwYXRoIGNsYXNzPSJsaW5rIiBtYXJrZXItZW5kPSIiIGQ9Ik0xMDgyLjY2NjY2NjY2NjY2NjcsNTU3LjUsIDExOTYuNjY2NjY2NjY2NjY2NywzNTcuNSIgc3R5bGU9InN0cm9rZS13aWR0aDogMC43NTsgc3Ryb2tlLW9wYWNpdHk6IDAuOTQ7IHN0cm9rZTogcmdiKDgwLCA4MCwgODApOyIvPjxwYXRoIGNsYXNzPSJsaW5rIiBtYXJrZXItZW5kPSIiIGQ9Ik0xMDgyLjY2NjY2NjY2NjY2NjcsNTU3LjUsIDExOTYuNjY2NjY2NjY2NjY2NywzOTcuNSIgc3R5bGU9InN0cm9rZS13aWR0aDogMC43NTsgc3Ryb2tlLW9wYWNpdHk6IDAuOTQ7IHN0cm9rZTogcmdiKDgwLCA4MCwgODApOyIvPjxwYXRoIGNsYXNzPSJsaW5rIiBtYXJrZXItZW5kPSIiIGQ9Ik0xMDgyLjY2NjY2NjY2NjY2NjcsNTU3LjUsIDExOTYuNjY2NjY2NjY2NjY2Nyw0MzcuNSIgc3R5bGU9InN0cm9rZS13aWR0aDogMC43NTsgc3Ryb2tlLW9wYWNpdHk6IDAuOTQ7IHN0cm9rZTogcmdiKDgwLCA4MCwgODApOyIvPjxwYXRoIGNsYXNzPSJsaW5rIiBtYXJrZXItZW5kPSIiIGQ9Ik0xMDgyLjY2NjY2NjY2NjY2NjcsNTU3LjUsIDExOTYuNjY2NjY2NjY2NjY2Nyw0NzcuNSIgc3R5bGU9InN0cm9rZS13aWR0aDogMC43NTsgc3Ryb2tlLW9wYWNpdHk6IDAuOTQ7IHN0cm9rZTogcmdiKDgwLCA4MCwgODApOyIvPjxwYXRoIGNsYXNzPSJsaW5rIiBtYXJrZXItZW5kPSIiIGQ9Ik0xMDgyLjY2NjY2NjY2NjY2NjcsNTU3LjUsIDExOTYuNjY2NjY2NjY2NjY2Nyw1MTcuNSIgc3R5bGU9InN0cm9rZS13aWR0aDogMC43NTsgc3Ryb2tlLW9wYWNpdHk6IDAuOTQ7IHN0cm9rZTogcmdiKDgwLCA4MCwgODApOyIvPjxwYXRoIGNsYXNzPSJsaW5rIiBtYXJrZXItZW5kPSIiIGQ9Ik0xMDgyLjY2NjY2NjY2NjY2NjcsNTU3LjUsIDExOTYuNjY2NjY2NjY2NjY2Nyw1NTcuNSIgc3R5bGU9InN0cm9rZS13aWR0aDogMC43NTsgc3Ryb2tlLW9wYWNpdHk6IDAuOTQ7IHN0cm9rZTogcmdiKDgwLCA4MCwgODApOyIvPjxwYXRoIGNsYXNzPSJsaW5rIiBtYXJrZXItZW5kPSIiIGQ9Ik0xMDgyLjY2NjY2NjY2NjY2NjcsNTU3LjUsIDExOTYuNjY2NjY2NjY2NjY2Nyw1OTcuNSIgc3R5bGU9InN0cm9rZS13aWR0aDogMC43NTsgc3Ryb2tlLW9wYWNpdHk6IDAuOTQ7IHN0cm9rZTogcmdiKDgwLCA4MCwgODApOyIvPjxwYXRoIGNsYXNzPSJsaW5rIiBtYXJrZXItZW5kPSIiIGQ9Ik0xMDgyLjY2NjY2NjY2NjY2NjcsNTk3LjUsIDExOTYuNjY2NjY2NjY2NjY2NywzMTcuNSIgc3R5bGU9InN0cm9rZS13aWR0aDogMC43NTsgc3Ryb2tlLW9wYWNpdHk6IDAuOTQ7IHN0cm9rZTogcmdiKDgwLCA4MCwgODApOyIvPjxwYXRoIGNsYXNzPSJsaW5rIiBtYXJrZXItZW5kPSIiIGQ9Ik0xMDgyLjY2NjY2NjY2NjY2NjcsNTk3LjUsIDExOTYuNjY2NjY2NjY2NjY2NywzNTcuNSIgc3R5bGU9InN0cm9rZS13aWR0aDogMC43NTsgc3Ryb2tlLW9wYWNpdHk6IDAuOTQ7IHN0cm9rZTogcmdiKDgwLCA4MCwgODApOyIvPjxwYXRoIGNsYXNzPSJsaW5rIiBtYXJrZXItZW5kPSIiIGQ9Ik0xMDgyLjY2NjY2NjY2NjY2NjcsNTk3LjUsIDExOTYuNjY2NjY2NjY2NjY2NywzOTcuNSIgc3R5bGU9InN0cm9rZS13aWR0aDogMC43NTsgc3Ryb2tlLW9wYWNpdHk6IDAuOTQ7IHN0cm9rZTogcmdiKDgwLCA4MCwgODApOyIvPjxwYXRoIGNsYXNzPSJsaW5rIiBtYXJrZXItZW5kPSIiIGQ9Ik0xMDgyLjY2NjY2NjY2NjY2NjcsNTk3LjUsIDExOTYuNjY2NjY2NjY2NjY2Nyw0MzcuNSIgc3R5bGU9InN0cm9rZS13aWR0aDogMC43NTsgc3Ryb2tlLW9wYWNpdHk6IDAuOTQ7IHN0cm9rZTogcmdiKDgwLCA4MCwgODApOyIvPjxwYXRoIGNsYXNzPSJsaW5rIiBtYXJrZXItZW5kPSIiIGQ9Ik0xMDgyLjY2NjY2NjY2NjY2NjcsNTk3LjUsIDExOTYuNjY2NjY2NjY2NjY2Nyw0NzcuNSIgc3R5bGU9InN0cm9rZS13aWR0aDogMC43NTsgc3Ryb2tlLW9wYWNpdHk6IDAuOTQ7IHN0cm9rZTogcmdiKDgwLCA4MCwgODApOyIvPjxwYXRoIGNsYXNzPSJsaW5rIiBtYXJrZXItZW5kPSIiIGQ9Ik0xMDgyLjY2NjY2NjY2NjY2NjcsNTk3LjUsIDExOTYuNjY2NjY2NjY2NjY2Nyw1MTcuNSIgc3R5bGU9InN0cm9rZS13aWR0aDogMC43NTsgc3Ryb2tlLW9wYWNpdHk6IDAuOTQ7IHN0cm9rZTogcmdiKDgwLCA4MCwgODApOyIvPjxwYXRoIGNsYXNzPSJsaW5rIiBtYXJrZXItZW5kPSIiIGQ9Ik0xMDgyLjY2NjY2NjY2NjY2NjcsNTk3LjUsIDExOTYuNjY2NjY2NjY2NjY2Nyw1NTcuNSIgc3R5bGU9InN0cm9rZS13aWR0aDogMC43NTsgc3Ryb2tlLW9wYWNpdHk6IDAuOTQ7IHN0cm9rZTogcmdiKDgwLCA4MCwgODApOyIvPjxwYXRoIGNsYXNzPSJsaW5rIiBtYXJrZXItZW5kPSIiIGQ9Ik0xMDgyLjY2NjY2NjY2NjY2NjcsNTk3LjUsIDExOTYuNjY2NjY2NjY2NjY2Nyw1OTcuNSIgc3R5bGU9InN0cm9rZS13aWR0aDogMC43NTsgc3Ryb2tlLW9wYWNpdHk6IDAuOTQ7IHN0cm9rZTogcmdiKDgwLCA4MCwgODApOyIvPjxwYXRoIGNsYXNzPSJsaW5rIiBtYXJrZXItZW5kPSIiIGQ9Ik0xMTk2LjY2NjY2NjY2NjY2NjcsMzE3LjUsIDEzMTAuNjY2NjY2NjY2NjY2NywzMTcuNSIgc3R5bGU9InN0cm9rZS13aWR0aDogMC43NTsgc3Ryb2tlLW9wYWNpdHk6IDAuOTQ7IHN0cm9rZTogcmdiKDgwLCA4MCwgODApOyIvPjxwYXRoIGNsYXNzPSJsaW5rIiBtYXJrZXItZW5kPSIiIGQ9Ik0xMTk2LjY2NjY2NjY2NjY2NjcsMzE3LjUsIDEzMTAuNjY2NjY2NjY2NjY2NywzNTcuNSIgc3R5bGU9InN0cm9rZS13aWR0aDogMC43NTsgc3Ryb2tlLW9wYWNpdHk6IDAuOTQ7IHN0cm9rZTogcmdiKDgwLCA4MCwgODApOyIvPjxwYXRoIGNsYXNzPSJsaW5rIiBtYXJrZXItZW5kPSIiIGQ9Ik0xMTk2LjY2NjY2NjY2NjY2NjcsMzE3LjUsIDEzMTAuNjY2NjY2NjY2NjY2NywzOTcuNSIgc3R5bGU9InN0cm9rZS13aWR0aDogMC43NTsgc3Ryb2tlLW9wYWNpdHk6IDAuOTQ7IHN0cm9rZTogcmdiKDgwLCA4MCwgODApOyIvPjxwYXRoIGNsYXNzPSJsaW5rIiBtYXJrZXItZW5kPSIiIGQ9Ik0xMTk2LjY2NjY2NjY2NjY2NjcsMzE3LjUsIDEzMTAuNjY2NjY2NjY2NjY2Nyw0MzcuNSIgc3R5bGU9InN0cm9rZS13aWR0aDogMC43NTsgc3Ryb2tlLW9wYWNpdHk6IDAuOTQ7IHN0cm9rZTogcmdiKDgwLCA4MCwgODApOyIvPjxwYXRoIGNsYXNzPSJsaW5rIiBtYXJrZXItZW5kPSIiIGQ9Ik0xMTk2LjY2NjY2NjY2NjY2NjcsMzE3LjUsIDEzMTAuNjY2NjY2NjY2NjY2Nyw0NzcuNSIgc3R5bGU9InN0cm9rZS13aWR0aDogMC43NTsgc3Ryb2tlLW9wYWNpdHk6IDAuOTQ7IHN0cm9rZTogcmdiKDgwLCA4MCwgODApOyIvPjxwYXRoIGNsYXNzPSJsaW5rIiBtYXJrZXItZW5kPSIiIGQ9Ik0xMTk2LjY2NjY2NjY2NjY2NjcsMzE3LjUsIDEzMTAuNjY2NjY2NjY2NjY2Nyw1MTcuNSIgc3R5bGU9InN0cm9rZS13aWR0aDogMC43NTsgc3Ryb2tlLW9wYWNpdHk6IDAuOTQ7IHN0cm9rZTogcmdiKDgwLCA4MCwgODApOyIvPjxwYXRoIGNsYXNzPSJsaW5rIiBtYXJrZXItZW5kPSIiIGQ9Ik0xMTk2LjY2NjY2NjY2NjY2NjcsMzE3LjUsIDEzMTAuNjY2NjY2NjY2NjY2Nyw1NTcuNSIgc3R5bGU9InN0cm9rZS13aWR0aDogMC43NTsgc3Ryb2tlLW9wYWNpdHk6IDAuOTQ7IHN0cm9rZTogcmdiKDgwLCA4MCwgODApOyIvPjxwYXRoIGNsYXNzPSJsaW5rIiBtYXJrZXItZW5kPSIiIGQ9Ik0xMTk2LjY2NjY2NjY2NjY2NjcsMzE3LjUsIDEzMTAuNjY2NjY2NjY2NjY2Nyw1OTcuNSIgc3R5bGU9InN0cm9rZS13aWR0aDogMC43NTsgc3Ryb2tlLW9wYWNpdHk6IDAuOTQ7IHN0cm9rZTogcmdiKDgwLCA4MCwgODApOyIvPjxwYXRoIGNsYXNzPSJsaW5rIiBtYXJrZXItZW5kPSIiIGQ9Ik0xMTk2LjY2NjY2NjY2NjY2NjcsMzU3LjUsIDEzMTAuNjY2NjY2NjY2NjY2NywzMTcuNSIgc3R5bGU9InN0cm9rZS13aWR0aDogMC43NTsgc3Ryb2tlLW9wYWNpdHk6IDAuOTQ7IHN0cm9rZTogcmdiKDgwLCA4MCwgODApOyIvPjxwYXRoIGNsYXNzPSJsaW5rIiBtYXJrZXItZW5kPSIiIGQ9Ik0xMTk2LjY2NjY2NjY2NjY2NjcsMzU3LjUsIDEzMTAuNjY2NjY2NjY2NjY2NywzNTcuNSIgc3R5bGU9InN0cm9rZS13aWR0aDogMC43NTsgc3Ryb2tlLW9wYWNpdHk6IDAuOTQ7IHN0cm9rZTogcmdiKDgwLCA4MCwgODApOyIvPjxwYXRoIGNsYXNzPSJsaW5rIiBtYXJrZXItZW5kPSIiIGQ9Ik0xMTk2LjY2NjY2NjY2NjY2NjcsMzU3LjUsIDEzMTAuNjY2NjY2NjY2NjY2NywzOTcuNSIgc3R5bGU9InN0cm9rZS13aWR0aDogMC43NTsgc3Ryb2tlLW9wYWNpdHk6IDAuOTQ7IHN0cm9rZTogcmdiKDgwLCA4MCwgODApOyIvPjxwYXRoIGNsYXNzPSJsaW5rIiBtYXJrZXItZW5kPSIiIGQ9Ik0xMTk2LjY2NjY2NjY2NjY2NjcsMzU3LjUsIDEzMTAuNjY2NjY2NjY2NjY2Nyw0MzcuNSIgc3R5bGU9InN0cm9rZS13aWR0aDogMC43NTsgc3Ryb2tlLW9wYWNpdHk6IDAuOTQ7IHN0cm9rZTogcmdiKDgwLCA4MCwgODApOyIvPjxwYXRoIGNsYXNzPSJsaW5rIiBtYXJrZXItZW5kPSIiIGQ9Ik0xMTk2LjY2NjY2NjY2NjY2NjcsMzU3LjUsIDEzMTAuNjY2NjY2NjY2NjY2Nyw0NzcuNSIgc3R5bGU9InN0cm9rZS13aWR0aDogMC43NTsgc3Ryb2tlLW9wYWNpdHk6IDAuOTQ7IHN0cm9rZTogcmdiKDgwLCA4MCwgODApOyIvPjxwYXRoIGNsYXNzPSJsaW5rIiBtYXJrZXItZW5kPSIiIGQ9Ik0xMTk2LjY2NjY2NjY2NjY2NjcsMzU3LjUsIDEzMTAuNjY2NjY2NjY2NjY2Nyw1MTcuNSIgc3R5bGU9InN0cm9rZS13aWR0aDogMC43NTsgc3Ryb2tlLW9wYWNpdHk6IDAuOTQ7IHN0cm9rZTogcmdiKDgwLCA4MCwgODApOyIvPjxwYXRoIGNsYXNzPSJsaW5rIiBtYXJrZXItZW5kPSIiIGQ9Ik0xMTk2LjY2NjY2NjY2NjY2NjcsMzU3LjUsIDEzMTAuNjY2NjY2NjY2NjY2Nyw1NTcuNSIgc3R5bGU9InN0cm9rZS13aWR0aDogMC43NTsgc3Ryb2tlLW9wYWNpdHk6IDAuOTQ7IHN0cm9rZTogcmdiKDgwLCA4MCwgODApOyIvPjxwYXRoIGNsYXNzPSJsaW5rIiBtYXJrZXItZW5kPSIiIGQ9Ik0xMTk2LjY2NjY2NjY2NjY2NjcsMzU3LjUsIDEzMTAuNjY2NjY2NjY2NjY2Nyw1OTcuNSIgc3R5bGU9InN0cm9rZS13aWR0aDogMC43NTsgc3Ryb2tlLW9wYWNpdHk6IDAuOTQ7IHN0cm9rZTogcmdiKDgwLCA4MCwgODApOyIvPjxwYXRoIGNsYXNzPSJsaW5rIiBtYXJrZXItZW5kPSIiIGQ9Ik0xMTk2LjY2NjY2NjY2NjY2NjcsMzk3LjUsIDEzMTAuNjY2NjY2NjY2NjY2NywzMTcuNSIgc3R5bGU9InN0cm9rZS13aWR0aDogMC43NTsgc3Ryb2tlLW9wYWNpdHk6IDAuOTQ7IHN0cm9rZTogcmdiKDgwLCA4MCwgODApOyIvPjxwYXRoIGNsYXNzPSJsaW5rIiBtYXJrZXItZW5kPSIiIGQ9Ik0xMTk2LjY2NjY2NjY2NjY2NjcsMzk3LjUsIDEzMTAuNjY2NjY2NjY2NjY2NywzNTcuNSIgc3R5bGU9InN0cm9rZS13aWR0aDogMC43NTsgc3Ryb2tlLW9wYWNpdHk6IDAuOTQ7IHN0cm9rZTogcmdiKDgwLCA4MCwgODApOyIvPjxwYXRoIGNsYXNzPSJsaW5rIiBtYXJrZXItZW5kPSIiIGQ9Ik0xMTk2LjY2NjY2NjY2NjY2NjcsMzk3LjUsIDEzMTAuNjY2NjY2NjY2NjY2NywzOTcuNSIgc3R5bGU9InN0cm9rZS13aWR0aDogMC43NTsgc3Ryb2tlLW9wYWNpdHk6IDAuOTQ7IHN0cm9rZTogcmdiKDgwLCA4MCwgODApOyIvPjxwYXRoIGNsYXNzPSJsaW5rIiBtYXJrZXItZW5kPSIiIGQ9Ik0xMTk2LjY2NjY2NjY2NjY2NjcsMzk3LjUsIDEzMTAuNjY2NjY2NjY2NjY2Nyw0MzcuNSIgc3R5bGU9InN0cm9rZS13aWR0aDogMC43NTsgc3Ryb2tlLW9wYWNpdHk6IDAuOTQ7IHN0cm9rZTogcmdiKDgwLCA4MCwgODApOyIvPjxwYXRoIGNsYXNzPSJsaW5rIiBtYXJrZXItZW5kPSIiIGQ9Ik0xMTk2LjY2NjY2NjY2NjY2NjcsMzk3LjUsIDEzMTAuNjY2NjY2NjY2NjY2Nyw0NzcuNSIgc3R5bGU9InN0cm9rZS13aWR0aDogMC43NTsgc3Ryb2tlLW9wYWNpdHk6IDAuOTQ7IHN0cm9rZTogcmdiKDgwLCA4MCwgODApOyIvPjxwYXRoIGNsYXNzPSJsaW5rIiBtYXJrZXItZW5kPSIiIGQ9Ik0xMTk2LjY2NjY2NjY2NjY2NjcsMzk3LjUsIDEzMTAuNjY2NjY2NjY2NjY2Nyw1MTcuNSIgc3R5bGU9InN0cm9rZS13aWR0aDogMC43NTsgc3Ryb2tlLW9wYWNpdHk6IDAuOTQ7IHN0cm9rZTogcmdiKDgwLCA4MCwgODApOyIvPjxwYXRoIGNsYXNzPSJsaW5rIiBtYXJrZXItZW5kPSIiIGQ9Ik0xMTk2LjY2NjY2NjY2NjY2NjcsMzk3LjUsIDEzMTAuNjY2NjY2NjY2NjY2Nyw1NTcuNSIgc3R5bGU9InN0cm9rZS13aWR0aDogMC43NTsgc3Ryb2tlLW9wYWNpdHk6IDAuOTQ7IHN0cm9rZTogcmdiKDgwLCA4MCwgODApOyIvPjxwYXRoIGNsYXNzPSJsaW5rIiBtYXJrZXItZW5kPSIiIGQ9Ik0xMTk2LjY2NjY2NjY2NjY2NjcsMzk3LjUsIDEzMTAuNjY2NjY2NjY2NjY2Nyw1OTcuNSIgc3R5bGU9InN0cm9rZS13aWR0aDogMC43NTsgc3Ryb2tlLW9wYWNpdHk6IDAuOTQ7IHN0cm9rZTogcmdiKDgwLCA4MCwgODApOyIvPjxwYXRoIGNsYXNzPSJsaW5rIiBtYXJrZXItZW5kPSIiIGQ9Ik0xMTk2LjY2NjY2NjY2NjY2NjcsNDM3LjUsIDEzMTAuNjY2NjY2NjY2NjY2NywzMTcuNSIgc3R5bGU9InN0cm9rZS13aWR0aDogMC43NTsgc3Ryb2tlLW9wYWNpdHk6IDAuOTQ7IHN0cm9rZTogcmdiKDgwLCA4MCwgODApOyIvPjxwYXRoIGNsYXNzPSJsaW5rIiBtYXJrZXItZW5kPSIiIGQ9Ik0xMTk2LjY2NjY2NjY2NjY2NjcsNDM3LjUsIDEzMTAuNjY2NjY2NjY2NjY2NywzNTcuNSIgc3R5bGU9InN0cm9rZS13aWR0aDogMC43NTsgc3Ryb2tlLW9wYWNpdHk6IDAuOTQ7IHN0cm9rZTogcmdiKDgwLCA4MCwgODApOyIvPjxwYXRoIGNsYXNzPSJsaW5rIiBtYXJrZXItZW5kPSIiIGQ9Ik0xMTk2LjY2NjY2NjY2NjY2NjcsNDM3LjUsIDEzMTAuNjY2NjY2NjY2NjY2NywzOTcuNSIgc3R5bGU9InN0cm9rZS13aWR0aDogMC43NTsgc3Ryb2tlLW9wYWNpdHk6IDAuOTQ7IHN0cm9rZTogcmdiKDgwLCA4MCwgODApOyIvPjxwYXRoIGNsYXNzPSJsaW5rIiBtYXJrZXItZW5kPSIiIGQ9Ik0xMTk2LjY2NjY2NjY2NjY2NjcsNDM3LjUsIDEzMTAuNjY2NjY2NjY2NjY2Nyw0MzcuNSIgc3R5bGU9InN0cm9rZS13aWR0aDogMC43NTsgc3Ryb2tlLW9wYWNpdHk6IDAuOTQ7IHN0cm9rZTogcmdiKDgwLCA4MCwgODApOyIvPjxwYXRoIGNsYXNzPSJsaW5rIiBtYXJrZXItZW5kPSIiIGQ9Ik0xMTk2LjY2NjY2NjY2NjY2NjcsNDM3LjUsIDEzMTAuNjY2NjY2NjY2NjY2Nyw0NzcuNSIgc3R5bGU9InN0cm9rZS13aWR0aDogMC43NTsgc3Ryb2tlLW9wYWNpdHk6IDAuOTQ7IHN0cm9rZTogcmdiKDgwLCA4MCwgODApOyIvPjxwYXRoIGNsYXNzPSJsaW5rIiBtYXJrZXItZW5kPSIiIGQ9Ik0xMTk2LjY2NjY2NjY2NjY2NjcsNDM3LjUsIDEzMTAuNjY2NjY2NjY2NjY2Nyw1MTcuNSIgc3R5bGU9InN0cm9rZS13aWR0aDogMC43NTsgc3Ryb2tlLW9wYWNpdHk6IDAuOTQ7IHN0cm9rZTogcmdiKDgwLCA4MCwgODApOyIvPjxwYXRoIGNsYXNzPSJsaW5rIiBtYXJrZXItZW5kPSIiIGQ9Ik0xMTk2LjY2NjY2NjY2NjY2NjcsNDM3LjUsIDEzMTAuNjY2NjY2NjY2NjY2Nyw1NTcuNSIgc3R5bGU9InN0cm9rZS13aWR0aDogMC43NTsgc3Ryb2tlLW9wYWNpdHk6IDAuOTQ7IHN0cm9rZTogcmdiKDgwLCA4MCwgODApOyIvPjxwYXRoIGNsYXNzPSJsaW5rIiBtYXJrZXItZW5kPSIiIGQ9Ik0xMTk2LjY2NjY2NjY2NjY2NjcsNDM3LjUsIDEzMTAuNjY2NjY2NjY2NjY2Nyw1OTcuNSIgc3R5bGU9InN0cm9rZS13aWR0aDogMC43NTsgc3Ryb2tlLW9wYWNpdHk6IDAuOTQ7IHN0cm9rZTogcmdiKDgwLCA4MCwgODApOyIvPjxwYXRoIGNsYXNzPSJsaW5rIiBtYXJrZXItZW5kPSIiIGQ9Ik0xMTk2LjY2NjY2NjY2NjY2NjcsNDc3LjUsIDEzMTAuNjY2NjY2NjY2NjY2NywzMTcuNSIgc3R5bGU9InN0cm9rZS13aWR0aDogMC43NTsgc3Ryb2tlLW9wYWNpdHk6IDAuOTQ7IHN0cm9rZTogcmdiKDgwLCA4MCwgODApOyIvPjxwYXRoIGNsYXNzPSJsaW5rIiBtYXJrZXItZW5kPSIiIGQ9Ik0xMTk2LjY2NjY2NjY2NjY2NjcsNDc3LjUsIDEzMTAuNjY2NjY2NjY2NjY2NywzNTcuNSIgc3R5bGU9InN0cm9rZS13aWR0aDogMC43NTsgc3Ryb2tlLW9wYWNpdHk6IDAuOTQ7IHN0cm9rZTogcmdiKDgwLCA4MCwgODApOyIvPjxwYXRoIGNsYXNzPSJsaW5rIiBtYXJrZXItZW5kPSIiIGQ9Ik0xMTk2LjY2NjY2NjY2NjY2NjcsNDc3LjUsIDEzMTAuNjY2NjY2NjY2NjY2NywzOTcuNSIgc3R5bGU9InN0cm9rZS13aWR0aDogMC43NTsgc3Ryb2tlLW9wYWNpdHk6IDAuOTQ7IHN0cm9rZTogcmdiKDgwLCA4MCwgODApOyIvPjxwYXRoIGNsYXNzPSJsaW5rIiBtYXJrZXItZW5kPSIiIGQ9Ik0xMTk2LjY2NjY2NjY2NjY2NjcsNDc3LjUsIDEzMTAuNjY2NjY2NjY2NjY2Nyw0MzcuNSIgc3R5bGU9InN0cm9rZS13aWR0aDogMC43NTsgc3Ryb2tlLW9wYWNpdHk6IDAuOTQ7IHN0cm9rZTogcmdiKDgwLCA4MCwgODApOyIvPjxwYXRoIGNsYXNzPSJsaW5rIiBtYXJrZXItZW5kPSIiIGQ9Ik0xMTk2LjY2NjY2NjY2NjY2NjcsNDc3LjUsIDEzMTAuNjY2NjY2NjY2NjY2Nyw0NzcuNSIgc3R5bGU9InN0cm9rZS13aWR0aDogMC43NTsgc3Ryb2tlLW9wYWNpdHk6IDAuOTQ7IHN0cm9rZTogcmdiKDgwLCA4MCwgODApOyIvPjxwYXRoIGNsYXNzPSJsaW5rIiBtYXJrZXItZW5kPSIiIGQ9Ik0xMTk2LjY2NjY2NjY2NjY2NjcsNDc3LjUsIDEzMTAuNjY2NjY2NjY2NjY2Nyw1MTcuNSIgc3R5bGU9InN0cm9rZS13aWR0aDogMC43NTsgc3Ryb2tlLW9wYWNpdHk6IDAuOTQ7IHN0cm9rZTogcmdiKDgwLCA4MCwgODApOyIvPjxwYXRoIGNsYXNzPSJsaW5rIiBtYXJrZXItZW5kPSIiIGQ9Ik0xMTk2LjY2NjY2NjY2NjY2NjcsNDc3LjUsIDEzMTAuNjY2NjY2NjY2NjY2Nyw1NTcuNSIgc3R5bGU9InN0cm9rZS13aWR0aDogMC43NTsgc3Ryb2tlLW9wYWNpdHk6IDAuOTQ7IHN0cm9rZTogcmdiKDgwLCA4MCwgODApOyIvPjxwYXRoIGNsYXNzPSJsaW5rIiBtYXJrZXItZW5kPSIiIGQ9Ik0xMTk2LjY2NjY2NjY2NjY2NjcsNDc3LjUsIDEzMTAuNjY2NjY2NjY2NjY2Nyw1OTcuNSIgc3R5bGU9InN0cm9rZS13aWR0aDogMC43NTsgc3Ryb2tlLW9wYWNpdHk6IDAuOTQ7IHN0cm9rZTogcmdiKDgwLCA4MCwgODApOyIvPjxwYXRoIGNsYXNzPSJsaW5rIiBtYXJrZXItZW5kPSIiIGQ9Ik0xMTk2LjY2NjY2NjY2NjY2NjcsNTE3LjUsIDEzMTAuNjY2NjY2NjY2NjY2NywzMTcuNSIgc3R5bGU9InN0cm9rZS13aWR0aDogMC43NTsgc3Ryb2tlLW9wYWNpdHk6IDAuOTQ7IHN0cm9rZTogcmdiKDgwLCA4MCwgODApOyIvPjxwYXRoIGNsYXNzPSJsaW5rIiBtYXJrZXItZW5kPSIiIGQ9Ik0xMTk2LjY2NjY2NjY2NjY2NjcsNTE3LjUsIDEzMTAuNjY2NjY2NjY2NjY2NywzNTcuNSIgc3R5bGU9InN0cm9rZS13aWR0aDogMC43NTsgc3Ryb2tlLW9wYWNpdHk6IDAuOTQ7IHN0cm9rZTogcmdiKDgwLCA4MCwgODApOyIvPjxwYXRoIGNsYXNzPSJsaW5rIiBtYXJrZXItZW5kPSIiIGQ9Ik0xMTk2LjY2NjY2NjY2NjY2NjcsNTE3LjUsIDEzMTAuNjY2NjY2NjY2NjY2NywzOTcuNSIgc3R5bGU9InN0cm9rZS13aWR0aDogMC43NTsgc3Ryb2tlLW9wYWNpdHk6IDAuOTQ7IHN0cm9rZTogcmdiKDgwLCA4MCwgODApOyIvPjxwYXRoIGNsYXNzPSJsaW5rIiBtYXJrZXItZW5kPSIiIGQ9Ik0xMTk2LjY2NjY2NjY2NjY2NjcsNTE3LjUsIDEzMTAuNjY2NjY2NjY2NjY2Nyw0MzcuNSIgc3R5bGU9InN0cm9rZS13aWR0aDogMC43NTsgc3Ryb2tlLW9wYWNpdHk6IDAuOTQ7IHN0cm9rZTogcmdiKDgwLCA4MCwgODApOyIvPjxwYXRoIGNsYXNzPSJsaW5rIiBtYXJrZXItZW5kPSIiIGQ9Ik0xMTk2LjY2NjY2NjY2NjY2NjcsNTE3LjUsIDEzMTAuNjY2NjY2NjY2NjY2Nyw0NzcuNSIgc3R5bGU9InN0cm9rZS13aWR0aDogMC43NTsgc3Ryb2tlLW9wYWNpdHk6IDAuOTQ7IHN0cm9rZTogcmdiKDgwLCA4MCwgODApOyIvPjxwYXRoIGNsYXNzPSJsaW5rIiBtYXJrZXItZW5kPSIiIGQ9Ik0xMTk2LjY2NjY2NjY2NjY2NjcsNTE3LjUsIDEzMTAuNjY2NjY2NjY2NjY2Nyw1MTcuNSIgc3R5bGU9InN0cm9rZS13aWR0aDogMC43NTsgc3Ryb2tlLW9wYWNpdHk6IDAuOTQ7IHN0cm9rZTogcmdiKDgwLCA4MCwgODApOyIvPjxwYXRoIGNsYXNzPSJsaW5rIiBtYXJrZXItZW5kPSIiIGQ9Ik0xMTk2LjY2NjY2NjY2NjY2NjcsNTE3LjUsIDEzMTAuNjY2NjY2NjY2NjY2Nyw1NTcuNSIgc3R5bGU9InN0cm9rZS13aWR0aDogMC43NTsgc3Ryb2tlLW9wYWNpdHk6IDAuOTQ7IHN0cm9rZTogcmdiKDgwLCA4MCwgODApOyIvPjxwYXRoIGNsYXNzPSJsaW5rIiBtYXJrZXItZW5kPSIiIGQ9Ik0xMTk2LjY2NjY2NjY2NjY2NjcsNTE3LjUsIDEzMTAuNjY2NjY2NjY2NjY2Nyw1OTcuNSIgc3R5bGU9InN0cm9rZS13aWR0aDogMC43NTsgc3Ryb2tlLW9wYWNpdHk6IDAuOTQ7IHN0cm9rZTogcmdiKDgwLCA4MCwgODApOyIvPjxwYXRoIGNsYXNzPSJsaW5rIiBtYXJrZXItZW5kPSIiIGQ9Ik0xMTk2LjY2NjY2NjY2NjY2NjcsNTU3LjUsIDEzMTAuNjY2NjY2NjY2NjY2NywzMTcuNSIgc3R5bGU9InN0cm9rZS13aWR0aDogMC43NTsgc3Ryb2tlLW9wYWNpdHk6IDAuOTQ7IHN0cm9rZTogcmdiKDgwLCA4MCwgODApOyIvPjxwYXRoIGNsYXNzPSJsaW5rIiBtYXJrZXItZW5kPSIiIGQ9Ik0xMTk2LjY2NjY2NjY2NjY2NjcsNTU3LjUsIDEzMTAuNjY2NjY2NjY2NjY2NywzNTcuNSIgc3R5bGU9InN0cm9rZS13aWR0aDogMC43NTsgc3Ryb2tlLW9wYWNpdHk6IDAuOTQ7IHN0cm9rZTogcmdiKDgwLCA4MCwgODApOyIvPjxwYXRoIGNsYXNzPSJsaW5rIiBtYXJrZXItZW5kPSIiIGQ9Ik0xMTk2LjY2NjY2NjY2NjY2NjcsNTU3LjUsIDEzMTAuNjY2NjY2NjY2NjY2NywzOTcuNSIgc3R5bGU9InN0cm9rZS13aWR0aDogMC43NTsgc3Ryb2tlLW9wYWNpdHk6IDAuOTQ7IHN0cm9rZTogcmdiKDgwLCA4MCwgODApOyIvPjxwYXRoIGNsYXNzPSJsaW5rIiBtYXJrZXItZW5kPSIiIGQ9Ik0xMTk2LjY2NjY2NjY2NjY2NjcsNTU3LjUsIDEzMTAuNjY2NjY2NjY2NjY2Nyw0MzcuNSIgc3R5bGU9InN0cm9rZS13aWR0aDogMC43NTsgc3Ryb2tlLW9wYWNpdHk6IDAuOTQ7IHN0cm9rZTogcmdiKDgwLCA4MCwgODApOyIvPjxwYXRoIGNsYXNzPSJsaW5rIiBtYXJrZXItZW5kPSIiIGQ9Ik0xMTk2LjY2NjY2NjY2NjY2NjcsNTU3LjUsIDEzMTAuNjY2NjY2NjY2NjY2Nyw0NzcuNSIgc3R5bGU9InN0cm9rZS13aWR0aDogMC43NTsgc3Ryb2tlLW9wYWNpdHk6IDAuOTQ7IHN0cm9rZTogcmdiKDgwLCA4MCwgODApOyIvPjxwYXRoIGNsYXNzPSJsaW5rIiBtYXJrZXItZW5kPSIiIGQ9Ik0xMTk2LjY2NjY2NjY2NjY2NjcsNTU3LjUsIDEzMTAuNjY2NjY2NjY2NjY2Nyw1MTcuNSIgc3R5bGU9InN0cm9rZS13aWR0aDogMC43NTsgc3Ryb2tlLW9wYWNpdHk6IDAuOTQ7IHN0cm9rZTogcmdiKDgwLCA4MCwgODApOyIvPjxwYXRoIGNsYXNzPSJsaW5rIiBtYXJrZXItZW5kPSIiIGQ9Ik0xMTk2LjY2NjY2NjY2NjY2NjcsNTU3LjUsIDEzMTAuNjY2NjY2NjY2NjY2Nyw1NTcuNSIgc3R5bGU9InN0cm9rZS13aWR0aDogMC43NTsgc3Ryb2tlLW9wYWNpdHk6IDAuOTQ7IHN0cm9rZTogcmdiKDgwLCA4MCwgODApOyIvPjxwYXRoIGNsYXNzPSJsaW5rIiBtYXJrZXItZW5kPSIiIGQ9Ik0xMTk2LjY2NjY2NjY2NjY2NjcsNTU3LjUsIDEzMTAuNjY2NjY2NjY2NjY2Nyw1OTcuNSIgc3R5bGU9InN0cm9rZS13aWR0aDogMC43NTsgc3Ryb2tlLW9wYWNpdHk6IDAuOTQ7IHN0cm9rZTogcmdiKDgwLCA4MCwgODApOyIvPjxwYXRoIGNsYXNzPSJsaW5rIiBtYXJrZXItZW5kPSIiIGQ9Ik0xMTk2LjY2NjY2NjY2NjY2NjcsNTk3LjUsIDEzMTAuNjY2NjY2NjY2NjY2NywzMTcuNSIgc3R5bGU9InN0cm9rZS13aWR0aDogMC43NTsgc3Ryb2tlLW9wYWNpdHk6IDAuOTQ7IHN0cm9rZTogcmdiKDgwLCA4MCwgODApOyIvPjxwYXRoIGNsYXNzPSJsaW5rIiBtYXJrZXItZW5kPSIiIGQ9Ik0xMTk2LjY2NjY2NjY2NjY2NjcsNTk3LjUsIDEzMTAuNjY2NjY2NjY2NjY2NywzNTcuNSIgc3R5bGU9InN0cm9rZS13aWR0aDogMC43NTsgc3Ryb2tlLW9wYWNpdHk6IDAuOTQ7IHN0cm9rZTogcmdiKDgwLCA4MCwgODApOyIvPjxwYXRoIGNsYXNzPSJsaW5rIiBtYXJrZXItZW5kPSIiIGQ9Ik0xMTk2LjY2NjY2NjY2NjY2NjcsNTk3LjUsIDEzMTAuNjY2NjY2NjY2NjY2NywzOTcuNSIgc3R5bGU9InN0cm9rZS13aWR0aDogMC43NTsgc3Ryb2tlLW9wYWNpdHk6IDAuOTQ7IHN0cm9rZTogcmdiKDgwLCA4MCwgODApOyIvPjxwYXRoIGNsYXNzPSJsaW5rIiBtYXJrZXItZW5kPSIiIGQ9Ik0xMTk2LjY2NjY2NjY2NjY2NjcsNTk3LjUsIDEzMTAuNjY2NjY2NjY2NjY2Nyw0MzcuNSIgc3R5bGU9InN0cm9rZS13aWR0aDogMC43NTsgc3Ryb2tlLW9wYWNpdHk6IDAuOTQ7IHN0cm9rZTogcmdiKDgwLCA4MCwgODApOyIvPjxwYXRoIGNsYXNzPSJsaW5rIiBtYXJrZXItZW5kPSIiIGQ9Ik0xMTk2LjY2NjY2NjY2NjY2NjcsNTk3LjUsIDEzMTAuNjY2NjY2NjY2NjY2Nyw0NzcuNSIgc3R5bGU9InN0cm9rZS13aWR0aDogMC43NTsgc3Ryb2tlLW9wYWNpdHk6IDAuOTQ7IHN0cm9rZTogcmdiKDgwLCA4MCwgODApOyIvPjxwYXRoIGNsYXNzPSJsaW5rIiBtYXJrZXItZW5kPSIiIGQ9Ik0xMTk2LjY2NjY2NjY2NjY2NjcsNTk3LjUsIDEzMTAuNjY2NjY2NjY2NjY2Nyw1MTcuNSIgc3R5bGU9InN0cm9rZS13aWR0aDogMC43NTsgc3Ryb2tlLW9wYWNpdHk6IDAuOTQ7IHN0cm9rZTogcmdiKDgwLCA4MCwgODApOyIvPjxwYXRoIGNsYXNzPSJsaW5rIiBtYXJrZXItZW5kPSIiIGQ9Ik0xMTk2LjY2NjY2NjY2NjY2NjcsNTk3LjUsIDEzMTAuNjY2NjY2NjY2NjY2Nyw1NTcuNSIgc3R5bGU9InN0cm9rZS13aWR0aDogMC43NTsgc3Ryb2tlLW9wYWNpdHk6IDAuOTQ7IHN0cm9rZTogcmdiKDgwLCA4MCwgODApOyIvPjxwYXRoIGNsYXNzPSJsaW5rIiBtYXJrZXItZW5kPSIiIGQ9Ik0xMTk2LjY2NjY2NjY2NjY2NjcsNTk3LjUsIDEzMTAuNjY2NjY2NjY2NjY2Nyw1OTcuNSIgc3R5bGU9InN0cm9rZS13aWR0aDogMC43NTsgc3Ryb2tlLW9wYWNpdHk6IDAuOTQ7IHN0cm9rZTogcmdiKDgwLCA4MCwgODApOyIvPjxwYXRoIGNsYXNzPSJsaW5rIiBtYXJrZXItZW5kPSIiIGQ9Ik0xMzEwLjY2NjY2NjY2NjY2NjcsMzE3LjUsIDE0MjQuNjY2NjY2NjY2NjY2Nyw0MTcuNSIgc3R5bGU9InN0cm9rZS13aWR0aDogMC43NTsgc3Ryb2tlLW9wYWNpdHk6IDAuOTQ7IHN0cm9rZTogcmdiKDgwLCA4MCwgODApOyIvPjxwYXRoIGNsYXNzPSJsaW5rIiBtYXJrZXItZW5kPSIiIGQ9Ik0xMzEwLjY2NjY2NjY2NjY2NjcsMzE3LjUsIDE0MjQuNjY2NjY2NjY2NjY2Nyw0NTcuNSIgc3R5bGU9InN0cm9rZS13aWR0aDogMC43NTsgc3Ryb2tlLW9wYWNpdHk6IDAuOTQ7IHN0cm9rZTogcmdiKDgwLCA4MCwgODApOyIvPjxwYXRoIGNsYXNzPSJsaW5rIiBtYXJrZXItZW5kPSIiIGQ9Ik0xMzEwLjY2NjY2NjY2NjY2NjcsMzE3LjUsIDE0MjQuNjY2NjY2NjY2NjY2Nyw0OTcuNSIgc3R5bGU9InN0cm9rZS13aWR0aDogMC43NTsgc3Ryb2tlLW9wYWNpdHk6IDAuOTQ7IHN0cm9rZTogcmdiKDgwLCA4MCwgODApOyIvPjxwYXRoIGNsYXNzPSJsaW5rIiBtYXJrZXItZW5kPSIiIGQ9Ik0xMzEwLjY2NjY2NjY2NjY2NjcsMzE3LjUsIDE0MjQuNjY2NjY2NjY2NjY2Nyw1MzcuNSIgc3R5bGU9InN0cm9rZS13aWR0aDogMC43NTsgc3Ryb2tlLW9wYWNpdHk6IDAuOTQ7IHN0cm9rZTogcmdiKDgwLCA4MCwgODApOyIvPjxwYXRoIGNsYXNzPSJsaW5rIiBtYXJrZXItZW5kPSIiIGQ9Ik0xMzEwLjY2NjY2NjY2NjY2NjcsMzU3LjUsIDE0MjQuNjY2NjY2NjY2NjY2Nyw0MTcuNSIgc3R5bGU9InN0cm9rZS13aWR0aDogMC43NTsgc3Ryb2tlLW9wYWNpdHk6IDAuOTQ7IHN0cm9rZTogcmdiKDgwLCA4MCwgODApOyIvPjxwYXRoIGNsYXNzPSJsaW5rIiBtYXJrZXItZW5kPSIiIGQ9Ik0xMzEwLjY2NjY2NjY2NjY2NjcsMzU3LjUsIDE0MjQuNjY2NjY2NjY2NjY2Nyw0NTcuNSIgc3R5bGU9InN0cm9rZS13aWR0aDogMC43NTsgc3Ryb2tlLW9wYWNpdHk6IDAuOTQ7IHN0cm9rZTogcmdiKDgwLCA4MCwgODApOyIvPjxwYXRoIGNsYXNzPSJsaW5rIiBtYXJrZXItZW5kPSIiIGQ9Ik0xMzEwLjY2NjY2NjY2NjY2NjcsMzU3LjUsIDE0MjQuNjY2NjY2NjY2NjY2Nyw0OTcuNSIgc3R5bGU9InN0cm9rZS13aWR0aDogMC43NTsgc3Ryb2tlLW9wYWNpdHk6IDAuOTQ7IHN0cm9rZTogcmdiKDgwLCA4MCwgODApOyIvPjxwYXRoIGNsYXNzPSJsaW5rIiBtYXJrZXItZW5kPSIiIGQ9Ik0xMzEwLjY2NjY2NjY2NjY2NjcsMzU3LjUsIDE0MjQuNjY2NjY2NjY2NjY2Nyw1MzcuNSIgc3R5bGU9InN0cm9rZS13aWR0aDogMC43NTsgc3Ryb2tlLW9wYWNpdHk6IDAuOTQ7IHN0cm9rZTogcmdiKDgwLCA4MCwgODApOyIvPjxwYXRoIGNsYXNzPSJsaW5rIiBtYXJrZXItZW5kPSIiIGQ9Ik0xMzEwLjY2NjY2NjY2NjY2NjcsMzk3LjUsIDE0MjQuNjY2NjY2NjY2NjY2Nyw0MTcuNSIgc3R5bGU9InN0cm9rZS13aWR0aDogMC43NTsgc3Ryb2tlLW9wYWNpdHk6IDAuOTQ7IHN0cm9rZTogcmdiKDgwLCA4MCwgODApOyIvPjxwYXRoIGNsYXNzPSJsaW5rIiBtYXJrZXItZW5kPSIiIGQ9Ik0xMzEwLjY2NjY2NjY2NjY2NjcsMzk3LjUsIDE0MjQuNjY2NjY2NjY2NjY2Nyw0NTcuNSIgc3R5bGU9InN0cm9rZS13aWR0aDogMC43NTsgc3Ryb2tlLW9wYWNpdHk6IDAuOTQ7IHN0cm9rZTogcmdiKDgwLCA4MCwgODApOyIvPjxwYXRoIGNsYXNzPSJsaW5rIiBtYXJrZXItZW5kPSIiIGQ9Ik0xMzEwLjY2NjY2NjY2NjY2NjcsMzk3LjUsIDE0MjQuNjY2NjY2NjY2NjY2Nyw0OTcuNSIgc3R5bGU9InN0cm9rZS13aWR0aDogMC43NTsgc3Ryb2tlLW9wYWNpdHk6IDAuOTQ7IHN0cm9rZTogcmdiKDgwLCA4MCwgODApOyIvPjxwYXRoIGNsYXNzPSJsaW5rIiBtYXJrZXItZW5kPSIiIGQ9Ik0xMzEwLjY2NjY2NjY2NjY2NjcsMzk3LjUsIDE0MjQuNjY2NjY2NjY2NjY2Nyw1MzcuNSIgc3R5bGU9InN0cm9rZS13aWR0aDogMC43NTsgc3Ryb2tlLW9wYWNpdHk6IDAuOTQ7IHN0cm9rZTogcmdiKDgwLCA4MCwgODApOyIvPjxwYXRoIGNsYXNzPSJsaW5rIiBtYXJrZXItZW5kPSIiIGQ9Ik0xMzEwLjY2NjY2NjY2NjY2NjcsNDM3LjUsIDE0MjQuNjY2NjY2NjY2NjY2Nyw0MTcuNSIgc3R5bGU9InN0cm9rZS13aWR0aDogMC43NTsgc3Ryb2tlLW9wYWNpdHk6IDAuOTQ7IHN0cm9rZTogcmdiKDgwLCA4MCwgODApOyIvPjxwYXRoIGNsYXNzPSJsaW5rIiBtYXJrZXItZW5kPSIiIGQ9Ik0xMzEwLjY2NjY2NjY2NjY2NjcsNDM3LjUsIDE0MjQuNjY2NjY2NjY2NjY2Nyw0NTcuNSIgc3R5bGU9InN0cm9rZS13aWR0aDogMC43NTsgc3Ryb2tlLW9wYWNpdHk6IDAuOTQ7IHN0cm9rZTogcmdiKDgwLCA4MCwgODApOyIvPjxwYXRoIGNsYXNzPSJsaW5rIiBtYXJrZXItZW5kPSIiIGQ9Ik0xMzEwLjY2NjY2NjY2NjY2NjcsNDM3LjUsIDE0MjQuNjY2NjY2NjY2NjY2Nyw0OTcuNSIgc3R5bGU9InN0cm9rZS13aWR0aDogMC43NTsgc3Ryb2tlLW9wYWNpdHk6IDAuOTQ7IHN0cm9rZTogcmdiKDgwLCA4MCwgODApOyIvPjxwYXRoIGNsYXNzPSJsaW5rIiBtYXJrZXItZW5kPSIiIGQ9Ik0xMzEwLjY2NjY2NjY2NjY2NjcsNDM3LjUsIDE0MjQuNjY2NjY2NjY2NjY2Nyw1MzcuNSIgc3R5bGU9InN0cm9rZS13aWR0aDogMC43NTsgc3Ryb2tlLW9wYWNpdHk6IDAuOTQ7IHN0cm9rZTogcmdiKDgwLCA4MCwgODApOyIvPjxwYXRoIGNsYXNzPSJsaW5rIiBtYXJrZXItZW5kPSIiIGQ9Ik0xMzEwLjY2NjY2NjY2NjY2NjcsNDc3LjUsIDE0MjQuNjY2NjY2NjY2NjY2Nyw0MTcuNSIgc3R5bGU9InN0cm9rZS13aWR0aDogMC43NTsgc3Ryb2tlLW9wYWNpdHk6IDAuOTQ7IHN0cm9rZTogcmdiKDgwLCA4MCwgODApOyIvPjxwYXRoIGNsYXNzPSJsaW5rIiBtYXJrZXItZW5kPSIiIGQ9Ik0xMzEwLjY2NjY2NjY2NjY2NjcsNDc3LjUsIDE0MjQuNjY2NjY2NjY2NjY2Nyw0NTcuNSIgc3R5bGU9InN0cm9rZS13aWR0aDogMC43NTsgc3Ryb2tlLW9wYWNpdHk6IDAuOTQ7IHN0cm9rZTogcmdiKDgwLCA4MCwgODApOyIvPjxwYXRoIGNsYXNzPSJsaW5rIiBtYXJrZXItZW5kPSIiIGQ9Ik0xMzEwLjY2NjY2NjY2NjY2NjcsNDc3LjUsIDE0MjQuNjY2NjY2NjY2NjY2Nyw0OTcuNSIgc3R5bGU9InN0cm9rZS13aWR0aDogMC43NTsgc3Ryb2tlLW9wYWNpdHk6IDAuOTQ7IHN0cm9rZTogcmdiKDgwLCA4MCwgODApOyIvPjxwYXRoIGNsYXNzPSJsaW5rIiBtYXJrZXItZW5kPSIiIGQ9Ik0xMzEwLjY2NjY2NjY2NjY2NjcsNDc3LjUsIDE0MjQuNjY2NjY2NjY2NjY2Nyw1MzcuNSIgc3R5bGU9InN0cm9rZS13aWR0aDogMC43NTsgc3Ryb2tlLW9wYWNpdHk6IDAuOTQ7IHN0cm9rZTogcmdiKDgwLCA4MCwgODApOyIvPjxwYXRoIGNsYXNzPSJsaW5rIiBtYXJrZXItZW5kPSIiIGQ9Ik0xMzEwLjY2NjY2NjY2NjY2NjcsNTE3LjUsIDE0MjQuNjY2NjY2NjY2NjY2Nyw0MTcuNSIgc3R5bGU9InN0cm9rZS13aWR0aDogMC43NTsgc3Ryb2tlLW9wYWNpdHk6IDAuOTQ7IHN0cm9rZTogcmdiKDgwLCA4MCwgODApOyIvPjxwYXRoIGNsYXNzPSJsaW5rIiBtYXJrZXItZW5kPSIiIGQ9Ik0xMzEwLjY2NjY2NjY2NjY2NjcsNTE3LjUsIDE0MjQuNjY2NjY2NjY2NjY2Nyw0NTcuNSIgc3R5bGU9InN0cm9rZS13aWR0aDogMC43NTsgc3Ryb2tlLW9wYWNpdHk6IDAuOTQ7IHN0cm9rZTogcmdiKDgwLCA4MCwgODApOyIvPjxwYXRoIGNsYXNzPSJsaW5rIiBtYXJrZXItZW5kPSIiIGQ9Ik0xMzEwLjY2NjY2NjY2NjY2NjcsNTE3LjUsIDE0MjQuNjY2NjY2NjY2NjY2Nyw0OTcuNSIgc3R5bGU9InN0cm9rZS13aWR0aDogMC43NTsgc3Ryb2tlLW9wYWNpdHk6IDAuOTQ7IHN0cm9rZTogcmdiKDgwLCA4MCwgODApOyIvPjxwYXRoIGNsYXNzPSJsaW5rIiBtYXJrZXItZW5kPSIiIGQ9Ik0xMzEwLjY2NjY2NjY2NjY2NjcsNTE3LjUsIDE0MjQuNjY2NjY2NjY2NjY2Nyw1MzcuNSIgc3R5bGU9InN0cm9rZS13aWR0aDogMC43NTsgc3Ryb2tlLW9wYWNpdHk6IDAuOTQ7IHN0cm9rZTogcmdiKDgwLCA4MCwgODApOyIvPjxwYXRoIGNsYXNzPSJsaW5rIiBtYXJrZXItZW5kPSIiIGQ9Ik0xMzEwLjY2NjY2NjY2NjY2NjcsNTU3LjUsIDE0MjQuNjY2NjY2NjY2NjY2Nyw0MTcuNSIgc3R5bGU9InN0cm9rZS13aWR0aDogMC43NTsgc3Ryb2tlLW9wYWNpdHk6IDAuOTQ7IHN0cm9rZTogcmdiKDgwLCA4MCwgODApOyIvPjxwYXRoIGNsYXNzPSJsaW5rIiBtYXJrZXItZW5kPSIiIGQ9Ik0xMzEwLjY2NjY2NjY2NjY2NjcsNTU3LjUsIDE0MjQuNjY2NjY2NjY2NjY2Nyw0NTcuNSIgc3R5bGU9InN0cm9rZS13aWR0aDogMC43NTsgc3Ryb2tlLW9wYWNpdHk6IDAuOTQ7IHN0cm9rZTogcmdiKDgwLCA4MCwgODApOyIvPjxwYXRoIGNsYXNzPSJsaW5rIiBtYXJrZXItZW5kPSIiIGQ9Ik0xMzEwLjY2NjY2NjY2NjY2NjcsNTU3LjUsIDE0MjQuNjY2NjY2NjY2NjY2Nyw0OTcuNSIgc3R5bGU9InN0cm9rZS13aWR0aDogMC43NTsgc3Ryb2tlLW9wYWNpdHk6IDAuOTQ7IHN0cm9rZTogcmdiKDgwLCA4MCwgODApOyIvPjxwYXRoIGNsYXNzPSJsaW5rIiBtYXJrZXItZW5kPSIiIGQ9Ik0xMzEwLjY2NjY2NjY2NjY2NjcsNTU3LjUsIDE0MjQuNjY2NjY2NjY2NjY2Nyw1MzcuNSIgc3R5bGU9InN0cm9rZS13aWR0aDogMC43NTsgc3Ryb2tlLW9wYWNpdHk6IDAuOTQ7IHN0cm9rZTogcmdiKDgwLCA4MCwgODApOyIvPjxwYXRoIGNsYXNzPSJsaW5rIiBtYXJrZXItZW5kPSIiIGQ9Ik0xMzEwLjY2NjY2NjY2NjY2NjcsNTk3LjUsIDE0MjQuNjY2NjY2NjY2NjY2Nyw0MTcuNSIgc3R5bGU9InN0cm9rZS13aWR0aDogMC43NTsgc3Ryb2tlLW9wYWNpdHk6IDAuOTQ7IHN0cm9rZTogcmdiKDgwLCA4MCwgODApOyIvPjxwYXRoIGNsYXNzPSJsaW5rIiBtYXJrZXItZW5kPSIiIGQ9Ik0xMzEwLjY2NjY2NjY2NjY2NjcsNTk3LjUsIDE0MjQuNjY2NjY2NjY2NjY2Nyw0NTcuNSIgc3R5bGU9InN0cm9rZS13aWR0aDogMC43NTsgc3Ryb2tlLW9wYWNpdHk6IDAuOTQ7IHN0cm9rZTogcmdiKDgwLCA4MCwgODApOyIvPjxwYXRoIGNsYXNzPSJsaW5rIiBtYXJrZXItZW5kPSIiIGQ9Ik0xMzEwLjY2NjY2NjY2NjY2NjcsNTk3LjUsIDE0MjQuNjY2NjY2NjY2NjY2Nyw0OTcuNSIgc3R5bGU9InN0cm9rZS13aWR0aDogMC43NTsgc3Ryb2tlLW9wYWNpdHk6IDAuOTQ7IHN0cm9rZTogcmdiKDgwLCA4MCwgODApOyIvPjxwYXRoIGNsYXNzPSJsaW5rIiBtYXJrZXItZW5kPSIiIGQ9Ik0xMzEwLjY2NjY2NjY2NjY2NjcsNTk3LjUsIDE0MjQuNjY2NjY2NjY2NjY2Nyw1MzcuNSIgc3R5bGU9InN0cm9rZS13aWR0aDogMC43NTsgc3Ryb2tlLW9wYWNpdHk6IDAuOTQ7IHN0cm9rZTogcmdiKDgwLCA4MCwgODApOyIvPjxwYXRoIGNsYXNzPSJsaW5rIiBtYXJrZXItZW5kPSIiIGQ9Ik03NDAuNjY2NjY2NjY2NjY2Niw0MjAuNSwgODU0LjY2NjY2NjY2NjY2NjYsNjM3LjUiIHN0eWxlPSJzdHJva2Utd2lkdGg6IDAuNzU7IHN0cm9rZS1vcGFjaXR5OiAwLjk0OyBzdHJva2U6IHJnYig4MCwgODAsIDgwKTsiLz48cGF0aCBjbGFzcz0ibGluayIgbWFya2VyLWVuZD0iIiBkPSJNNzQwLjY2NjY2NjY2NjY2NjYsNDU4LjUsIDg1NC42NjY2NjY2NjY2NjY2LDYzNy41IiBzdHlsZT0ic3Ryb2tlLXdpZHRoOiAwLjc1OyBzdHJva2Utb3BhY2l0eTogMC45NDsgc3Ryb2tlOiByZ2IoODAsIDgwLCA4MCk7Ii8+PHBhdGggY2xhc3M9ImxpbmsiIG1hcmtlci1lbmQ9IiIgZD0iTTc0MC42NjY2NjY2NjY2NjY2LDQ5Ni41LCA4NTQuNjY2NjY2NjY2NjY2Niw2MzcuNSIgc3R5bGU9InN0cm9rZS13aWR0aDogMC43NTsgc3Ryb2tlLW9wYWNpdHk6IDAuOTQ7IHN0cm9rZTogcmdiKDgwLCA4MCwgODApOyIvPjxwYXRoIGNsYXNzPSJsaW5rIiBtYXJrZXItZW5kPSIiIGQ9Ik03NDAuNjY2NjY2NjY2NjY2Niw1MzQuNSwgODU0LjY2NjY2NjY2NjY2NjYsNjM3LjUiIHN0eWxlPSJzdHJva2Utd2lkdGg6IDAuNzU7IHN0cm9rZS1vcGFjaXR5OiAwLjk0OyBzdHJva2U6IHJnYig4MCwgODAsIDgwKTsiLz48cGF0aCBjbGFzcz0ibGluayIgbWFya2VyLWVuZD0iIiBkPSJNODU0LjY2NjY2NjY2NjY2NjYsNjM3LjUsIDk2OC42NjY2NjY2NjY2NjY2LDMxNy41IiBzdHlsZT0ic3Ryb2tlLXdpZHRoOiAwLjc1OyBzdHJva2Utb3BhY2l0eTogMC45NDsgc3Ryb2tlOiByZ2IoODAsIDgwLCA4MCk7Ii8+PHBhdGggY2xhc3M9ImxpbmsiIG1hcmtlci1lbmQ9IiIgZD0iTTg1NC42NjY2NjY2NjY2NjY2LDYzNy41LCA5NjguNjY2NjY2NjY2NjY2NiwzNTcuNSIgc3R5bGU9InN0cm9rZS13aWR0aDogMC43NTsgc3Ryb2tlLW9wYWNpdHk6IDAuOTQ7IHN0cm9rZTogcmdiKDgwLCA4MCwgODApOyIvPjxwYXRoIGNsYXNzPSJsaW5rIiBtYXJrZXItZW5kPSIiIGQ9Ik04NTQuNjY2NjY2NjY2NjY2Niw2MzcuNSwgOTY4LjY2NjY2NjY2NjY2NjYsMzk3LjUiIHN0eWxlPSJzdHJva2Utd2lkdGg6IDAuNzU7IHN0cm9rZS1vcGFjaXR5OiAwLjk0OyBzdHJva2U6IHJnYig4MCwgODAsIDgwKTsiLz48cGF0aCBjbGFzcz0ibGluayIgbWFya2VyLWVuZD0iIiBkPSJNODU0LjY2NjY2NjY2NjY2NjYsNjM3LjUsIDk2OC42NjY2NjY2NjY2NjY2LDQzNy41IiBzdHlsZT0ic3Ryb2tlLXdpZHRoOiAwLjc1OyBzdHJva2Utb3BhY2l0eTogMC45NDsgc3Ryb2tlOiByZ2IoODAsIDgwLCA4MCk7Ii8+PHBhdGggY2xhc3M9ImxpbmsiIG1hcmtlci1lbmQ9IiIgZD0iTTg1NC42NjY2NjY2NjY2NjY2LDYzNy41LCA5NjguNjY2NjY2NjY2NjY2Niw0NzcuNSIgc3R5bGU9InN0cm9rZS13aWR0aDogMC43NTsgc3Ryb2tlLW9wYWNpdHk6IDAuOTQ7IHN0cm9rZTogcmdiKDgwLCA4MCwgODApOyIvPjxwYXRoIGNsYXNzPSJsaW5rIiBtYXJrZXItZW5kPSIiIGQ9Ik04NTQuNjY2NjY2NjY2NjY2Niw2MzcuNSwgOTY4LjY2NjY2NjY2NjY2NjYsNTE3LjUiIHN0eWxlPSJzdHJva2Utd2lkdGg6IDAuNzU7IHN0cm9rZS1vcGFjaXR5OiAwLjk0OyBzdHJva2U6IHJnYig4MCwgODAsIDgwKTsiLz48cGF0aCBjbGFzcz0ibGluayIgbWFya2VyLWVuZD0iIiBkPSJNODU0LjY2NjY2NjY2NjY2NjYsNjM3LjUsIDk2OC42NjY2NjY2NjY2NjY2LDU1Ny41IiBzdHlsZT0ic3Ryb2tlLXdpZHRoOiAwLjc1OyBzdHJva2Utb3BhY2l0eTogMC45NDsgc3Ryb2tlOiByZ2IoODAsIDgwLCA4MCk7Ii8+PHBhdGggY2xhc3M9ImxpbmsiIG1hcmtlci1lbmQ9IiIgZD0iTTg1NC42NjY2NjY2NjY2NjY2LDYzNy41LCA5NjguNjY2NjY2NjY2NjY2Niw1OTcuNSIgc3R5bGU9InN0cm9rZS13aWR0aDogMC43NTsgc3Ryb2tlLW9wYWNpdHk6IDAuOTQ7IHN0cm9rZTogcmdiKDgwLCA4MCwgODApOyIvPjxwYXRoIGNsYXNzPSJsaW5rIiBtYXJrZXItZW5kPSIiIGQ9Ik04NTQuNjY2NjY2NjY2NjY2NiwzMTcuNSwgOTY4LjY2NjY2NjY2NjY2NjYsNjM3LjUiIHN0eWxlPSJzdHJva2Utd2lkdGg6IDAuNzU7IHN0cm9rZS1vcGFjaXR5OiAwLjk0OyBzdHJva2U6IHJnYig4MCwgODAsIDgwKTsiLz48cGF0aCBjbGFzcz0ibGluayIgbWFya2VyLWVuZD0iIiBkPSJNODU0LjY2NjY2NjY2NjY2NjYsMzU3LjUsIDk2OC42NjY2NjY2NjY2NjY2LDYzNy41IiBzdHlsZT0ic3Ryb2tlLXdpZHRoOiAwLjc1OyBzdHJva2Utb3BhY2l0eTogMC45NDsgc3Ryb2tlOiByZ2IoODAsIDgwLCA4MCk7Ii8+PHBhdGggY2xhc3M9ImxpbmsiIG1hcmtlci1lbmQ9IiIgZD0iTTg1NC42NjY2NjY2NjY2NjY2LDM5Ny41LCA5NjguNjY2NjY2NjY2NjY2Niw2MzcuNSIgc3R5bGU9InN0cm9rZS13aWR0aDogMC43NTsgc3Ryb2tlLW9wYWNpdHk6IDAuOTQ7IHN0cm9rZTogcmdiKDgwLCA4MCwgODApOyIvPjxwYXRoIGNsYXNzPSJsaW5rIiBtYXJrZXItZW5kPSIiIGQ9Ik04NTQuNjY2NjY2NjY2NjY2Niw0MzcuNSwgOTY4LjY2NjY2NjY2NjY2NjYsNjM3LjUiIHN0eWxlPSJzdHJva2Utd2lkdGg6IDAuNzU7IHN0cm9rZS1vcGFjaXR5OiAwLjk0OyBzdHJva2U6IHJnYig4MCwgODAsIDgwKTsiLz48cGF0aCBjbGFzcz0ibGluayIgbWFya2VyLWVuZD0iIiBkPSJNODU0LjY2NjY2NjY2NjY2NjYsNDc3LjUsIDk2OC42NjY2NjY2NjY2NjY2LDYzNy41IiBzdHlsZT0ic3Ryb2tlLXdpZHRoOiAwLjc1OyBzdHJva2Utb3BhY2l0eTogMC45NDsgc3Ryb2tlOiByZ2IoODAsIDgwLCA4MCk7Ii8+PHBhdGggY2xhc3M9ImxpbmsiIG1hcmtlci1lbmQ9IiIgZD0iTTg1NC42NjY2NjY2NjY2NjY2LDUxNy41LCA5NjguNjY2NjY2NjY2NjY2Niw2MzcuNSIgc3R5bGU9InN0cm9rZS13aWR0aDogMC43NTsgc3Ryb2tlLW9wYWNpdHk6IDAuOTQ7IHN0cm9rZTogcmdiKDgwLCA4MCwgODApOyIvPjxwYXRoIGNsYXNzPSJsaW5rIiBtYXJrZXItZW5kPSIiIGQ9Ik04NTQuNjY2NjY2NjY2NjY2Niw1NTcuNSwgOTY4LjY2NjY2NjY2NjY2NjYsNjM3LjUiIHN0eWxlPSJzdHJva2Utd2lkdGg6IDAuNzU7IHN0cm9rZS1vcGFjaXR5OiAwLjk0OyBzdHJva2U6IHJnYig4MCwgODAsIDgwKTsiLz48cGF0aCBjbGFzcz0ibGluayIgbWFya2VyLWVuZD0iIiBkPSJNODU0LjY2NjY2NjY2NjY2NjYsNTk3LjUsIDk2OC42NjY2NjY2NjY2NjY2LDYzNy41IiBzdHlsZT0ic3Ryb2tlLXdpZHRoOiAwLjc1OyBzdHJva2Utb3BhY2l0eTogMC45NDsgc3Ryb2tlOiByZ2IoODAsIDgwLCA4MCk7Ii8+PHBhdGggY2xhc3M9ImxpbmsiIG1hcmtlci1lbmQ9IiIgZD0iTTg1NC42NjY2NjY2NjY2NjY2LDYzNy41LCA5NjguNjY2NjY2NjY2NjY2Niw2MzcuNSIgc3R5bGU9InN0cm9rZS13aWR0aDogMC43NTsgc3Ryb2tlLW9wYWNpdHk6IDAuOTQ7IHN0cm9rZTogcmdiKDgwLCA4MCwgODApOyIvPjxwYXRoIGNsYXNzPSJsaW5rIiBtYXJrZXItZW5kPSIiIGQ9Ik05NjguNjY2NjY2NjY2NjY2Niw2MzcuNSwgMTA4Mi42NjY2NjY2NjY2NjY3LDMxNy41IiBzdHlsZT0ic3Ryb2tlLXdpZHRoOiAwLjc1OyBzdHJva2Utb3BhY2l0eTogMC45NDsgc3Ryb2tlOiByZ2IoODAsIDgwLCA4MCk7Ii8+PHBhdGggY2xhc3M9ImxpbmsiIG1hcmtlci1lbmQ9IiIgZD0iTTk2OC42NjY2NjY2NjY2NjY2LDYzNy41LCAxMDgyLjY2NjY2NjY2NjY2NjcsMzU3LjUiIHN0eWxlPSJzdHJva2Utd2lkdGg6IDAuNzU7IHN0cm9rZS1vcGFjaXR5OiAwLjk0OyBzdHJva2U6IHJnYig4MCwgODAsIDgwKTsiLz48cGF0aCBjbGFzcz0ibGluayIgbWFya2VyLWVuZD0iIiBkPSJNOTY4LjY2NjY2NjY2NjY2NjYsNjM3LjUsIDEwODIuNjY2NjY2NjY2NjY2NywzOTcuNSIgc3R5bGU9InN0cm9rZS13aWR0aDogMC43NTsgc3Ryb2tlLW9wYWNpdHk6IDAuOTQ7IHN0cm9rZTogcmdiKDgwLCA4MCwgODApOyIvPjxwYXRoIGNsYXNzPSJsaW5rIiBtYXJrZXItZW5kPSIiIGQ9Ik05NjguNjY2NjY2NjY2NjY2Niw2MzcuNSwgMTA4Mi42NjY2NjY2NjY2NjY3LDQzNy41IiBzdHlsZT0ic3Ryb2tlLXdpZHRoOiAwLjc1OyBzdHJva2Utb3BhY2l0eTogMC45NDsgc3Ryb2tlOiByZ2IoODAsIDgwLCA4MCk7Ii8+PHBhdGggY2xhc3M9ImxpbmsiIG1hcmtlci1lbmQ9IiIgZD0iTTk2OC42NjY2NjY2NjY2NjY2LDYzNy41LCAxMDgyLjY2NjY2NjY2NjY2NjcsNDc3LjUiIHN0eWxlPSJzdHJva2Utd2lkdGg6IDAuNzU7IHN0cm9rZS1vcGFjaXR5OiAwLjk0OyBzdHJva2U6IHJnYig4MCwgODAsIDgwKTsiLz48cGF0aCBjbGFzcz0ibGluayIgbWFya2VyLWVuZD0iIiBkPSJNOTY4LjY2NjY2NjY2NjY2NjYsNjM3LjUsIDEwODIuNjY2NjY2NjY2NjY2Nyw1MTcuNSIgc3R5bGU9InN0cm9rZS13aWR0aDogMC43NTsgc3Ryb2tlLW9wYWNpdHk6IDAuOTQ7IHN0cm9rZTogcmdiKDgwLCA4MCwgODApOyIvPjxwYXRoIGNsYXNzPSJsaW5rIiBtYXJrZXItZW5kPSIiIGQ9Ik05NjguNjY2NjY2NjY2NjY2Niw2MzcuNSwgMTA4Mi42NjY2NjY2NjY2NjY3LDU1Ny41IiBzdHlsZT0ic3Ryb2tlLXdpZHRoOiAwLjc1OyBzdHJva2Utb3BhY2l0eTogMC45NDsgc3Ryb2tlOiByZ2IoODAsIDgwLCA4MCk7Ii8+PHBhdGggY2xhc3M9ImxpbmsiIG1hcmtlci1lbmQ9IiIgZD0iTTk2OC42NjY2NjY2NjY2NjY2LDYzNy41LCAxMDgyLjY2NjY2NjY2NjY2NjcsNTk3LjUiIHN0eWxlPSJzdHJva2Utd2lkdGg6IDAuNzU7IHN0cm9rZS1vcGFjaXR5OiAwLjk0OyBzdHJva2U6IHJnYig4MCwgODAsIDgwKTsiLz48cGF0aCBjbGFzcz0ibGluayIgbWFya2VyLWVuZD0iIiBkPSJNOTY4LjY2NjY2NjY2NjY2NjYsMzE3LjUsIDEwODIuNjY2NjY2NjY2NjY2Nyw2MzcuNSIgc3R5bGU9InN0cm9rZS13aWR0aDogMC43NTsgc3Ryb2tlLW9wYWNpdHk6IDAuOTQ7IHN0cm9rZTogcmdiKDgwLCA4MCwgODApOyIvPjxwYXRoIGNsYXNzPSJsaW5rIiBtYXJrZXItZW5kPSIiIGQ9Ik05NjguNjY2NjY2NjY2NjY2NiwzNTcuNSwgMTA4Mi42NjY2NjY2NjY2NjY3LDYzNy41IiBzdHlsZT0ic3Ryb2tlLXdpZHRoOiAwLjc1OyBzdHJva2Utb3BhY2l0eTogMC45NDsgc3Ryb2tlOiByZ2IoODAsIDgwLCA4MCk7Ii8+PHBhdGggY2xhc3M9ImxpbmsiIG1hcmtlci1lbmQ9IiIgZD0iTTk2OC42NjY2NjY2NjY2NjY2LDM5Ny41LCAxMDgyLjY2NjY2NjY2NjY2NjcsNjM3LjUiIHN0eWxlPSJzdHJva2Utd2lkdGg6IDAuNzU7IHN0cm9rZS1vcGFjaXR5OiAwLjk0OyBzdHJva2U6IHJnYig4MCwgODAsIDgwKTsiLz48cGF0aCBjbGFzcz0ibGluayIgbWFya2VyLWVuZD0iIiBkPSJNOTY4LjY2NjY2NjY2NjY2NjYsNDM3LjUsIDEwODIuNjY2NjY2NjY2NjY2Nyw2MzcuNSIgc3R5bGU9InN0cm9rZS13aWR0aDogMC43NTsgc3Ryb2tlLW9wYWNpdHk6IDAuOTQ7IHN0cm9rZTogcmdiKDgwLCA4MCwgODApOyIvPjxwYXRoIGNsYXNzPSJsaW5rIiBtYXJrZXItZW5kPSIiIGQ9Ik05NjguNjY2NjY2NjY2NjY2Niw0NzcuNSwgMTA4Mi42NjY2NjY2NjY2NjY3LDYzNy41IiBzdHlsZT0ic3Ryb2tlLXdpZHRoOiAwLjc1OyBzdHJva2Utb3BhY2l0eTogMC45NDsgc3Ryb2tlOiByZ2IoODAsIDgwLCA4MCk7Ii8+PHBhdGggY2xhc3M9ImxpbmsiIG1hcmtlci1lbmQ9IiIgZD0iTTk2OC42NjY2NjY2NjY2NjY2LDUxNy41LCAxMDgyLjY2NjY2NjY2NjY2NjcsNjM3LjUiIHN0eWxlPSJzdHJva2Utd2lkdGg6IDAuNzU7IHN0cm9rZS1vcGFjaXR5OiAwLjk0OyBzdHJva2U6IHJnYig4MCwgODAsIDgwKTsiLz48cGF0aCBjbGFzcz0ibGluayIgbWFya2VyLWVuZD0iIiBkPSJNOTY4LjY2NjY2NjY2NjY2NjYsNTU3LjUsIDEwODIuNjY2NjY2NjY2NjY2Nyw2MzcuNSIgc3R5bGU9InN0cm9rZS13aWR0aDogMC43NTsgc3Ryb2tlLW9wYWNpdHk6IDAuOTQ7IHN0cm9rZTogcmdiKDgwLCA4MCwgODApOyIvPjxwYXRoIGNsYXNzPSJsaW5rIiBtYXJrZXItZW5kPSIiIGQ9Ik05NjguNjY2NjY2NjY2NjY2Niw1OTcuNSwgMTA4Mi42NjY2NjY2NjY2NjY3LDYzNy41IiBzdHlsZT0ic3Ryb2tlLXdpZHRoOiAwLjc1OyBzdHJva2Utb3BhY2l0eTogMC45NDsgc3Ryb2tlOiByZ2IoODAsIDgwLCA4MCk7Ii8+PHBhdGggY2xhc3M9ImxpbmsiIG1hcmtlci1lbmQ9IiIgZD0iTTk2OC42NjY2NjY2NjY2NjY2LDYzNy41LCAxMDgyLjY2NjY2NjY2NjY2NjcsNjM3LjUiIHN0eWxlPSJzdHJva2Utd2lkdGg6IDAuNzU7IHN0cm9rZS1vcGFjaXR5OiAwLjk0OyBzdHJva2U6IHJnYig4MCwgODAsIDgwKTsiLz48cGF0aCBjbGFzcz0ibGluayIgbWFya2VyLWVuZD0iIiBkPSJNMTA4Mi42NjY2NjY2NjY2NjY3LDYzNy41LCAxMTk2LjY2NjY2NjY2NjY2NjcsMzE3LjUiIHN0eWxlPSJzdHJva2Utd2lkdGg6IDAuNzU7IHN0cm9rZS1vcGFjaXR5OiAwLjk0OyBzdHJva2U6IHJnYig4MCwgODAsIDgwKTsiLz48cGF0aCBjbGFzcz0ibGluayIgbWFya2VyLWVuZD0iIiBkPSJNMTA4Mi42NjY2NjY2NjY2NjY3LDYzNy41LCAxMTk2LjY2NjY2NjY2NjY2NjcsMzU3LjUiIHN0eWxlPSJzdHJva2Utd2lkdGg6IDAuNzU7IHN0cm9rZS1vcGFjaXR5OiAwLjk0OyBzdHJva2U6IHJnYig4MCwgODAsIDgwKTsiLz48cGF0aCBjbGFzcz0ibGluayIgbWFya2VyLWVuZD0iIiBkPSJNMTA4Mi42NjY2NjY2NjY2NjY3LDYzNy41LCAxMTk2LjY2NjY2NjY2NjY2NjcsMzk3LjUiIHN0eWxlPSJzdHJva2Utd2lkdGg6IDAuNzU7IHN0cm9rZS1vcGFjaXR5OiAwLjk0OyBzdHJva2U6IHJnYig4MCwgODAsIDgwKTsiLz48cGF0aCBjbGFzcz0ibGluayIgbWFya2VyLWVuZD0iIiBkPSJNMTA4Mi42NjY2NjY2NjY2NjY3LDYzNy41LCAxMTk2LjY2NjY2NjY2NjY2NjcsNDM3LjUiIHN0eWxlPSJzdHJva2Utd2lkdGg6IDAuNzU7IHN0cm9rZS1vcGFjaXR5OiAwLjk0OyBzdHJva2U6IHJnYig4MCwgODAsIDgwKTsiLz48cGF0aCBjbGFzcz0ibGluayIgbWFya2VyLWVuZD0iIiBkPSJNMTA4Mi42NjY2NjY2NjY2NjY3LDYzNy41LCAxMTk2LjY2NjY2NjY2NjY2NjcsNDc3LjUiIHN0eWxlPSJzdHJva2Utd2lkdGg6IDAuNzU7IHN0cm9rZS1vcGFjaXR5OiAwLjk0OyBzdHJva2U6IHJnYig4MCwgODAsIDgwKTsiLz48cGF0aCBjbGFzcz0ibGluayIgbWFya2VyLWVuZD0iIiBkPSJNMTA4Mi42NjY2NjY2NjY2NjY3LDYzNy41LCAxMTk2LjY2NjY2NjY2NjY2NjcsNTE3LjUiIHN0eWxlPSJzdHJva2Utd2lkdGg6IDAuNzU7IHN0cm9rZS1vcGFjaXR5OiAwLjk0OyBzdHJva2U6IHJnYig4MCwgODAsIDgwKTsiLz48cGF0aCBjbGFzcz0ibGluayIgbWFya2VyLWVuZD0iIiBkPSJNMTA4Mi42NjY2NjY2NjY2NjY3LDYzNy41LCAxMTk2LjY2NjY2NjY2NjY2NjcsNTU3LjUiIHN0eWxlPSJzdHJva2Utd2lkdGg6IDAuNzU7IHN0cm9rZS1vcGFjaXR5OiAwLjk0OyBzdHJva2U6IHJnYig4MCwgODAsIDgwKTsiLz48cGF0aCBjbGFzcz0ibGluayIgbWFya2VyLWVuZD0iIiBkPSJNMTA4Mi42NjY2NjY2NjY2NjY3LDYzNy41LCAxMTk2LjY2NjY2NjY2NjY2NjcsNTk3LjUiIHN0eWxlPSJzdHJva2Utd2lkdGg6IDAuNzU7IHN0cm9rZS1vcGFjaXR5OiAwLjk0OyBzdHJva2U6IHJnYig4MCwgODAsIDgwKTsiLz48cGF0aCBjbGFzcz0ibGluayIgbWFya2VyLWVuZD0iIiBkPSJNMTA4Mi42NjY2NjY2NjY2NjY3LDMxNy41LCAxMTk2LjY2NjY2NjY2NjY2NjcsNjM3LjUiIHN0eWxlPSJzdHJva2Utd2lkdGg6IDAuNzU7IHN0cm9rZS1vcGFjaXR5OiAwLjk0OyBzdHJva2U6IHJnYig4MCwgODAsIDgwKTsiLz48cGF0aCBjbGFzcz0ibGluayIgbWFya2VyLWVuZD0iIiBkPSJNMTA4Mi42NjY2NjY2NjY2NjY3LDM1Ny41LCAxMTk2LjY2NjY2NjY2NjY2NjcsNjM3LjUiIHN0eWxlPSJzdHJva2Utd2lkdGg6IDAuNzU7IHN0cm9rZS1vcGFjaXR5OiAwLjk0OyBzdHJva2U6IHJnYig4MCwgODAsIDgwKTsiLz48cGF0aCBjbGFzcz0ibGluayIgbWFya2VyLWVuZD0iIiBkPSJNMTA4Mi42NjY2NjY2NjY2NjY3LDM5Ny41LCAxMTk2LjY2NjY2NjY2NjY2NjcsNjM3LjUiIHN0eWxlPSJzdHJva2Utd2lkdGg6IDAuNzU7IHN0cm9rZS1vcGFjaXR5OiAwLjk0OyBzdHJva2U6IHJnYig4MCwgODAsIDgwKTsiLz48cGF0aCBjbGFzcz0ibGluayIgbWFya2VyLWVuZD0iIiBkPSJNMTA4Mi42NjY2NjY2NjY2NjY3LDQzNy41LCAxMTk2LjY2NjY2NjY2NjY2NjcsNjM3LjUiIHN0eWxlPSJzdHJva2Utd2lkdGg6IDAuNzU7IHN0cm9rZS1vcGFjaXR5OiAwLjk0OyBzdHJva2U6IHJnYig4MCwgODAsIDgwKTsiLz48cGF0aCBjbGFzcz0ibGluayIgbWFya2VyLWVuZD0iIiBkPSJNMTA4Mi42NjY2NjY2NjY2NjY3LDQ3Ny41LCAxMTk2LjY2NjY2NjY2NjY2NjcsNjM3LjUiIHN0eWxlPSJzdHJva2Utd2lkdGg6IDAuNzU7IHN0cm9rZS1vcGFjaXR5OiAwLjk0OyBzdHJva2U6IHJnYig4MCwgODAsIDgwKTsiLz48cGF0aCBjbGFzcz0ibGluayIgbWFya2VyLWVuZD0iIiBkPSJNMTA4Mi42NjY2NjY2NjY2NjY3LDUxNy41LCAxMTk2LjY2NjY2NjY2NjY2NjcsNjM3LjUiIHN0eWxlPSJzdHJva2Utd2lkdGg6IDAuNzU7IHN0cm9rZS1vcGFjaXR5OiAwLjk0OyBzdHJva2U6IHJnYig4MCwgODAsIDgwKTsiLz48cGF0aCBjbGFzcz0ibGluayIgbWFya2VyLWVuZD0iIiBkPSJNMTA4Mi42NjY2NjY2NjY2NjY3LDU1Ny41LCAxMTk2LjY2NjY2NjY2NjY2NjcsNjM3LjUiIHN0eWxlPSJzdHJva2Utd2lkdGg6IDAuNzU7IHN0cm9rZS1vcGFjaXR5OiAwLjk0OyBzdHJva2U6IHJnYig4MCwgODAsIDgwKTsiLz48cGF0aCBjbGFzcz0ibGluayIgbWFya2VyLWVuZD0iIiBkPSJNMTA4Mi42NjY2NjY2NjY2NjY3LDU5Ny41LCAxMTk2LjY2NjY2NjY2NjY2NjcsNjM3LjUiIHN0eWxlPSJzdHJva2Utd2lkdGg6IDAuNzU7IHN0cm9rZS1vcGFjaXR5OiAwLjk0OyBzdHJva2U6IHJnYig4MCwgODAsIDgwKTsiLz48cGF0aCBjbGFzcz0ibGluayIgbWFya2VyLWVuZD0iIiBkPSJNMTA4Mi42NjY2NjY2NjY2NjY3LDYzNy41LCAxMTk2LjY2NjY2NjY2NjY2NjcsNjM3LjUiIHN0eWxlPSJzdHJva2Utd2lkdGg6IDAuNzU7IHN0cm9rZS1vcGFjaXR5OiAwLjk0OyBzdHJva2U6IHJnYig4MCwgODAsIDgwKTsiLz48cGF0aCBjbGFzcz0ibGluayIgbWFya2VyLWVuZD0iIiBkPSJNMTE5Ni42NjY2NjY2NjY2NjY3LDYzNy41LCAxMzEwLjY2NjY2NjY2NjY2NjcsMzE3LjUiIHN0eWxlPSJzdHJva2Utd2lkdGg6IDAuNzU7IHN0cm9rZS1vcGFjaXR5OiAwLjk0OyBzdHJva2U6IHJnYig4MCwgODAsIDgwKTsiLz48cGF0aCBjbGFzcz0ibGluayIgbWFya2VyLWVuZD0iIiBkPSJNMTE5Ni42NjY2NjY2NjY2NjY3LDYzNy41LCAxMzEwLjY2NjY2NjY2NjY2NjcsMzU3LjUiIHN0eWxlPSJzdHJva2Utd2lkdGg6IDAuNzU7IHN0cm9rZS1vcGFjaXR5OiAwLjk0OyBzdHJva2U6IHJnYig4MCwgODAsIDgwKTsiLz48cGF0aCBjbGFzcz0ibGluayIgbWFya2VyLWVuZD0iIiBkPSJNMTE5Ni42NjY2NjY2NjY2NjY3LDYzNy41LCAxMzEwLjY2NjY2NjY2NjY2NjcsMzk3LjUiIHN0eWxlPSJzdHJva2Utd2lkdGg6IDAuNzU7IHN0cm9rZS1vcGFjaXR5OiAwLjk0OyBzdHJva2U6IHJnYig4MCwgODAsIDgwKTsiLz48cGF0aCBjbGFzcz0ibGluayIgbWFya2VyLWVuZD0iIiBkPSJNMTE5Ni42NjY2NjY2NjY2NjY3LDYzNy41LCAxMzEwLjY2NjY2NjY2NjY2NjcsNDM3LjUiIHN0eWxlPSJzdHJva2Utd2lkdGg6IDAuNzU7IHN0cm9rZS1vcGFjaXR5OiAwLjk0OyBzdHJva2U6IHJnYig4MCwgODAsIDgwKTsiLz48cGF0aCBjbGFzcz0ibGluayIgbWFya2VyLWVuZD0iIiBkPSJNMTE5Ni42NjY2NjY2NjY2NjY3LDYzNy41LCAxMzEwLjY2NjY2NjY2NjY2NjcsNDc3LjUiIHN0eWxlPSJzdHJva2Utd2lkdGg6IDAuNzU7IHN0cm9rZS1vcGFjaXR5OiAwLjk0OyBzdHJva2U6IHJnYig4MCwgODAsIDgwKTsiLz48cGF0aCBjbGFzcz0ibGluayIgbWFya2VyLWVuZD0iIiBkPSJNMTE5Ni42NjY2NjY2NjY2NjY3LDYzNy41LCAxMzEwLjY2NjY2NjY2NjY2NjcsNTE3LjUiIHN0eWxlPSJzdHJva2Utd2lkdGg6IDAuNzU7IHN0cm9rZS1vcGFjaXR5OiAwLjk0OyBzdHJva2U6IHJnYig4MCwgODAsIDgwKTsiLz48cGF0aCBjbGFzcz0ibGluayIgbWFya2VyLWVuZD0iIiBkPSJNMTE5Ni42NjY2NjY2NjY2NjY3LDYzNy41LCAxMzEwLjY2NjY2NjY2NjY2NjcsNTU3LjUiIHN0eWxlPSJzdHJva2Utd2lkdGg6IDAuNzU7IHN0cm9rZS1vcGFjaXR5OiAwLjk0OyBzdHJva2U6IHJnYig4MCwgODAsIDgwKTsiLz48cGF0aCBjbGFzcz0ibGluayIgbWFya2VyLWVuZD0iIiBkPSJNMTE5Ni42NjY2NjY2NjY2NjY3LDYzNy41LCAxMzEwLjY2NjY2NjY2NjY2NjcsNTk3LjUiIHN0eWxlPSJzdHJva2Utd2lkdGg6IDAuNzU7IHN0cm9rZS1vcGFjaXR5OiAwLjk0OyBzdHJva2U6IHJnYig4MCwgODAsIDgwKTsiLz48cGF0aCBjbGFzcz0ibGluayIgbWFya2VyLWVuZD0iIiBkPSJNMTE5Ni42NjY2NjY2NjY2NjY3LDMxNy41LCAxMzEwLjY2NjY2NjY2NjY2NjcsNjM3LjUiIHN0eWxlPSJzdHJva2Utd2lkdGg6IDAuNzU7IHN0cm9rZS1vcGFjaXR5OiAwLjk0OyBzdHJva2U6IHJnYig4MCwgODAsIDgwKTsiLz48cGF0aCBjbGFzcz0ibGluayIgbWFya2VyLWVuZD0iIiBkPSJNMTE5Ni42NjY2NjY2NjY2NjY3LDM1Ny41LCAxMzEwLjY2NjY2NjY2NjY2NjcsNjM3LjUiIHN0eWxlPSJzdHJva2Utd2lkdGg6IDAuNzU7IHN0cm9rZS1vcGFjaXR5OiAwLjk0OyBzdHJva2U6IHJnYig4MCwgODAsIDgwKTsiLz48cGF0aCBjbGFzcz0ibGluayIgbWFya2VyLWVuZD0iIiBkPSJNMTE5Ni42NjY2NjY2NjY2NjY3LDM5Ny41LCAxMzEwLjY2NjY2NjY2NjY2NjcsNjM3LjUiIHN0eWxlPSJzdHJva2Utd2lkdGg6IDAuNzU7IHN0cm9rZS1vcGFjaXR5OiAwLjk0OyBzdHJva2U6IHJnYig4MCwgODAsIDgwKTsiLz48cGF0aCBjbGFzcz0ibGluayIgbWFya2VyLWVuZD0iIiBkPSJNMTE5Ni42NjY2NjY2NjY2NjY3LDQzNy41LCAxMzEwLjY2NjY2NjY2NjY2NjcsNjM3LjUiIHN0eWxlPSJzdHJva2Utd2lkdGg6IDAuNzU7IHN0cm9rZS1vcGFjaXR5OiAwLjk0OyBzdHJva2U6IHJnYig4MCwgODAsIDgwKTsiLz48cGF0aCBjbGFzcz0ibGluayIgbWFya2VyLWVuZD0iIiBkPSJNMTE5Ni42NjY2NjY2NjY2NjY3LDQ3Ny41LCAxMzEwLjY2NjY2NjY2NjY2NjcsNjM3LjUiIHN0eWxlPSJzdHJva2Utd2lkdGg6IDAuNzU7IHN0cm9rZS1vcGFjaXR5OiAwLjk0OyBzdHJva2U6IHJnYig4MCwgODAsIDgwKTsiLz48cGF0aCBjbGFzcz0ibGluayIgbWFya2VyLWVuZD0iIiBkPSJNMTE5Ni42NjY2NjY2NjY2NjY3LDUxNy41LCAxMzEwLjY2NjY2NjY2NjY2NjcsNjM3LjUiIHN0eWxlPSJzdHJva2Utd2lkdGg6IDAuNzU7IHN0cm9rZS1vcGFjaXR5OiAwLjk0OyBzdHJva2U6IHJnYig4MCwgODAsIDgwKTsiLz48cGF0aCBjbGFzcz0ibGluayIgbWFya2VyLWVuZD0iIiBkPSJNMTE5Ni42NjY2NjY2NjY2NjY3LDU1Ny41LCAxMzEwLjY2NjY2NjY2NjY2NjcsNjM3LjUiIHN0eWxlPSJzdHJva2Utd2lkdGg6IDAuNzU7IHN0cm9rZS1vcGFjaXR5OiAwLjk0OyBzdHJva2U6IHJnYig4MCwgODAsIDgwKTsiLz48cGF0aCBjbGFzcz0ibGluayIgbWFya2VyLWVuZD0iIiBkPSJNMTE5Ni42NjY2NjY2NjY2NjY3LDU5Ny41LCAxMzEwLjY2NjY2NjY2NjY2NjcsNjM3LjUiIHN0eWxlPSJzdHJva2Utd2lkdGg6IDAuNzU7IHN0cm9rZS1vcGFjaXR5OiAwLjk0OyBzdHJva2U6IHJnYig4MCwgODAsIDgwKTsiLz48cGF0aCBjbGFzcz0ibGluayIgbWFya2VyLWVuZD0iIiBkPSJNMTE5Ni42NjY2NjY2NjY2NjY3LDYzNy41LCAxMzEwLjY2NjY2NjY2NjY2NjcsNjM3LjUiIHN0eWxlPSJzdHJva2Utd2lkdGg6IDAuNzU7IHN0cm9rZS1vcGFjaXR5OiAwLjk0OyBzdHJva2U6IHJnYig4MCwgODAsIDgwKTsiLz48cGF0aCBjbGFzcz0ibGluayIgbWFya2VyLWVuZD0iIiBkPSJNMTMxMC42NjY2NjY2NjY2NjY3LDYzNy41LCAxNDI0LjY2NjY2NjY2NjY2NjcsNDE3LjUiIHN0eWxlPSJzdHJva2Utd2lkdGg6IDAuNzU7IHN0cm9rZS1vcGFjaXR5OiAwLjk0OyBzdHJva2U6IHJnYig4MCwgODAsIDgwKTsiLz48cGF0aCBjbGFzcz0ibGluayIgbWFya2VyLWVuZD0iIiBkPSJNMTMxMC42NjY2NjY2NjY2NjY3LDYzNy41LCAxNDI0LjY2NjY2NjY2NjY2NjcsNDU3LjUiIHN0eWxlPSJzdHJva2Utd2lkdGg6IDAuNzU7IHN0cm9rZS1vcGFjaXR5OiAwLjk0OyBzdHJva2U6IHJnYig4MCwgODAsIDgwKTsiLz48cGF0aCBjbGFzcz0ibGluayIgbWFya2VyLWVuZD0iIiBkPSJNMTMxMC42NjY2NjY2NjY2NjY3LDYzNy41LCAxNDI0LjY2NjY2NjY2NjY2NjcsNDk3LjUiIHN0eWxlPSJzdHJva2Utd2lkdGg6IDAuNzU7IHN0cm9rZS1vcGFjaXR5OiAwLjk0OyBzdHJva2U6IHJnYig4MCwgODAsIDgwKTsiLz48cGF0aCBjbGFzcz0ibGluayIgbWFya2VyLWVuZD0iIiBkPSJNMTMxMC42NjY2NjY2NjY2NjY3LDYzNy41LCAxNDI0LjY2NjY2NjY2NjY2NjcsNTM3LjUiIHN0eWxlPSJzdHJva2Utd2lkdGg6IDAuNzU7IHN0cm9rZS1vcGFjaXR5OiAwLjk0OyBzdHJva2U6IHJnYig4MCwgODAsIDgwKTsiLz48Y2lyY2xlIHI9IjkuNSIgY2xhc3M9Im5vZGUiIGlkPSIwXzAiIGN4PSI3NDAuNjY2NjY2NjY2NjY2NiIgY3k9IjQyMC41IiBzdHlsZT0iZmlsbDogcmdiKDI0MywgMjM2LCAyMzYpOyBzdHJva2U6IHJnYigxNTcsIDcyLCA3Mik7Ii8+PGNpcmNsZSByPSI5LjUiIGNsYXNzPSJub2RlIiBpZD0iMF8xIiBjeD0iNzQwLjY2NjY2NjY2NjY2NjYiIGN5PSI0NTguNSIgc3R5bGU9ImZpbGw6IHJnYigyNDMsIDIzNiwgMjM2KTsgc3Ryb2tlOiByZ2IoMTU3LCA3MiwgNzIpOyIvPjxjaXJjbGUgcj0iOS41IiBjbGFzcz0ibm9kZSIgaWQ9IjBfMiIgY3g9Ijc0MC42NjY2NjY2NjY2NjY2IiBjeT0iNDk2LjUiIHN0eWxlPSJmaWxsOiByZ2IoMjQzLCAyMzYsIDIzNik7IHN0cm9rZTogcmdiKDE1NywgNzIsIDcyKTsiLz48Y2lyY2xlIHI9IjkuNSIgY2xhc3M9Im5vZGUiIGlkPSIwXzMiIGN4PSI3NDAuNjY2NjY2NjY2NjY2NiIgY3k9IjUzNC41IiBzdHlsZT0iZmlsbDogcmdiKDI0MywgMjM2LCAyMzYpOyBzdHJva2U6IHJnYigxNTcsIDcyLCA3Mik7Ii8+PGNpcmNsZSByPSI5LjUiIGNsYXNzPSJub2RlIiBpZD0iMV8wIiBjeD0iODU0LjY2NjY2NjY2NjY2NjYiIGN5PSIzMTcuNSIgc3R5bGU9ImZpbGw6IHJnYigyNDMsIDIzNiwgMjM2KTsgc3Ryb2tlOiByZ2IoMTU3LCA3MiwgNzIpOyIvPjxjaXJjbGUgcj0iOS41IiBjbGFzcz0ibm9kZSIgaWQ9IjFfMSIgY3g9Ijg1NC42NjY2NjY2NjY2NjY2IiBjeT0iMzU3LjUiIHN0eWxlPSJmaWxsOiByZ2IoMjQzLCAyMzYsIDIzNik7IHN0cm9rZTogcmdiKDE1NywgNzIsIDcyKTsiLz48Y2lyY2xlIHI9IjkuNSIgY2xhc3M9Im5vZGUiIGlkPSIxXzIiIGN4PSI4NTQuNjY2NjY2NjY2NjY2NiIgY3k9IjM5Ny41IiBzdHlsZT0iZmlsbDogcmdiKDI0MywgMjM2LCAyMzYpOyBzdHJva2U6IHJnYigxNTcsIDcyLCA3Mik7Ii8+PGNpcmNsZSByPSI5LjUiIGNsYXNzPSJub2RlIiBpZD0iMV8zIiBjeD0iODU0LjY2NjY2NjY2NjY2NjYiIGN5PSI0MzcuNSIgc3R5bGU9ImZpbGw6IHJnYigyNDMsIDIzNiwgMjM2KTsgc3Ryb2tlOiByZ2IoMTU3LCA3MiwgNzIpOyIvPjxjaXJjbGUgcj0iOS41IiBjbGFzcz0ibm9kZSIgaWQ9IjFfNCIgY3g9Ijg1NC42NjY2NjY2NjY2NjY2IiBjeT0iNDc3LjUiIHN0eWxlPSJmaWxsOiByZ2IoMjQzLCAyMzYsIDIzNik7IHN0cm9rZTogcmdiKDE1NywgNzIsIDcyKTsiLz48Y2lyY2xlIHI9IjkuNSIgY2xhc3M9Im5vZGUiIGlkPSIxXzUiIGN4PSI4NTQuNjY2NjY2NjY2NjY2NiIgY3k9IjUxNy41IiBzdHlsZT0iZmlsbDogcmdiKDI0MywgMjM2LCAyMzYpOyBzdHJva2U6IHJnYigxNTcsIDcyLCA3Mik7Ii8+PGNpcmNsZSByPSI5LjUiIGNsYXNzPSJub2RlIiBpZD0iMV82IiBjeD0iODU0LjY2NjY2NjY2NjY2NjYiIGN5PSI1NTcuNSIgc3R5bGU9ImZpbGw6IHJnYigyNDMsIDIzNiwgMjM2KTsgc3Ryb2tlOiByZ2IoMTU3LCA3MiwgNzIpOyIvPjxjaXJjbGUgcj0iOS41IiBjbGFzcz0ibm9kZSIgaWQ9IjFfNyIgY3g9Ijg1NC42NjY2NjY2NjY2NjY2IiBjeT0iNTk3LjUiIHN0eWxlPSJmaWxsOiByZ2IoMjQzLCAyMzYsIDIzNik7IHN0cm9rZTogcmdiKDE1NywgNzIsIDcyKTsiLz48Y2lyY2xlIHI9IjkuNSIgY2xhc3M9Im5vZGUiIGlkPSIxXzgiIGN4PSI4NTQuNjY2NjY2NjY2NjY2NiIgY3k9IjYzNy41IiBzdHlsZT0iZmlsbDogcmdiKDI0MywgMjM2LCAyMzYpOyBzdHJva2U6IHJnYigxNTcsIDcyLCA3Mik7Ii8+PGNpcmNsZSByPSI5LjUiIGNsYXNzPSJub2RlIiBpZD0iMl8wIiBjeD0iOTY4LjY2NjY2NjY2NjY2NjYiIGN5PSIzMTcuNSIgc3R5bGU9ImZpbGw6IHJnYigyNDMsIDIzNiwgMjM2KTsgc3Ryb2tlOiByZ2IoMTU3LCA3MiwgNzIpOyIvPjxjaXJjbGUgcj0iOS41IiBjbGFzcz0ibm9kZSIgaWQ9IjJfMSIgY3g9Ijk2OC42NjY2NjY2NjY2NjY2IiBjeT0iMzU3LjUiIHN0eWxlPSJmaWxsOiByZ2IoMjQzLCAyMzYsIDIzNik7IHN0cm9rZTogcmdiKDE1NywgNzIsIDcyKTsiLz48Y2lyY2xlIHI9IjkuNSIgY2xhc3M9Im5vZGUiIGlkPSIyXzIiIGN4PSI5NjguNjY2NjY2NjY2NjY2NiIgY3k9IjM5Ny41IiBzdHlsZT0iZmlsbDogcmdiKDI0MywgMjM2LCAyMzYpOyBzdHJva2U6IHJnYigxNTcsIDcyLCA3Mik7Ii8+PGNpcmNsZSByPSI5LjUiIGNsYXNzPSJub2RlIiBpZD0iMl8zIiBjeD0iOTY4LjY2NjY2NjY2NjY2NjYiIGN5PSI0MzcuNSIgc3R5bGU9ImZpbGw6IHJnYigyNDMsIDIzNiwgMjM2KTsgc3Ryb2tlOiByZ2IoMTU3LCA3MiwgNzIpOyIvPjxjaXJjbGUgcj0iOS41IiBjbGFzcz0ibm9kZSIgaWQ9IjJfNCIgY3g9Ijk2OC42NjY2NjY2NjY2NjY2IiBjeT0iNDc3LjUiIHN0eWxlPSJmaWxsOiByZ2IoMjQzLCAyMzYsIDIzNik7IHN0cm9rZTogcmdiKDE1NywgNzIsIDcyKTsiLz48Y2lyY2xlIHI9IjkuNSIgY2xhc3M9Im5vZGUiIGlkPSIyXzUiIGN4PSI5NjguNjY2NjY2NjY2NjY2NiIgY3k9IjUxNy41IiBzdHlsZT0iZmlsbDogcmdiKDI0MywgMjM2LCAyMzYpOyBzdHJva2U6IHJnYigxNTcsIDcyLCA3Mik7Ii8+PGNpcmNsZSByPSI5LjUiIGNsYXNzPSJub2RlIiBpZD0iMl82IiBjeD0iOTY4LjY2NjY2NjY2NjY2NjYiIGN5PSI1NTcuNSIgc3R5bGU9ImZpbGw6IHJnYigyNDMsIDIzNiwgMjM2KTsgc3Ryb2tlOiByZ2IoMTU3LCA3MiwgNzIpOyIvPjxjaXJjbGUgcj0iOS41IiBjbGFzcz0ibm9kZSIgaWQ9IjJfNyIgY3g9Ijk2OC42NjY2NjY2NjY2NjY2IiBjeT0iNTk3LjUiIHN0eWxlPSJmaWxsOiByZ2IoMjQzLCAyMzYsIDIzNik7IHN0cm9rZTogcmdiKDE1NywgNzIsIDcyKTsiLz48Y2lyY2xlIHI9IjkuNSIgY2xhc3M9Im5vZGUiIGlkPSIyXzgiIGN4PSI5NjguNjY2NjY2NjY2NjY2NiIgY3k9IjYzNy41IiBzdHlsZT0iZmlsbDogcmdiKDI0MywgMjM2LCAyMzYpOyBzdHJva2U6IHJnYigxNTcsIDcyLCA3Mik7Ii8+PGNpcmNsZSByPSI5LjUiIGNsYXNzPSJub2RlIiBpZD0iM18wIiBjeD0iMTA4Mi42NjY2NjY2NjY2NjY3IiBjeT0iMzE3LjUiIHN0eWxlPSJmaWxsOiByZ2IoMjQzLCAyMzYsIDIzNik7IHN0cm9rZTogcmdiKDE1NywgNzIsIDcyKTsiLz48dGV4dCBjbGFzcz0idGV4dCIgZHk9Ii4zNWVtIiB4PSI3MDUuNjY2NjY2NjY2NjY2NiIgeT0iNjc3LjUiIHN0eWxlPSJmb250LXNpemU6IDEycHg7Ij5JbnB1dCBMYXllciDiiIgg4oSd4oG0PC90ZXh0Pjx0ZXh0IGNsYXNzPSJ0ZXh0IiBkeT0iLjM1ZW0iIHg9IjgxOS42NjY2NjY2NjY2NjY2IiB5PSI2NzcuNSIgc3R5bGU9ImZvbnQtc2l6ZTogMTJweDsiPkhpZGRlbiBMYXllciDiiIgg4oSd4oG5PC90ZXh0Pjx0ZXh0IGNsYXNzPSJ0ZXh0IiBkeT0iLjM1ZW0iIHg9IjkzMy42NjY2NjY2NjY2NjY2IiB5PSI2NzcuNSIgc3R5bGU9ImZvbnQtc2l6ZTogMTJweDsiPkhpZGRlbiBMYXllciDiiIgg4oSd4oG5PC90ZXh0Pjx0ZXh0IGNsYXNzPSJ0ZXh0IiBkeT0iLjM1ZW0iIHg9IjEwNDcuNjY2NjY2NjY2NjY2NyIgeT0iNjc3LjUiIHN0eWxlPSJmb250LXNpemU6IDEycHg7Ij5IaWRkZW4gTGF5ZXIg4oiIIOKEneKBuTwvdGV4dD48Y2lyY2xlIHI9IjkuNSIgY2xhc3M9Im5vZGUiIGlkPSIzXzEiIGN4PSIxMDgyLjY2NjY2NjY2NjY2NjciIGN5PSIzNTcuNSIgc3R5bGU9ImZpbGw6IHJnYigyNDMsIDIzNiwgMjM2KTsgc3Ryb2tlOiByZ2IoMTU3LCA3MiwgNzIpOyIvPjxjaXJjbGUgcj0iOS41IiBjbGFzcz0ibm9kZSIgaWQ9IjNfMiIgY3g9IjEwODIuNjY2NjY2NjY2NjY2NyIgY3k9IjM5Ny41IiBzdHlsZT0iZmlsbDogcmdiKDI0MywgMjM2LCAyMzYpOyBzdHJva2U6IHJnYigxNTcsIDcyLCA3Mik7Ii8+PGNpcmNsZSByPSI5LjUiIGNsYXNzPSJub2RlIiBpZD0iM18zIiBjeD0iMTA4Mi42NjY2NjY2NjY2NjY3IiBjeT0iNDM3LjUiIHN0eWxlPSJmaWxsOiByZ2IoMjQzLCAyMzYsIDIzNik7IHN0cm9rZTogcmdiKDE1NywgNzIsIDcyKTsiLz48Y2lyY2xlIHI9IjkuNSIgY2xhc3M9Im5vZGUiIGlkPSIzXzQiIGN4PSIxMDgyLjY2NjY2NjY2NjY2NjciIGN5PSI0NzcuNSIgc3R5bGU9ImZpbGw6IHJnYigyNDMsIDIzNiwgMjM2KTsgc3Ryb2tlOiByZ2IoMTU3LCA3MiwgNzIpOyIvPjxjaXJjbGUgcj0iOS41IiBjbGFzcz0ibm9kZSIgaWQ9IjNfNSIgY3g9IjEwODIuNjY2NjY2NjY2NjY2NyIgY3k9IjUxNy41IiBzdHlsZT0iZmlsbDogcmdiKDI0MywgMjM2LCAyMzYpOyBzdHJva2U6IHJnYigxNTcsIDcyLCA3Mik7Ii8+PGNpcmNsZSByPSI5LjUiIGNsYXNzPSJub2RlIiBpZD0iM182IiBjeD0iMTA4Mi42NjY2NjY2NjY2NjY3IiBjeT0iNTU3LjUiIHN0eWxlPSJmaWxsOiByZ2IoMjQzLCAyMzYsIDIzNik7IHN0cm9rZTogcmdiKDE1NywgNzIsIDcyKTsiLz48Y2lyY2xlIHI9IjkuNSIgY2xhc3M9Im5vZGUiIGlkPSIzXzciIGN4PSIxMDgyLjY2NjY2NjY2NjY2NjciIGN5PSI1OTcuNSIgc3R5bGU9ImZpbGw6IHJnYigyNDMsIDIzNiwgMjM2KTsgc3Ryb2tlOiByZ2IoMTU3LCA3MiwgNzIpOyIvPjxjaXJjbGUgcj0iOS41IiBjbGFzcz0ibm9kZSIgaWQ9IjNfOCIgY3g9IjEwODIuNjY2NjY2NjY2NjY2NyIgY3k9IjYzNy41IiBzdHlsZT0iZmlsbDogcmdiKDI0MywgMjM2LCAyMzYpOyBzdHJva2U6IHJnYigxNTcsIDcyLCA3Mik7Ii8+PGNpcmNsZSByPSI5LjUiIGNsYXNzPSJub2RlIiBpZD0iNF8wIiBjeD0iMTE5Ni42NjY2NjY2NjY2NjY3IiBjeT0iMzE3LjUiIHN0eWxlPSJmaWxsOiByZ2IoMjQzLCAyMzYsIDIzNik7IHN0cm9rZTogcmdiKDE1NywgNzIsIDcyKTsiLz48Y2lyY2xlIHI9IjkuNSIgY2xhc3M9Im5vZGUiIGlkPSI0XzEiIGN4PSIxMTk2LjY2NjY2NjY2NjY2NjciIGN5PSIzNTcuNSIgc3R5bGU9ImZpbGw6IHJnYigyNDMsIDIzNiwgMjM2KTsgc3Ryb2tlOiByZ2IoMTU3LCA3MiwgNzIpOyIvPjxjaXJjbGUgcj0iOS41IiBjbGFzcz0ibm9kZSIgaWQ9IjRfMiIgY3g9IjExOTYuNjY2NjY2NjY2NjY2NyIgY3k9IjM5Ny41IiBzdHlsZT0iZmlsbDogcmdiKDI0MywgMjM2LCAyMzYpOyBzdHJva2U6IHJnYigxNTcsIDcyLCA3Mik7Ii8+PGNpcmNsZSByPSI5LjUiIGNsYXNzPSJub2RlIiBpZD0iNF8zIiBjeD0iMTE5Ni42NjY2NjY2NjY2NjY3IiBjeT0iNDM3LjUiIHN0eWxlPSJmaWxsOiByZ2IoMjQzLCAyMzYsIDIzNik7IHN0cm9rZTogcmdiKDE1NywgNzIsIDcyKTsiLz48Y2lyY2xlIHI9IjkuNSIgY2xhc3M9Im5vZGUiIGlkPSI0XzQiIGN4PSIxMTk2LjY2NjY2NjY2NjY2NjciIGN5PSI0NzcuNSIgc3R5bGU9ImZpbGw6IHJnYigyNDMsIDIzNiwgMjM2KTsgc3Ryb2tlOiByZ2IoMTU3LCA3MiwgNzIpOyIvPjxjaXJjbGUgcj0iOS41IiBjbGFzcz0ibm9kZSIgaWQ9IjRfNSIgY3g9IjExOTYuNjY2NjY2NjY2NjY2NyIgY3k9IjUxNy41IiBzdHlsZT0iZmlsbDogcmdiKDI0MywgMjM2LCAyMzYpOyBzdHJva2U6IHJnYigxNTcsIDcyLCA3Mik7Ii8+PGNpcmNsZSByPSI5LjUiIGNsYXNzPSJub2RlIiBpZD0iNF82IiBjeD0iMTE5Ni42NjY2NjY2NjY2NjY3IiBjeT0iNTU3LjUiIHN0eWxlPSJmaWxsOiByZ2IoMjQzLCAyMzYsIDIzNik7IHN0cm9rZTogcmdiKDE1NywgNzIsIDcyKTsiLz48Y2lyY2xlIHI9IjkuNSIgY2xhc3M9Im5vZGUiIGlkPSI0XzciIGN4PSIxMTk2LjY2NjY2NjY2NjY2NjciIGN5PSI1OTcuNSIgc3R5bGU9ImZpbGw6IHJnYigyNDMsIDIzNiwgMjM2KTsgc3Ryb2tlOiByZ2IoMTU3LCA3MiwgNzIpOyIvPjx0ZXh0IGNsYXNzPSJ0ZXh0IiBkeT0iLjM1ZW0iIHg9IjExNjEuNjY2NjY2NjY2NjY2NyIgeT0iNjc3LjUiIHN0eWxlPSJmb250LXNpemU6IDEycHg7Ij5IaWRkZW4gTGF5ZXIg4oiIIOKEneKBuTwvdGV4dD48Y2lyY2xlIHI9IjkuNSIgY2xhc3M9Im5vZGUiIGlkPSI0XzgiIGN4PSIxMTk2LjY2NjY2NjY2NjY2NjciIGN5PSI2MzcuNSIgc3R5bGU9ImZpbGw6IHJnYigyNDMsIDIzNiwgMjM2KTsgc3Ryb2tlOiByZ2IoMTU3LCA3MiwgNzIpOyIvPjxjaXJjbGUgcj0iOS41IiBjbGFzcz0ibm9kZSIgaWQ9IjVfMCIgY3g9IjEzMTAuNjY2NjY2NjY2NjY2NyIgY3k9IjMxNy41IiBzdHlsZT0iZmlsbDogcmdiKDI0MywgMjM2LCAyMzYpOyBzdHJva2U6IHJnYigxNTcsIDcyLCA3Mik7Ii8+PGNpcmNsZSByPSI5LjUiIGNsYXNzPSJub2RlIiBpZD0iNV8xIiBjeD0iMTMxMC42NjY2NjY2NjY2NjY3IiBjeT0iMzU3LjUiIHN0eWxlPSJmaWxsOiByZ2IoMjQzLCAyMzYsIDIzNik7IHN0cm9rZTogcmdiKDE1NywgNzIsIDcyKTsiLz48Y2lyY2xlIHI9IjkuNSIgY2xhc3M9Im5vZGUiIGlkPSI1XzIiIGN4PSIxMzEwLjY2NjY2NjY2NjY2NjciIGN5PSIzOTcuNSIgc3R5bGU9ImZpbGw6IHJnYigyNDMsIDIzNiwgMjM2KTsgc3Ryb2tlOiByZ2IoMTU3LCA3MiwgNzIpOyIvPjxjaXJjbGUgcj0iOS41IiBjbGFzcz0ibm9kZSIgaWQ9IjVfMyIgY3g9IjEzMTAuNjY2NjY2NjY2NjY2NyIgY3k9IjQzNy41IiBzdHlsZT0iZmlsbDogcmdiKDI0MywgMjM2LCAyMzYpOyBzdHJva2U6IHJnYigxNTcsIDcyLCA3Mik7Ii8+PGNpcmNsZSByPSI5LjUiIGNsYXNzPSJub2RlIiBpZD0iNV80IiBjeD0iMTMxMC42NjY2NjY2NjY2NjY3IiBjeT0iNDc3LjUiIHN0eWxlPSJmaWxsOiByZ2IoMjQzLCAyMzYsIDIzNik7IHN0cm9rZTogcmdiKDE1NywgNzIsIDcyKTsiLz48Y2lyY2xlIHI9IjkuNSIgY2xhc3M9Im5vZGUiIGlkPSI1XzUiIGN4PSIxMzEwLjY2NjY2NjY2NjY2NjciIGN5PSI1MTcuNSIgc3R5bGU9ImZpbGw6IHJnYigyNDMsIDIzNiwgMjM2KTsgc3Ryb2tlOiByZ2IoMTU3LCA3MiwgNzIpOyIvPjxjaXJjbGUgcj0iOS41IiBjbGFzcz0ibm9kZSIgaWQ9IjVfNiIgY3g9IjEzMTAuNjY2NjY2NjY2NjY2NyIgY3k9IjU1Ny41IiBzdHlsZT0iZmlsbDogcmdiKDI0MywgMjM2LCAyMzYpOyBzdHJva2U6IHJnYigxNTcsIDcyLCA3Mik7Ii8+PGNpcmNsZSByPSI5LjUiIGNsYXNzPSJub2RlIiBpZD0iNV83IiBjeD0iMTMxMC42NjY2NjY2NjY2NjY3IiBjeT0iNTk3LjUiIHN0eWxlPSJmaWxsOiByZ2IoMjQzLCAyMzYsIDIzNik7IHN0cm9rZTogcmdiKDE1NywgNzIsIDcyKTsiLz48dGV4dCBjbGFzcz0idGV4dCIgZHk9Ii4zNWVtIiB4PSIxMjc1LjY2NjY2NjY2NjY2NjciIHk9IjY3Ny41IiBzdHlsZT0iZm9udC1zaXplOiAxMnB4OyI+SGlkZGVuIExheWVyIOKIiCDihJ3igbk8L3RleHQ+PGNpcmNsZSByPSI5LjUiIGNsYXNzPSJub2RlIiBpZD0iNV84IiBjeD0iMTMxMC42NjY2NjY2NjY2NjY3IiBjeT0iNjM3LjUiIHN0eWxlPSJmaWxsOiByZ2IoMjQzLCAyMzYsIDIzNik7IHN0cm9rZTogcmdiKDE1NywgNzIsIDcyKTsiLz48Y2lyY2xlIHI9IjkuNSIgY2xhc3M9Im5vZGUiIGlkPSI2XzAiIGN4PSIxNDI0LjY2NjY2NjY2NjY2NjciIGN5PSI0MTcuNSIgc3R5bGU9ImZpbGw6IHJnYigyNDMsIDIzNiwgMjM2KTsgc3Ryb2tlOiByZ2IoMTU3LCA3MiwgNzIpOyIvPjxjaXJjbGUgcj0iOS41IiBjbGFzcz0ibm9kZSIgaWQ9IjZfMSIgY3g9IjE0MjQuNjY2NjY2NjY2NjY2NyIgY3k9IjQ1Ny41IiBzdHlsZT0iZmlsbDogcmdiKDI0MywgMjM2LCAyMzYpOyBzdHJva2U6IHJnYigxNTcsIDcyLCA3Mik7Ii8+PGNpcmNsZSByPSI5LjUiIGNsYXNzPSJub2RlIiBpZD0iNl8yIiBjeD0iMTQyNC42NjY2NjY2NjY2NjY3IiBjeT0iNDk3LjUiIHN0eWxlPSJmaWxsOiByZ2IoMjQzLCAyMzYsIDIzNik7IHN0cm9rZTogcmdiKDE1NywgNzIsIDcyKTsiLz48Y2lyY2xlIHI9IjkuNSIgY2xhc3M9Im5vZGUiIGlkPSI2XzMiIGN4PSIxNDI0LjY2NjY2NjY2NjY2NjciIGN5PSI1MzcuNSIgc3R5bGU9ImZpbGw6IHJnYigyNDMsIDIzNiwgMjM2KTsgc3Ryb2tlOiByZ2IoMTU3LCA3MiwgNzIpOyIvPjx0ZXh0IGNsYXNzPSJ0ZXh0IiBkeT0iLjM1ZW0iIHg9IjEzODkuNjY2NjY2NjY2NjY2NyIgeT0iNjc3LjUiIHN0eWxlPSJmb250LXNpemU6IDEycHg7Ij5PdXRwdXQgTGF5ZXIg4oiIIOKEneKBtDwvdGV4dD48L2c+PGRlZnM+PG1hcmtlciBpZD0iYXJyb3ciIHZpZXdCb3g9IjAgLTUgMTAgMTAiIG1hcmtlcldpZHRoPSI3IiBtYXJrZXJIZWlnaHQ9IjciIG9yaWVudD0iYXV0byIgcmVmWD0iMzguNTk5OTk5OTk5OTk5OTk0Ij48cGF0aCBkPSJNMCwtNUwxMCwwTDAsNSIgc3R5bGU9InN0cm9rZTogcmdiKDgwLCA4MCwgODApOyBmaWxsOiBub25lOyIvPjwvbWFya2VyPjwvZGVmcz48L3N2Zz4=;" vertex="1" parent="1">
          <mxGeometry x="150" y="290" width="520" height="249" as="geometry" />
        </mxCell>
        <mxCell id="4ahaboOEKAR06NXVl91K-2" value="&lt;font face=&quot;Times New Roman&quot;&gt;input layer&lt;/font&gt;" style="text;html=1;resizable=0;autosize=1;align=center;verticalAlign=middle;points=[];fillColor=none;strokeColor=none;rounded=0;" vertex="1" parent="1">
          <mxGeometry x="135" y="300" width="70" height="20" as="geometry" />
        </mxCell>
        <mxCell id="4ahaboOEKAR06NXVl91K-3" value="&lt;font face=&quot;Times New Roman&quot;&gt;hidden layer-1&lt;/font&gt;" style="text;html=1;resizable=0;autosize=1;align=center;verticalAlign=middle;points=[];fillColor=none;strokeColor=none;rounded=0;" vertex="1" parent="1">
          <mxGeometry x="205" y="250" width="80" height="20" as="geometry" />
        </mxCell>
        <mxCell id="4ahaboOEKAR06NXVl91K-4" value="&lt;font face=&quot;Times New Roman&quot;&gt;hidden layer-2&lt;/font&gt;" style="text;html=1;resizable=0;autosize=1;align=center;verticalAlign=middle;points=[];fillColor=none;strokeColor=none;rounded=0;" vertex="1" parent="1">
          <mxGeometry x="280" y="250" width="80" height="20" as="geometry" />
        </mxCell>
        <mxCell id="4ahaboOEKAR06NXVl91K-5" value="&lt;font face=&quot;Times New Roman&quot;&gt;hidden layer-4&lt;/font&gt;" style="text;html=1;resizable=0;autosize=1;align=center;verticalAlign=middle;points=[];fillColor=none;strokeColor=none;rounded=0;" vertex="1" parent="1">
          <mxGeometry x="440" y="250" width="80" height="20" as="geometry" />
        </mxCell>
        <mxCell id="4ahaboOEKAR06NXVl91K-6" value="&lt;font face=&quot;Times New Roman&quot;&gt;hidden layer-3&lt;/font&gt;" style="text;html=1;resizable=0;autosize=1;align=center;verticalAlign=middle;points=[];fillColor=none;strokeColor=none;rounded=0;" vertex="1" parent="1">
          <mxGeometry x="360" y="250" width="80" height="20" as="geometry" />
        </mxCell>
        <mxCell id="4ahaboOEKAR06NXVl91K-7" value="&lt;font face=&quot;Times New Roman&quot;&gt;hidden layer-5&lt;/font&gt;" style="text;html=1;resizable=0;autosize=1;align=center;verticalAlign=middle;points=[];fillColor=none;strokeColor=none;rounded=0;" vertex="1" parent="1">
          <mxGeometry x="520" y="250" width="80" height="20" as="geometry" />
        </mxCell>
        <mxCell id="4ahaboOEKAR06NXVl91K-8" value="&lt;font face=&quot;Times New Roman&quot;&gt;output layer&lt;/font&gt;" style="text;html=1;resizable=0;autosize=1;align=center;verticalAlign=middle;points=[];fillColor=none;strokeColor=none;rounded=0;" vertex="1" parent="1">
          <mxGeometry x="590" y="300" width="70" height="20" as="geometry" />
        </mxCell>
        <mxCell id="4ahaboOEKAR06NXVl91K-9" value="" style="endArrow=classic;html=1;strokeColor=#994C00;" edge="1" parent="1">
          <mxGeometry width="50" height="50" relative="1" as="geometry">
            <mxPoint x="632" y="362" as="sourcePoint" />
            <mxPoint x="659" y="362" as="targetPoint" />
          </mxGeometry>
        </mxCell>
        <mxCell id="4ahaboOEKAR06NXVl91K-10" value="" style="endArrow=classic;html=1;strokeColor=#994C00;" edge="1" parent="1">
          <mxGeometry width="50" height="50" relative="1" as="geometry">
            <mxPoint x="632" y="388" as="sourcePoint" />
            <mxPoint x="659" y="388" as="targetPoint" />
          </mxGeometry>
        </mxCell>
        <mxCell id="4ahaboOEKAR06NXVl91K-11" value="" style="endArrow=classic;html=1;strokeColor=#994C00;" edge="1" parent="1">
          <mxGeometry width="50" height="50" relative="1" as="geometry">
            <mxPoint x="632" y="414.26" as="sourcePoint" />
            <mxPoint x="659" y="414.26" as="targetPoint" />
          </mxGeometry>
        </mxCell>
        <mxCell id="4ahaboOEKAR06NXVl91K-12" value="" style="endArrow=classic;html=1;strokeColor=#994C00;" edge="1" parent="1">
          <mxGeometry width="50" height="50" relative="1" as="geometry">
            <mxPoint x="632" y="441" as="sourcePoint" />
            <mxPoint x="659" y="441" as="targetPoint" />
          </mxGeometry>
        </mxCell>
      </root>
    </mxGraphModel>
  </diagram>
</mxfile>
